<?xml version="1.0" encoding="UTF-8"?>
<svg width="1200pt" height="1200pt" version="1.1" viewBox="0 0 1200 1200" xmlns="http://www.w3.org/2000/svg">
 <path d="m222.77 265.75c-73.348 82.715-119.91 189.73-126.07 307.44-0.79688 2.25-0.91016 4.6953-0.31641 7.0156-0.25391 6.5625-0.38281 13.16-0.38281 19.789 0 278.35 225.65 504 504 504 138.5 0 263.94-55.859 355.04-146.28 1.0273-0.74609 1.9336-1.6523 2.6797-2.6797 90.422-91.098 146.28-216.55 146.28-355.04 0-273.62-228.87-504-504-504-146.97 0-279.25 62.91-371.38 163.27-2.7969 1.3984-4.8164 3.7539-5.8477 6.4805zm443.08 809.77c96.496-13.238 183.85-55.16 253.19-116.89-140.12-10.746-244.2-79.398-317-159.85-75.137-83.023-117.44-179.07-132.43-238.63-33.199-11.734-68.125-20.754-103.18-26.133-52.086-7.9961-103.61-7.8438-149.78 2.8438 2.7188 27.668 12.715 68.02 30.344 114.88 19.637 52.215 48.445 111.7 86.199 169.47 75.703 115.83 186.2 223.03 329.28 253.05 1.2148 0.25391 2.3477 0.68359 3.375 1.2578zm-69.434 4.4688c-122.04-45.621-216.68-143.7-283.31-245.64-38.777-59.336-68.359-120.41-88.574-174.15-17.141-45.57-27.766-86.457-31.316-116.83-26.969 8.7891-51.637 21.664-72.906 39.164-0.20703 5.8008-0.3125 11.625-0.3125 17.477 0 263.9 212.97 478.06 476.42 479.99zm-48.426-396.04c-24.238-41.672-40.836-81.527-50.492-113.14 40.926 16.844 78.289 37.672 108.75 60.566-17.191 18.207-36.539 35.809-58.262 52.578zm200.39-293.95c-12.215 82.039-45.457 169.17-114.46 246.77-0.17969 0.26562-0.375 0.52344-0.57812 0.77734-0.46484 0.57031-0.96875 1.0898-1.5117 1.5547-20.523 22.785-44.16 44.734-71.285 65.469 16.691 26.254 36.398 52.805 59.289 78.102 50.68 56 116.74 105.62 200.14 132.41 0.24609-0.22266 0.50391-0.4375 0.76953-0.64063 117.12-89.008 172.37-209.07 192.71-320.5 19.957-109.36 6.0781-209.27-15.043-261.75-63.738-94.637-160.3-165.32-273.38-195.75 20.746 56.527 37.469 146.53 24.605 244.64 0.75391 3.0117 0.30859 6.2227-1.2461 8.9219zm-378.31 120.29c94.047 14.43 187.57 53.996 252.26 103.14 61.07-71.773 90.992-151.59 102.3-226.93-52.109-63.848-131.68-108.81-218.82-128.81-87.848-20.16-182.37-14.711-262.73 21.348-66.266 73.641-110.06 167.89-120.61 271.97 68.207-45.949 159.26-54.281 247.61-40.723zm-85.934-271.73c73.066-21.047 152.61-21.336 227.04-4.2539 83.605 19.188 161.6 60.492 217.21 120.05 7.8086-92.758-10.961-175.6-31.426-223.65-0.14063-0.32422-0.26172-0.65234-0.37109-0.98047-31.199-6.375-63.504-9.7227-96.59-9.7227-120.95 0-231.45 44.734-315.86 118.56zm564.36 684.61c29.449 7.2539 60.898 11.699 94.418 12.703 84.801-86.566 137.09-205.11 137.09-335.87 0-66.027-13.332-128.94-37.449-186.2 6.8203 53.102 6.7578 117.3-5.4961 184.45-20.391 111.73-74.734 232.7-188.56 324.91z" fill-rule="evenodd"/>
</svg>
