<?xml version="1.0" encoding="UTF-8"?>
<svg width="1200pt" height="1200pt" version="1.1" viewBox="0 0 1200 1200" xmlns="http://www.w3.org/2000/svg">
 <path d="m1011.9 154.93c2.5977 37.695-2.3516 85.367-31.875 112.85-28.402 26.605-65.941 41.285-104.86 41.008-22.875-0.38672-45.426-5.4648-66.262-14.918-7.6797-3.4883-31.93-12.375-33.516-21.562-28.398-25.129-42.5-62.699-37.641-100.31 7.2461-74.566 53.504-135.19 133.3-134.49 73.695 0.69531 129.99 41.25 140.53 115.27 0.20703 0.70312 0.31641 1.4336 0.31641 2.1641zm-18.535 17.711c0.054688-5.9062-0.066406-11.746-0.51562-17.711h0.003906c-2.1523-17.988-8.6172-35.191-18.844-50.145 1.875 27.992-6.0391 58.715-23.617 77.117-10.648 9.0781-23.984 14.41-37.961 15.168 28.445 8.3828 62.523 2.3516 80.23-23.672h0.003906c0.21484-0.26563 0.44922-0.51953 0.70313-0.75781zm-15.551 66.648c6.1328-11.637 10.457-24.133 12.824-37.07-25.77 17.77-58.457 22.219-88.039 11.992-6.875-2.3125-13.578-5.1094-20.055-8.375-7.625 4.7109-13.422 11.871-16.441 20.309 32.93 22.164 74.535 27.059 111.71 13.145zm-33.328-80.109c10.164-20.438 15-56.738 5.3359-78.254-0.25391-0.57031-0.375-1.1445-0.57031-1.7148h-0.003906c-10.598-7.7266-22.449-13.566-35.035-17.27 8.5039 31.547 9.582 63.75-17.645 87.336h0.003906c-11.09 8.4766-23.477 15.102-36.688 19.613 8.1836 4.5078 15.992 9.6484 23.992 14.539 20.945-6.4766 49.445-1.8438 60.609-24.25zm11.879 105c-32.477 5.582-65.871-0.84766-93.949-18.094-0.074218 14.926 2.4609 29.75 7.5 43.797 5.1719 0.1875 10.348 0 15.488-0.57031 25.406-2.2148 49.828-10.867 70.961-25.145zm-55.988-158.69c1.082-16.332-1.3867-32.703-7.2383-47.992-5.7617-0.79297-11.574-1.1758-17.391-1.1445 13.418 13.207 22.078 30.484 24.629 49.137zm-17.898 10.848c-1.7812-23.926-12.891-50.324-38.023-54.375-1.1602-0.17969-2.2773-0.56641-3.3008-1.1445-16.414 4.3594-31.609 12.418-44.426 23.559 17.395-1.1172 34.816 1.7031 50.969 8.25 12.559 6.3867 24.246 14.355 34.781 23.711zm-2.8594 22.5c-10.762-10.672-22.934-19.816-36.176-27.188-19.996-9.4492-41.062-8.1172-62.586-7.9961l-0.003907-0.003906c-0.46484-0.003907-0.92578-0.042969-1.3867-0.12109-11.277 16.059-18.609 34.551-21.395 53.973 24.75-9.8438 54.711-6.4141 79.594 1.707 14.676-5.2773 28.742-12.117 41.953-20.402zm-30.469 148.53c-9.1406-31.426-9.3281-69.188 14.477-91.594-9.2617-5.2031-18.656-10.473-28.125-15-30.402 19.359-46.875 47.859-42.086 83.598 0.15625 0.125 0.32813 0.23047 0.50781 0.31641 17.098 10.418 35.738 18.062 55.227 22.652zm-35.398-115.11c-19.242-6.4531-40.375-3.7617-57.383 7.3008v0.76172c-1.0898 23.371 5.0664 46.508 17.633 66.242 1.0352-29.586 15.711-57.027 39.75-74.305z"/>
 <path d="m783.9 515.83c43.293 43.031 18.535 113.93-1.5859 162.37l0.003906-0.003907c-14.754 34.48-33.25 67.238-55.152 97.68-8.6328 12.32-25.387 22.023-31.359 35.164-8.7578 19.426-8.5703 38.016-9.582 58.836v0.003906c-1.6797 18.543-6.1289 36.73-13.199 53.953-0.32031 0.75781-0.70313 1.5195-1.0234 2.2891 4.6875 33.066 6.0391 66.562 11.492 99.523 3.6758 22.34 12.309 45.121 11.164 67.977h0.003906c-0.41016 5.3477-2.4492 10.441-5.8438 14.594-3.3906 4.1523-7.9766 7.168-13.133 8.6367-22.5 4.3789-45.508 4.2461-68.164 8.8789h-0.13281c-19.293 29.324-55.473 45.836-90.508 31.547h0.003906c-0.14062 0.10156-0.29297 0.18359-0.45312 0.25391-2.1172 1.2109-4.6289 1.5312-6.9844 0.89062-1.4844-0.12891-2.9141-0.60938-4.1797-1.3984-6.3477-3.8711-12.891-7.9961-19.238-12.441-102.07 51.73-182.29-39.918-279.38-58.332v0.003906c-3.2109 0.28125-6.3789-0.89844-8.6211-3.2148-2.2383-2.3164-3.3164-5.5195-2.9297-8.7188 3.1406-15.531 11.824-29.383 24.434-38.973 8.4375-7.4258 0.38281-22.211 5.9062-32.305 11.867-21.77 26.25-39.664 35.223-63.469v-0.003907c8.3242-21.742 11.531-45.113 9.375-68.297-2.2148-50.234 3.1445-100.52 15.898-149.16 6.4766-25.387 17.645-50.148 23.043-75.602v0.003906c3.9102-20.148 8.918-40.062 15-59.664-1.0781-2.3438-2.1016-4.8828-3.3008-7.8672-8.5117-21.836 5.625-65.129 11.926-86.391 9.375-31.352 35.043-63.852 68.242-64.688v0.003906c18.133-6.7539 36.914-11.625 56.043-14.531-5.2695-20.82 0.25391-44.242 18.215-52.051-8.1484-23.844-7.4258-49.828 2.0352-73.184 7.6797-18.348 25.387-46.875 45.758-51.984 0.17187 0.011719 0.34375-0.011718 0.50781-0.0625 1.0117-2.8047 2.2422-5.5234 3.6836-8.1289 9.4609-17.195 30.59-25.828 48.805-28.434h0.003907c25.148-4.332 50.934-3.293 75.656 3.0469 18.453 7.6836 32.148 23.699 36.879 43.125 46.473 21.477 44.879 80.398 31.68 123.66 9.0742 5.2695 13.773 20.82 14.598 32.242 1.875 24.254-2.9141 47.289-22.273 62.082l-0.003906-0.003907c26.711 10.84 50.422 27.949 69.121 49.887 0.17578 0.23828 0.32422 0.49609 0.44141 0.76953 0.68359 0.42969 1.3203 0.92578 1.9023 1.4805zm-33.57 185.42c22.172-43.305 62.484-126.84 21.516-170.44-38.039 3.957-71.328 27.285-88.031 61.688 5.5039-3.8711 11.27-7.3516 17.258-10.414 7.8086-4.0586 13.012-5.8984 13.836-4.6875 0.82422 1.2109-2.9141 5.3359-9.582 10.988-6.6641 5.6523-16.508 12.883-25.387 20.879-0.57031 0.57031-1.1445 1.1445-1.6484 1.7148v-0.003907c-4.7344 18.668-11.75 36.684-20.887 53.637 35.625 2.1562 70.266 14.719 88.293 45.758 1.5859-3.168 3.1719-6.2148 4.6328-9.1211zm-15 29.391c-0.94141-1.0195-1.6953-2.2031-2.2227-3.4883-13.266-34.023-51.348-43.293-84.375-43.801-0.25391 0-0.50781-0.066406-0.75781-0.066406-1.6484 3.3008-3.3008 6.5625-4.9492 9.8438v0.003906c4.7617-1.2109 9.6914-1.6641 14.594-1.3438 11.043 0.70313 16.941 4.3867 16.5 5.4648-0.38281 1.3984-6.5625 0.32031-16.312 1.4531v0.003907c-5.5469 0.59375-10.953 2.1172-15.992 4.5078-1.8789 0.95312-3.6289 2.1484-5.2031 3.5547-0.13281 0.36328-0.28125 0.72656-0.44922 1.0781 4.8438-0.58594 9.7188-0.83984 14.598-0.76172 4.6875 0.066406 8.6992 0.066406 13.211 0.44922h-0.003906c7.7852 0.32813 15.465 1.9336 22.727 4.7539 3.0391 1.2734 5.7734 2.418 8.0547 3.4961 2.2773 1.0781 4.125 2.2773 5.625 3.2344 2.9805 1.875 4.5664 3.3008 4.2578 3.9922-0.30859 0.69531-2.3516 0.63672-5.8398-0.12109-1.7148-0.32031-3.8164-0.89062-6.2891-1.5273-2.4766-0.63672-5.0703-1.1328-7.9961-1.875h-0.007812c-6.8242-1.5469-13.816-2.25-20.812-2.0898-3.75-0.13281-8.5117 0.054687-12.891 0.12109-4.3789 0.066406-8.9453 0.25391-13.332 0.89062-2.0781 0.15625-4.1406 0.51953-6.1484 1.0781-6.0938 15.301-11.551 30.844-18.469 45.77-9.0195 19.414-19.688 39.027-20.758 60.863-0.13281 3.3672-0.44922 6.6641-0.70313 10.031 25.242-7.9961 52.723-4.4922 75.152 9.582 0.78125-6.1797 1.9492-12.305 3.4961-18.34 2.8242-12.344 8.0898-23.996 15.488-34.273 0.38281-7.9297 0.9375-15.168 0.70312-21.562-0.23438-6.0547-1.7031-11.996-4.3242-17.457-1.332-2.1562-2.5977-4.1914-3.6094-5.9062-1.0117-1.7148-2.6719-3.3008-3.5625-4.5664-1.875-2.6055-2.7266-4.2578-2.2773-4.7617 0.44922-0.50781 2.2227 0.13281 4.9492 1.875 1.7305 0.93359 3.3477 2.0625 4.8203 3.3672 1.7148 1.7148 3.75 3.75 5.7734 6.1602 4.2969 6.0547 6.9648 13.117 7.7461 20.5 0.35547 3.2461 0.54688 6.5078 0.57031 9.7695 1.7969-4.3281 2.9102-8.9062 3.3008-13.574 0.44531-6.6992-0.48438-13.418-2.7266-19.742-3.8711-10.977-10.977-14.727-10.152-16.246 0.25391-0.63672 2.4102-0.44922 5.9062 1.2656l-0.003907-0.003906c4.7266 2.8047 8.5781 6.8711 11.109 11.75 3.8047 7.168 5.7656 15.172 5.7109 23.285 0 0.89062-0.066406 1.7812-0.13281 2.7383 10.145-12.086 18.859-25.305 25.961-39.395zm-29.129-286.88c7.2656-8.8281 10.863-20.113 10.051-31.52 0.10938-6.3789-0.52344-12.75-1.875-18.984-0.34766-2.0859-0.97656-4.1133-1.875-6.0273-0.42578 0.52734-0.91797 0.99609-1.4609 1.3984-0.66406 18.438-2.2969 36.828-4.8867 55.094zm0.20703-136.27c1.168 2.125 2.125 4.3555 2.8594 6.6641 0.625-18.938-8.1758-36.957-23.492-48.109-1.8945 3.3828-4.4609 6.3398-7.5469 8.6875 8.8203 11.516 20.754 19.699 28.18 32.758zm49.828 206.73c-17.078-15.305-36.691-27.523-57.957-36.109-7.4766 24.973-21.043 47.699-39.477 66.129-0.25391 0.44922-0.50781 0.76953-0.75781 1.2109h-0.003907c-4.3477 6.9688-7.8633 14.426-10.469 22.219-4.9492 16.312-7.5547 33-10.988 44.934-3.6758 11.617-7.2266 18.215-8.5703 17.898-1.5195-0.44141-0.50781-7.9297 1.2109-19.801 0.70312-5.625 1.332-12.441 2.4766-20.117-17.324 28.434-43.988 56.25-69.562 45.758h-0.003907c4.6562 12.211 7.8516 24.93 9.5156 37.895 0.9375 11.109 0.066406 17.898-1.2656 18.148-1.5859 0.25391-3.3672-6.5625-6.2266-17.008-2.9141-10.152-7.6133-24.188-13.574-39.543-1.3984-3.5547-2.8125-7.0508-4.1914-10.406-45.195-40.117-61.695-121.17-61.191-178.04h0.003906c-8.7656-3.2461-16.203-9.3164-21.141-17.25-1.5664 1.2344-3.4727 1.9648-5.4648 2.0898-8.5 0.71484-16.887 2.3984-25.004 5.0156 20.125 11.789 35.926 29.734 45.074 51.188 13.012 29.391 3.9375 63.918 19.164 92.477 30.852 57.957 57.637 114.89 64.051 180.84v-0.003906c3.2227 16.09 5.5742 32.34 7.0391 48.684-0.25391 17.137-6.2812 32.879-7.3594 49.828-1.1445 18.656-2.8125 37.32-4.2578 55.914 0.28906 0.19531 0.56641 0.40625 0.82812 0.63672 2.418-9.5156 4.9492-19.039 6.8633-28.688 5.2578-27.234 5.5781-55.164 11.672-81.883 0-1.5195-0.066407-3.0469-0.066407-4.5664v-4.3203l0.13281-0.82422 0.066406-1.0117 0.25391-1.9688c0.63672-5.3359 1.2656-10.977 1.9688-17.008 1.4531-11.812 3.2344-25.266 5.5234-38.852l-0.007813 0.003906c2.9922-23.723 7.7656-47.188 14.281-70.191 5.7109-17.898 11.617-27.422 12.824-27.039 1.5859 0.50781-1.9688 11.617-5.5234 28.941-3.6836 17.645-6.918 42.336-11.043 69.945-1.3984 8.8867-2.8125 17.457-4.1914 25.641 9.2617-22.914 19.039-45.824 29.324-68.164 12.309-26.785 29.512-54.273 37.695-83.023h0.003906c-0.16406-1.1172-0.14453-2.25 0.066406-3.3555 9.2031-49.23 50.969-85.727 98.258-96.266zm-66.141-104.77c2.7695-24.102 3.9883-48.352 3.6562-72.609-2.1562-25.773-20.371-35.625-33.383-54.461-20.383 3.6172-44.625-5.2695-63.75-8.5117-7.6133-0.375-18.535-0.44141-29.633-1.3984-32.609 50.336-68.008 88.738-54.867 153.68 10.086 49.883 29.258 149.28 102.07 122.18 58.07-21.637 73.051-83.016 75.91-138.87zm-39.676 691.09c33.965-1.5938 23.043-25.773 18.852-46.875-6.7891-34.211-9.0742-68.926-13.125-103.45h0.003907c-3.2891 4.1562-6.2031 8.5938-8.7031 13.266-7.0469 13.957-12.355 28.727-15.805 43.98l0.51562 1.2109v-0.003907c0.73047 1.832 1.6211 3.5977 2.6641 5.2695 1.9688 3.3672 4.4453 6.5625 6.2148 9.4609 1.5938 2.3438 2.8359 4.9062 3.6836 7.6133 0.38281 1.9688 0.32031 3.1797-0.32031 3.5547-0.63672 0.375-1.7734-0.12109-3.2344-1.3984-1.4609-1.2734-3.3672-2.5977-5.9062-4.8828v-0.003906c-2.3008-1.9727-4.4922-4.0664-6.5625-6.2812-1.332 7.5547-2.3516 15.168-3.2344 22.848 1.4922-0.23047 2.9961-0.37891 4.5-0.44141 4.3867-0.13281 7.5547-0.066406 9.9102 0 2.1562-0.066406 3.6094 0.066406 3.9922 0.75781 0.38281 0.69531-0.57031 1.875-2.9141 3.2344v0.003907c-3.1406 1.5234-6.4414 2.6953-9.8438 3.4961-1.9961 0.49219-3.9492 1.1523-5.8398 1.9688-0.27344 0.19922-0.57031 0.37109-0.88281 0.50391-0.63672 6.0938-1.2109 12.309-1.7812 18.535 6.4453-2.3906 13.02-4.4258 19.688-6.0938 8.1172-1.3984 11.992 0.50781 12.188 1.6484 0.1875 1.4531-4.6875 2.2773-10.164 5.0156-2.9805 1.3984-6.4688 3.3555-10.789 5.5781v0.003907c-3.8242 2.0039-7.8398 3.6211-11.988 4.8281-0.13281 1.332-0.25391 2.6055-0.38281 3.9375h-0.003906c-0.63672 5.668-1.8477 11.262-3.6172 16.688 10.867-2.0234 21.852-3.3477 32.887-3.9688zm9.375-837.58c20.625-6.1602 3.168-33.582-8.5703-39.375-18.984-9.5234-72.805-11.934-91.977 0.30859v0.003906c-4.8945 2.7812-9.3164 6.3164-13.105 10.48 4.5664 16.246 13.387 23.102 26.336 20.691 8.2852-0.48828 16.59-0.53516 24.879-0.13281 0.63672 0.039062 1.2656 0.14453 1.875 0.32031h0.63672c12.066 1.875 23.805 5.3359 35.859 7.1055 7.8867 1.8203 16.062 2.0234 24.031 0.60156zm4.5 605.34c-1.4805-0.50781-2.7969-1.4062-3.8047-2.6055-11.992-13.52-53.699-21.262-68.551-9.0078-0.96875 0.82812-2.0898 1.4648-3.3008 1.875-3.168 20.625-7.9297 40.82-12.254 61.508-0.12109 7.1719-1.4531 18.75-2.6641 31.875-1.5859 21.328-3.6836 39.375-6.7305 39.289-1.5859-0.066406-3.1016-5.5234-3.9297-14.277h0.003906c-1.7422 3.8828-3.8672 7.5859-6.3477 11.043 1.9609 32.492 3.9297 65.887-5.7852 95.398-5.625 17.07-7.5 37.949-15.676 54.207l0.003906 0.003906c1.2383-0.79297 2.4062-1.6875 3.4961-2.6719 4.2383-4.5273 8.082-9.4141 11.484-14.598 7.3594-11.43 13.453-22.727 18.75-30.523 5.2969-7.8008 9.4609-12 10.668-11.305 1.3984 0.76953-0.63672 6.4141-3.9375 14.914-0.13281 0.26172-0.25391 0.57031-0.38281 0.83594-0.62891 2.5977-1.5859 5.7734-2.8125 9.4492-1.5938 4.8945-4.125 10.219-6.7969 16.312l-1.0781 2.2891-0.50781 1.1445-0.066406 0.12109-0.066407 0.066407-0.30859 0.57031-0.26172 0.32031-0.44141 0.63672v-0.003906c-1.1523 1.6328-2.4258 3.1797-3.8047 4.6289-2.5391 2.7266-5.1484 5.2695-7.3047 7.8672l-1.4531 1.875c-0.23047 0.39062-0.50781 0.75391-0.82422 1.0781-0.32031 0.69531-0.57031 1.7148-0.89062 2.5391l-0.066406 0.054687h0.32031l-0.066406 0.19531v0.003906c-0.050781 0.050781-0.074219 0.11719-0.066406 0.1875 3.4023-0.38672 6.7578-1.0859 10.031-2.0898 2.4102-0.82422 4.7617-1.7812 6.7891-2.5391 0.15234-0.054688 0.30078-0.11719 0.44922-0.1875 12.75-5.6445 23.059-15.664 29.062-28.25 6.1719-16.562 9.2461-34.121 9.0742-51.797 0.91797-25.07 5.4062-49.883 13.332-73.688 4.5586-14.188 10.961-27.719 19.039-40.246 9-10.297 16.227-22.02 21.387-34.688 3.4922-13.688 5.5859-27.699 6.2539-41.812zm-39.77-302.77c-7.7031 2.7305-15.723 4.4609-23.867 5.1484-16.008 1.6719-32.129-1.8945-45.938-10.164 1.0781 7.1719 2.0898 13.648 2.8125 18.535 0.88281 5.4648 1.332 9.375-0.066406 9.8438-1.3984 0.46875-4.125-1.875-6.9844-7.0508-3.4336-6.9688-5.707-14.449-6.7305-22.152-0.375-2.8125-0.62891-5.457-0.82422-8.0547-17.602-18.484-30.129-41.203-36.367-65.953 4.1211 33.965 15.184 66.723 32.504 96.227 6.2266 10.473 21.777 40.621 37.07 35.102 10.102-3.8438 19.059-10.203 26.023-18.469 8.9961-9.8789 16.527-20.996 22.367-33.012zm-75.59 251.97c-0.82031-0.37891-1.5742-0.89844-2.2227-1.5273-11.902-9.082-24.941-16.57-38.781-22.277-19.688-10.152-36.309-3.6172-51.984 10.152v0.003906c-0.11328 0.10547-0.24219 0.19141-0.38672 0.25 0.69922 10.078 0.84766 20.184 0.44922 30.273-1.1445 32.934 7.3594 56.297 17.578 86.887 7.1055 21.562 17.711 48.367 15 71.598-2.9141 24.945-13.199 47.605-18.094 72.102-3.0508 11.477-2.3945 23.621 1.8711 34.699 4.2617 11.082 11.922 20.531 21.879 27-0.066407-0.12109-0.066407-0.25391-0.13281-0.375-0.50781-1.9688-0.82422-4.0039-1.2109-6.0391-1.1914-7.4688-1.6797-15.031-1.4531-22.594 0.1875-6.6641 0.32031-12.629 0.375-17.645 0-2.4102 0-4.6328 0.066407-6.5625 0.066406-1.9297-0.1875-3.75-0.1875-5.2031 0-2.9258 0.32031-4.6875 1.0781-4.7617 0.75781-0.074219 1.7148 1.2109 2.9805 3.8047v0.003906c0.79297 1.5664 1.4531 3.2031 1.9688 4.8828 0.57031 2.1016 1.0781 4.4453 1.6484 7.1172 2.1562 10.406 1.6484 24.883 4.0586 39.16 0.32031 1.7812 0.57031 3.5547 0.9375 5.2031 0.57031 1.6484 1.0781 3.2344 1.5859 4.8281 0.13281 0.69531 0.57031 1.875 0.57031 2.0898l1.0781 2.4102 0.57031 1.2109 0.44141 0.63672c0.32031 0.44141 0.51562 1.0117 0.89062 1.2656 0.63672 0.75781 1.0234 1.1445 1.2109 1.0781 0.12109 0.25391 0.69531 0.13281 1.5195-0.1875 0.066407 0 0.066407 0 0.066407-0.066406 11.25-11.68 12.508-35.352 17.07-49.059l0.003906-0.003906c5.707-16.559 8.5859-33.961 8.5117-51.477-0.13281-15-0.70312-29.766-1.2109-44.625-1.207 2.0234-2.6367 3.9102-4.2539 5.625-4.0586 3.8047-7.293 4.6875-8.3164 3.8047-1.2656-1.0117 0.44922-4.1797 2.4766-8.625 2.1953-5.6016 4.0742-11.324 5.625-17.137 1.0781-4.8281 2.1562-9.375 3.3008-13.332 0.13281-4.125 0.25391-8.1953 0.50781-12.32 0-2.0234-0.054687-4.0586 0-6.0938l-0.003906 0.003907c0.007813-1.0898 0.22266-2.1641 0.63672-3.1719 1.2109-18.918 2.9258-37.762 4.3203-56.68 1.6133-21.629 7.1367-44.352 7.9609-66.328zm-3.6172-26.25-1.3984-12.066c-1.4961-11.34-5.4141-22.23-11.492-31.922-1.4531-2.1562-2.9141-4.2578-4.3125-6.2891-1.3984-2.0352-3.1797-3.6758-4.6328-5.457-2.8281-3.2578-5.9062-6.293-9.207-9.0742-2.6406-2.3008-5.418-4.4453-8.3125-6.4141-2.1758-1.6445-4.4648-3.1328-6.8555-4.4414-3.8711-2.3438-5.8398-3.8711-5.625-4.4453 0.21484-0.57031 2.7266-0.1875 7.1055 1.1445 2.6953 0.73438 5.293 1.7812 7.7461 3.1133 3.4805 1.6094 6.8125 3.5195 9.9648 5.707 3.8945 2.5859 7.5273 5.5391 10.855 8.8242 1.9688 1.7773 3.8477 3.6562 5.625 5.625 1.6484 2.2227 3.4219 4.4453 5.2031 6.7305 0.69531 1.0117 1.332 2.1562 2.0352 3.2344-0.51562-4.5664-1.0781-9.1406-1.7812-13.586-2.4062-6.793-5.5469-13.305-9.375-19.414-6.1797-9.8828-15.148-17.711-25.773-22.5-1.1445-0.50781-2.2227-1.0117-3.3008-1.5195s-2.2891-0.63672-3.3672-0.9375c-2.1562-0.57031-4.2461-1.2656-6.2148-1.7148-4.0039-0.44141-7.5-1.1992-10.312-1.2656-5.7734-0.066406-9.1953-0.44922-9.3281-1.1445s3.0469-1.7812 9.1406-3.0469h0.003906c3.75-0.42578 7.5234-0.59375 11.297-0.50781 2.2227 0.1875 4.5742 0.63672 7.1055 1.0117 1.2734 0.25391 2.6055 0.38281 3.8711 0.75781s2.6055 0.89062 3.9375 1.3398v0.003906c2.8672 0.84375 5.6211 2.0391 8.1953 3.5547 2.9023 1.4492 5.6641 3.1719 8.25 5.1367 2.1562 1.875 4.5664 3.5547 6.7227 5.7734-2.2227-6.5625-4.5664-13.266-7.0391-19.988-0.9375-0.82422-1.9688-1.6484-2.9805-2.4766-16.695-12-35.992-12.383-35.805-15.75 0-0.75781 1.2109-1.3867 3.3008-1.9609l-0.003906 0.003906c3.0312-0.74609 6.1562-1.0469 9.2734-0.89062 6.7695 0.27344 13.438 1.7539 19.688 4.3789-5-12.414-10.656-24.555-16.949-36.363-1.5234 0.375-3.1133 0.375-4.6328 0-31.039-7.7422-98.898 16.051-98.438 54.262-0.003906 0.83594-0.11328 1.6641-0.32031 2.4727 5.5938 9.2148 11.809 18.039 18.602 26.41 4.3125 5.2695 8.1836 10.406 11.672 15.543 0-0.054687 0.066406-0.054687 0.066406-0.054687 1.0508-2.5586 2.4609-4.957 4.1914-7.1172 2.9805-3.6172 6.5156-6.7422 10.469-9.2617 5.3203-3.4414 10.949-6.3711 16.82-8.7539 4.0703-1.6484 6.4141-2.418 6.8516-1.7812 0.44141 0.63672-1.2656 2.5391-4.6875 5.3359-3.4219 2.793-8.7578 6.4141-14.398 11.25v-0.003906c-6.5547 4.6094-10.789 11.832-11.617 19.801 0.054687 1.0859 0.25391 2.2891 0.375 3.4297 1.332 2.3516 2.6055 4.6875 3.8047 7.0508 0.63672-2.2891 1.2734-4.5078 2.0352-6.5625h0.003907c2.6797-8.9844 7.4844-17.195 14.004-23.934 4.6055-4.5 10.473-7.4883 16.82-8.5703 4.2578-0.375 6.5625 0.13281 6.6641 0.76953 0.10156 0.63672-2.0898 1.6484-5.8398 3.2344-4.7539 2.2539-8.9375 5.5508-12.242 9.6484-8.2266 12.398-13.164 26.68-14.355 41.512 2.7344 7.5156 4.8594 15.242 6.3555 23.102 14.652-10.312 32.68-17.578 50.391-11.25 14.77 5.1602 28.91 11.973 42.152 20.305zm-46.398-447.19c12.055-27.188 30.656-50.203 47.223-74.699-8.8477-1.293-16.844-5.9844-22.285-13.078-14.094 10.539-24.598 25.164-30.082 41.887-4.8203 17.711-8.6328 41.898 0.38281 59.062 1.293-4.4922 2.8828-8.8906 4.7617-13.172zm-8.5117 33.449c-25.707-2.0898-20.305 46.527 3.2422 52.367v0.003906c-3.4102-17.23-4.5039-34.84-3.2422-52.359zm-74.699 246.23c22.406-10.602 48.422-21.562 73.555-19.613-8.5938-14.691-14.844-30.633-18.523-47.25-4.8945-24.945-0.44922-51.227-15.871-73.5-16.379-23.68-53.953-45.449-79.023-29.324-0.63672 0.62891-1.332 1.2656-2.0352 1.9688-7.6523 7.2109-13.5 16.125-17.07 26.016-3.3164 9.8984-3.9336 20.504-1.7812 30.723 1.5273 7.6797 4.0039 13.211 2.5391 13.902-1.1445 0.50781-5.625-2.6055-9.7695-11.551-0.12109-0.26953-0.22656-0.54297-0.31641-0.82422l-0.38281 2.0234c-2.3438 14.859-10.539 34.914-8.8867 49.641h-0.003906c0.35547 4.1562 1.3047 8.2344 2.8125 12.121 1.7227 1.2539 2.8477 3.1602 3.1133 5.2695 5.0859 4.4648 9.6211 9.5234 13.5 15.066 6.2148 10.602 9.9648 23.438 15.102 34.594 3.4961 7.6211 6.918 15 10.414 22.086h0.003906c6.7852-14.008 18.355-25.129 32.625-31.348zm47.289 395.68h-0.003906c7.4414-31.07 4.7031-63.711-7.8086-93.113-13.129-28.812-19.363-60.289-18.215-91.93 1.7734-41.699-4.4453-73.566-30.215-107.46-11.117-12.07-21.152-25.09-30-38.906-7.5547-14.785-12.758-30.723-20.504-45.383-4.3203-8.0547-9.3281-27.355-15.871-35.859 0.25391 2.2227 0.50781 4.4453 0.9375 6.8516 0.82422 6.6641 2.5977 14.914 2.9805 22.66 0.38281 7.7422 1.0781 16.125 1.6484 24.695v-0.003906c0.25391 4.2617 0.78516 8.5 1.5859 12.695 0.625 4.3242 1.25 8.6992 1.875 13.125 6.1758 30.227 18.094 58.988 35.102 84.73 3.3008 4.8828 6.3477 9.3281 9.0195 13.199 3.0469 3.6836 5.625 6.918 7.7422 9.5898 4.125 5.3906 6.1484 8.625 5.625 9.1406-0.52344 0.51563-3.6172-1.7812-8.6914-6.2891-2.5391-2.2227-5.625-5.0156-9.0742-8.3711-3.1797-3.75-6.7969-8.0078-10.734-12.758v-0.003906c-19.68-25.645-33.188-55.477-39.48-87.188-0.69531-4.6328-1.332-9.1953-2.0234-13.707v0.003906c-0.73438-4.4141-1.2227-8.8672-1.4609-13.332-0.38281-8.6328-0.70313-17.008-1.0781-25.004-0.066406-3.75-0.38281-7.1172-0.70312-10.414-2.4023 11.922-5.5352 23.688-9.375 35.23-9.2266 25.055-16.797 50.688-22.66 76.734-11.164 52.238-10.66 100.41-10.66 153.03-1.5859 37.523-14.363 73.711-36.684 103.91-12.957 15.863-6.2891 32.879-15.168 48.102-6.8633 11.68-17.137 13.969-22.5 25.52 85.434 18.75 164.52 101.11 253.06 62.457-7.0625-6.4922-12.891-14.211-17.195-22.781-3.4258-7.8242-4.9102-16.363-4.3203-24.883-2.5391-0.25391-5.0703-0.44922-7.6797-0.70312-12.695-1.332-24.695-2.1562-36.938-3.9375-11.625-1.8984-23.07-4.7852-34.207-8.625-10.098-3.375-19.891-7.6016-29.27-12.637-8.2773-4.3125-16.102-9.4375-23.363-15.301-10.82-8.3516-19.43-19.227-25.07-31.68-0.89063-1.9258-1.6328-3.918-2.2188-5.9609-0.32031-1.7812-0.63672-3.2344-0.89063-4.4453-0.38281-2.4766-0.44922-3.8047-0.066406-3.9375 0.38281-0.13281 1.0781 1.0117 2.1562 3.2344 0.50781 1.1445 1.1445 2.5391 1.875 4.1914 0.73047 1.6484 1.875 3.2422 2.9805 5.2031 6.6484 10.809 15.465 20.125 25.895 27.355 7.1719 5.1562 14.801 9.6406 22.789 13.398 9.1133 4.4883 18.582 8.2266 28.305 11.176 10.672 3.4258 21.605 5.9688 32.691 7.6133 11.43 1.5859 24.121 2.3516 36.617 3.6836 2.5391 0.25391 4.9609 0.50781 7.5 0.69531v-0.003906c0.98438-6.2773 2.3594-12.492 4.125-18.598-14.773-3.5352-29.039-8.9297-42.461-16.051-3.6836-2.1016-7.1719-4.125-10.602-6.0938s-6.3477-4.3867-9.375-6.4141c-5.5273-3.8398-10.848-7.9688-15.938-12.375-10.406-7.8242-19.434-17.332-26.719-28.125 10.758 6.9688 21.039 14.645 30.777 22.98 4.9492 3.4297 10.098 7.5 16.191 10.977 3.0469 1.875 6.0938 3.9375 9.375 5.7188s6.7891 3.5547 10.312 5.3906c13.113 6.4023 26.941 11.215 41.195 14.344 0.51563-1.6484 1.0234-3.3008 1.4609-4.8828 1.1445-3.4883 2.0898-6.9844 2.9805-10.406-4.9492-2.8125-10.086-5.7188-15.488-8.6992-3.4883-1.9688-6.9766-3.9375-10.594-5.9609l-2.7266-1.5273-2.8125-1.875c-1.7812-1.2109-3.6172-2.4102-5.3984-3.6836v-0.003907c-6.0898-3.8164-11.902-8.0586-17.391-12.695-2.6641-2.1562-5.2695-4.3125-7.8086-6.4141-1.2656-1.1328-2.5977-2.2227-3.8711-3.3008s-2.3438-2.1562-3.4883-3.168l-0.003906 0.003906c-8.4453-7.4688-16.453-15.418-23.988-23.805-5.2461-5.7812-9.7031-12.227-13.266-19.172-1.875-5.0156-2.4766-7.9961-1.875-8.3164 0.60156-0.32031 2.5391 2.1016 5.625 6.4141 4.6328 5.6016 9.6445 10.883 15 15.805 6.7891 6.4141 15.355 13.586 25.012 21.648 1.1992 1.0117 2.4766 2.0234 3.6758 3.1016 1.2109 0.89062 2.4766 1.875 3.6836 2.8594 2.5977 2.0352 5.2695 4.125 7.9297 6.2266 5.3906 4.3359 11.027 8.3594 16.875 12.055l5.1484 3.4297 2.3438 1.6484 2.7266 1.5859c3.5547 2.0352 7.0508 4.125 10.473 6.0938 4.3789 2.6367 8.5703 5.207 12.637 7.6797z"/>
 <path d="m637.03 445.38c3.75 17.898 1.1445 31.414-1.5859 31.668-2.5391 0.25391-4.5742-9.0742-7.0508-20.758h0.003907c-0.95313 1.0039-2.0703 1.8438-3.3008 2.4766-2.3203 1.1758-4.9922 1.4492-7.5 0.76953-2.6094-0.90625-5.1719-1.9453-7.6797-3.1133-0.84766-0.28516-1.7188-0.5-2.6055-0.63672-0.93359-0.125-1.875-0.16797-2.8125-0.12109-1.3398 0.066407-3.9375 0.69531-6.3477 1.0781-2.8398 0.61719-5.7773 0.65625-8.6328 0.12109l-2.3516-0.69531-0.50781-0.1875c-0.69531-0.32031-0.44141-0.25391-0.63672-0.32031l-0.75781-0.38281-1.3984-0.75781c-0.50781-0.32031-1.2656-0.9375-1.875-1.3984-1.707-1.332-3.043-3.082-3.875-5.082-1.8516 2.3398-3.5469 4.8047-5.0703 7.3711-2.4766 3.6172-4.6875 5.5234-6.0391 5.0156-1.3516-0.50781-1.6484-3.4961-1.0117-7.8086 1.1562-5.8438 3.5586-11.367 7.0508-16.191 4.3711-6.2461 10.359-11.184 17.324-14.277 2.0352-1.7812 3.3672-2.5391 3.8711-2.2227 0.50781 0.32031 0.12109 1.5273-0.75781 3.3008-0.98828 4.5938-3.1797 8.8438-6.3477 12.316-0.72266 1.4961-1.2773 3.0703-1.6484 4.6875-0.57031 2.8125-0.066406 4.6875 1.707 5.7109 2.6602 1.8359 6.0508 2.2656 9.082 1.1445 2.5469-0.70313 5.1328-1.2539 7.7461-1.6523 1.5156-0.13281 3.0469-0.13281 4.5625 0 1.6172 0.21875 3.2109 0.57812 4.7656 1.0781 2.9141 0.9375 5.625 2.4102 6.8516 2.6641h0.1875c0.41016-0.25781 0.76172-0.60547 1.0234-1.0117 5.2031-5.9727 1.707-15.422-0.26172-25.133-0.88281-4.5742-1.332-9.375-1.875-13.52-0.30859-4.3203-0.30859-8.3164-0.44141-12 0.57031-14.852 3.2344-23.043 4.5078-23.102 1.6484 0 1.6484 9.2617 3.0469 22.781 0.50781 3.4297 1.0781 7.1172 1.707 11.109 0.89062 4.0039 1.5938 8.1289 2.7383 12.695 0.88281 3.2344 1.9609 6.9844 2.8125 11.043 1.0938 4.0117 2.3047 8.4531 3.3828 13.34z"/>
 <path d="m549.88 1142.6c0.1875-0.1875 0.38281-0.32031 0.38281-0.054688z"/>
 <path d="m549.51 1142.7 0.375-0.066407v0.003907c-0.16797 0.19141-0.35937 0.36328-0.57422 0.50391h-0.44141l0.1875-0.25391z"/>
 <path d="m429.6 952.9c11.043 16.82 15.992 27.984 14.859 28.754-1.1328 0.76953-8.6992-9.0742-20.953-24.254-12.242-15.422-30-35.926-48.555-60.102-8.6953-11.406-16.707-23.316-23.992-35.672-5.9844-10.156-11.113-20.793-15.336-31.801-7.0391-18.918-8.25-31.48-7.0391-31.734 1.7148-0.38281 5.457 11.25 13.961 28.688h-0.003906c5.043 10.203 10.637 20.121 16.762 29.711 6.9766 10.848 15.168 22.398 24.18 34.398 18.254 23.734 35.324 45.25 46.117 62.012z"/>
</svg>
