<?xml version="1.0" encoding="UTF-8"?>
<svg width="1200pt" height="1200pt" version="1.1" viewBox="0 0 1200 1200" xmlns="http://www.w3.org/2000/svg">
 <path d="m1147.6 421.8c4.3828 26.965 1.207 54.621-9.168 79.895 0 1.2383 0.066407 2.4766 0.066407 3.75 0.26562 4.5195-2.5938 8.6367-6.9219 9.9727-19.805 35.348-56.262 58.164-96.711 60.527-72.824 5.6797-141.21-45.516-146.96-119.3-5.9727-75.938 25.996-150.94 108.87-161.89v-0.003907c1.0898-0.32812 2.2188-0.5 3.3555-0.51562 0.96875-0.11328 1.9453-0.089844 2.9062 0.078124 32.707-0.24609 64.816 8.7422 92.645 25.93 29.859 19.039 46.828 68.484 51.918 101.55zm-20.719 15.148c-1.4375-15.449-5.1133-30.609-10.922-45-0.73047-1.668-1.3867-3.3477-2.043-4.9492-3.2148 4.8125-7.0859 9.1523-11.504 12.891 11.066 10.164 19.469 22.891 24.469 37.059zm-10.48 60.375c-1.3125-28.914-8.0156-65.691-31.688-83.316 1.6016 42.676 7.6484 90.602-13.18 127.88l-0.003906 0.003906c19.359-9.6641 35.098-25.285 44.906-44.57zm-35.363-108.95c10.871-5.3711 18.453-15.695 20.324-27.676-5.9062-10.465-14.188-19.395-24.176-26.07 6.3828 16.688 6.2773 35.164-0.30078 51.777 1.3867 0.65625 2.8398 1.3125 4.1523 1.9688zm-41.867 160.31c33.75-32.258 26.652-84.695 24.102-129.12-47.812 22.145-95.41 57.898-147.7 65.184 10.152 22.816 27.285 41.82 48.934 54.27 21.648 12.449 46.691 17.699 71.52 14.992 0.49609-2.0547 1.5898-3.918 3.1406-5.3516zm17.324-169.83c4.1562-9.5977 4.9414-20.32 2.2344-30.422-2.7109-10.102-8.7578-18.992-17.16-25.219-0.98047-0.76953-1.8203-1.707-2.4766-2.7656-12.777-2.9297-25.852-4.3945-38.961-4.3711-52.801 5.7461-83.531 47.992-91.258 95.551 20.734-16.371 44.605-28.32 70.137-35.109 25.668-5.1289 52.168-4.3438 77.484 2.3086zm-3.6367 21.562c-25.863-6.3867-52.953-5.8438-78.539 1.5781-25.586 7.4258-48.762 21.465-67.188 40.703 0.32422 6.9648 1.125 13.898 2.3984 20.754 30.938-3.4961 56.805-20.324 84.113-34.453 19.453-10.047 39.188-19.809 59.176-28.621z"/>
 <path d="m996.48 850.75c10.125 44.352-10.266 83.898-59.277 76.473-6.6328 2.6836-14.09 2.4453-20.539-0.65625-20.457-8.7383-39.32-14.277-50.465-34.594-15.805-28.914-10.199-63.797-31.098-91.547-39.836-52.574-102.76-85.312-136.99-142.23-20.25-33.648-30.441-57.898-66.348-78-15.656-8.7383-33.496-13.914-49.012-22.941v-0.003907c-16.699 20.41-32.305 41.691-46.754 63.75-10.438 15.316-23.926 28.309-39.617 38.168 19.473 15.855 41.449 28.359 65.035 36.992 0.36719 0.074219 0.65625 0.074219 1.0234 0.14062 49.809 13.039 86.805 48.215 132.91 68.973h-0.003906c39.211 18.309 75.535 42.258 107.81 71.082 67.152-2.9922 45.816 122.28 43.406 158.18-0.14453 2.1914-0.92578 4.293-2.25 6.0469-0.91797 2.3242-2.7266 4.1875-5.0234 5.1719-0.73828 0.37891-1.4922 0.71484-2.2617 1.0156-2.0742 25.07-6.3906 49.906-12.891 74.211-4.7344 19.445-3.8633 40.059-10.312 59.137-11.504 34.305-81.348 18.355-106.32 17.625-5.1641 0.027344-9.5547-3.7734-10.266-8.8867-0.85938-1.5312-1.2891-3.2695-1.2461-5.0234 0-34.883-13.762-66.93-14.926-101.25-0.14062-28.992 2.2461-57.938 7.1328-86.516-37.574-5.9727-74.277-15.805-111.94-21.777-47.043-7.5742-94.453-12.602-141.13-22.727-14.203 39.375-36.93 70.426-58.34 106.7-12.301 20.973-25.848 41.25-39.758 61.172-14.129 20.176-32.699 40.199-34.379 66.195v0.003906c-0.09375 5.9961-4.9258 10.832-10.922 10.934-49.688 2.4766-98.242 10.406-147.84 2.3242h0.003907c-5.8125-1.5898-9.2344-7.5859-7.6523-13.398 10.977-40.695 24.824-80.559 41.438-119.3 14.57-33.055 39.113-57.188 59.062-86.148-92.191-42.023-173.77-114.79-182.06-219.65-1.4883-1.4766-2.457-3.3945-2.7656-5.4648-2.8477-9.9492-1.6719-20.621 3.2734-29.711 9.9102-17.117 2.6992-38.164 13.332-55.133 11.25-17.98 27.742-33.055 37.285-51.918 12.523-24.543 23.672-49.688 34.379-75.086 8.0078-18.938 14.484-40.312 27.602-56.523 12.375-15.367 27.523-27.375 41.07-41.578 28.473-29.645 40.199-71.371 73.922-96.562h-0.003906c36.145-27.301 75.051-50.734 116.08-69.918 10.531-5.0391 21.441-9.2539 32.625-12.602-0.03125-0.29297-0.03125-0.58594 0-0.87891 1.5391-16.527 6.4883-31.023 8.6719-46.969-33.938 1.2383-60.086-36.336-49.961-69.77 5.375-17.574 17.758-32.16 34.23-40.312 16.82-8.5117 30.73-6.3281 48.938-4.9492 0.66406 0.070313 1.3203 0.19141 1.9688 0.36328 8.5117-9.2617 19.199-16.258 31.098-20.352 32.156-8.4688 66.121-7.0234 97.441 4.1445 22.648 7.8008 57.898 26.727 68.242 49.742 7.625 14.203 13.145 29.438 16.387 45.227 2.6914 21.195 10.848 43.621 8.5117 64.82-2.4766 21.992-13.18 41.727-15 64.883-0.67969 13.301-5.1797 26.121-12.965 36.926 28.695 23.23 47.559 60.086 64.969 92.344 10.055 17.84 19.172 36.195 27.309 54.984 10.773 26.363 15.938 51.121 41.148 67.727 39.039 25.781 54.254 57.027 77.633 96.562 23.008 38.898 52.941 77.109 69.582 119.3 3.8984 4.1367 6.918 9.0195 8.8867 14.352 12.273 31.238 30.328 63.875 37.902 96.715zm-42.816 56.082c46.875-1.9688 11.504-79.023 0.87109-102.47-8.5234-19.012-12.676-49.453-37.359-54.77 8.2305 20.625 12.664 43.332 24.254 61.754 16.68 26.805 30.508 46.031 10.48 69.375h0.003906c3.6523 8.2188 4.2734 17.473 1.7539 26.109zm-25.641-35.477c23.305-20.457-5.2422-42.188-12.188-60.227-9.1016-23.672-14.633-46.312-27.824-67.07v0.003906c-18.129 3.8906-33.898 14.984-43.688 30.73 6.1797 7.5859 11.523 15.812 15.938 24.543 8.9727 20.543 15.66 42.012 19.953 64.012 3.3555 13.547 7.9414 28.332 21.852 34.305 0.42969 0.14062 0.87109 0.36719 1.3125 0.50781-1.4375-3.0781-2.6094-6.2695-3.4961-9.5469-2.2578-8.8047-1.0234-14.852 0.65625-14.852 1.6797 0 3.4883 4.6875 7.5 11.719v0.003906c2.0938 3.9883 4.582 7.7539 7.4258 11.25 1.1406 1.5273 2.6406 2.75 4.3672 3.5625 0.80469 0.28906 0.73047 0.074219 1.1641-0.066406 1.1719-2.3359 2.3359-4.6875 3.5703-6.9922-0.44922-6.168-1.8984-12.219-4.293-17.918-2.9141-7.8672-3.75-13.695-2.1094-14.277 1.6289-0.42188 4.9102 3.2539 9.8633 10.312zm-17.707-144.41c3.5625 0.074219 6.9844 0.28906 10.266 0.58203-18.496-37.145-46.246-71.25-65.84-107.34-13.32-24.543-24.242-51.121-48.281-67.445v0.003907c-11.055-6.4844-21.551-13.883-31.371-22.117-17.625-16.754-25.855-39.77-34.227-62.711-19.691 0.55078-39.156 4.3516-57.609 11.25l2.8125 3.2734c16.508 18.035 34.836 34.316 54.695 48.582 21.918 17.043 44.719 34.809 59.867 58.48 15.938 27.152 33.676 53.207 53.09 77.992 16.086 19.227 37.941 38.672 52.145 60.234 1.4102-0.57812 2.9297-0.84375 4.4531-0.78125zm-36.637-1.6797c-25.855-30-53.598-59.492-73.406-93.871v0.003907c-11.676-20.293-26.059-38.898-42.75-55.312-2.2578-0.65625-4.5195-1.3125-6.9922-1.875-8.0078-1.8203-15.441-3.0547-20.758-4.0781-5.625-0.9375-9.543-1.9688-9.6094-3.75s3.207-3.75 9.1016-5.0234v-0.003906c3.8672-0.67188 7.7969-0.91797 11.719-0.73047-10.406-9.2422-21.477-18.281-33.496-27.676-29.859-23.523-49.883-58.332-82.078-78.43-34.152 14.57-63.797 36.562-99.262 45.883v-0.003906c19.629 11.969 40.184 22.34 61.473 31.023 2.5664 1.2422 4.3984 3.6172 4.9492 6.4141 15.215 9.6836 34.688 14.633 50.176 23.438 13.73 7.293 26.5 16.273 38.016 26.727 0.33984-2.9062 1.1016-5.75 2.2578-8.4375 0.79297-1.9531 2.0859-3.6602 3.75-4.9492 1.1641-0.9375 2.1836-1.3125 2.9141-1.0234 0.73047 0.28906 1.3125 1.3125 1.4531 2.8125 0.36719 1.4531-0.28906 3.75 0.22656 5.7578 0.21484 3.6367 0.87109 9.7578 1.668 16.164 0.28906 1.6016 0.58203 3.1328 0.80469 4.5938 11.43 16.379 16.875 36.703 29.062 52.867l0.003907-0.003906c14.211 18.332 30.23 35.191 47.812 50.324 14.785 13.039 31.68 26.25 47.336 40.781h-0.003906c0.03125-1.7305 0.20312-3.4609 0.51562-5.1641 1.4219-7.3711 5.1445-14.105 10.633-19.23 4.0781-3.0547 7.2109-4.293 8.5234-3.2812 1.3125 1.1719 0.42969 4.4453-1.875 8.9609l-0.003906 0.003906c-2.1992 5.082-3.9531 10.344-5.2383 15.73-0.67578 4.6289-1.0156 9.3008-1.0234 13.977 10.902-15.246 26.344-26.664 44.121-32.613zm-48.355 262.98c2.8125-23.523 11.945-91.539-2.8125-118.85 0 2.25-0.14062 4.5078-0.14062 6.8438v0.003907c-0.17578 2.1484-0.57031 4.2734-1.1719 6.3398-0.41797 2.0078-1.0039 3.9805-1.7461 5.8945-1.4023 3.5625-3.1094 6.9961-5.0977 10.266-3.2773 5.2383-7.0859 10.117-11.363 14.57-7.0586 7.4258-12.086 11.25-13.473 10.266-1.3867-1.0859 1.3867-6.918 6.5625-15.508 6.9844-9.9219 11.777-21.219 14.062-33.141 0.19922-2.6406 0.25-5.293 0.14844-7.9375-0.28906-2.6133-0.57812-5.1602-0.87109-7.6406l-0.14844-1.0234c-0.28906-0.074219-0.58203-0.074219-0.87109-0.14844-16.16 39.227-45.672 71.477-83.316 91.039 3.8633 0.28906 7.7266 0.65625 11.363 0.79688 5.1016 0 10.051 0.36719 14.57 0.074219l6.5625-0.21484 5.8984-0.65625c14.711-1.2383 24.039-6.1953 24.91-4.4453 0.65625 1.1641-6.3359 8.8125-23.305 13.031-2.043 0.44141-4.1523 0.9375-6.4141 1.4609-2.1836 0.28906-4.5078 0.65625-6.918 0.9375l-0.007812 0.003906c-5.0781 1.0078-10.207 1.7578-15.363 2.25-5.625 0.14844-11.578 0.074219-17.691 0.074219 3.8477 2.5938 8.0742 4.582 12.523 5.8984 8.4062 2.3945 17.109 3.5742 25.848 3.4961 15.59 0.22656 25.641-0.42969 25.855 1.3867 0 1.6016-9.3203 4.9492-25.414 6.9922-9.8477 1.2852-19.844 0.74219-29.492-1.6016-5.9688-1.5078-11.633-4.0195-16.754-7.4336-0.33203-0.27344-0.64453-0.5625-0.9375-0.87109 7.3867 39.336 84.363 30.852 115.02 17.848zm-27.188 116.53c3.0664-30.516 12.824-59.578 16.246-90-36.992 9.7578-85.5 9.3203-110.26-12.965l-0.003906 0.003906c-2.75 21.281-1.9102 42.871 2.4766 63.871 6.0117 23.227 9.7422 46.98 11.137 70.934 20.25 1.7539 42.977 6.0469 61.875 0.80469 18.348-5.043 16.746-13.93 18.562-32.645zm-96.312-168.52c38.402-16.031 69.109-46.309 85.68-84.48-35.395-27.973-73.461-52.391-113.64-72.898-37.359-20.68-71.25-47.812-112.5-59.934-46.246 40.312-82.367 90-121.33 137.05v-0.003906c3.4883 11.223 3.9844 23.16 1.4453 34.633 42.02 9.0273 84.617 13.621 127.08 20.391 44.793 7.2461 88.34 19.406 133.27 25.238zm30.73-489.76c-1.9609-4.5938-4.0039-9.1797-6.3359-13.547v-0.003907c-10.793-22.688-23.766-44.273-38.738-64.453-12.461-15.441-15.148-30.367-32.699-43.621-1.5938-1.1562-2.8516-2.7148-3.6445-4.5195-16.828 3.4023-34.242 2.5-50.625-2.625-8.3047 17.699-16.828 35.766-32.559 47.559 5.832 8.1562 12.02 16.172 18.496 23.738 1.7539-2.5391 3.4219-4.6875 5.1016-6.7695 1.3125-1.7422 2.625-3.4219 3.9375-5.1016l0.21484-0.42969c5.7578-9.4688 9.6836-17.699 12.449-23.383 2.5508-6.1133 4.3047-9.8359 5.5391-9.543 1.0859 0.30078 1.5273 4.2266 0.72266 10.996v0.003906c-1.7578 9.2539-4.7695 18.223-8.9531 26.664 0 0.066406-0.074219 0.14062-0.074219 0.21484s-0.074218 0.14062-0.14844 0.21484c-0.35547 0.73047-0.72266 1.4609-1.0859 2.1094l-1.1641 1.7539c-0.73047 1.0859-1.4609 2.2578-2.2578 3.3477-1.4609 2.1836-3.0547 4.4453-4.3672 6.4883-0.28906 0.50781-0.65625 1.0859-0.80469 1.4531l-0.066407 0.14844c0.14062 0.58203 0.28906 1.0859 0.42969 1.0859h-0.003907c0.20313 0.16406 0.37891 0.35938 0.51563 0.58203 0.28906 0.49609 0.625 0.96094 1.0117 1.3867 0.78125 1.1445 1.6328 2.2344 2.5508 3.2734l1.2383 1.4609c1.2383 1.2383 2.4766 2.3984 3.75 3.6367h-0.003907c3.0234-8.6953 7.0117-17.027 11.898-24.832 5.625-8.0078 9.8242-12.02 10.996-11.25 1.1719 0.76953-0.73047 6.2617-4.2266 14.785-3.5859 9.6523-6.625 19.5-9.1055 29.492 3.0547 2.4102 6.1211 4.6875 9.3203 6.7773 3.832 0.29297 7.6797 0.29297 11.512 0 16.969-1.3125 31.68-5.25 32.992-1.875 0.58203 1.5273-2.2578 4.4453-8.0156 7.4258-6.0469 3.1016-12.566 5.1719-19.293 6.1211 0.65625 1.2812 1.0039 2.7031 1.0117 4.1445 9.3867 6.5977 18.055 14.164 25.855 22.574 20.555-8.6562 42.387-13.887 64.633-15.488zm-65.25-243.47c0.9375-0.79688 1.6016-2.1836 1.1641-4.9492v-0.003906c-0.67969-3.1172-1.7812-6.1289-3.2695-8.9531-3.0664-6.1953-6.4141-12.094-8.5977-17.484-2.0742-4.3906-3.0742-9.2109-2.918-14.062 0.28906-3.6367 1.6016-4.875 2.3359-4.9492 0.44141 0.074219 0.79688 0.50781 1.1641 1.3125 0.31641 1.125 0.73047 2.2188 1.2344 3.2734 1.6133 3.6562 3.5898 7.1484 5.8984 10.414 1.875 2.7656 4.0859 5.8984 6.5625 9.375-4.0117-27.449-4.5195-66.703-31.098-83.09-9.4688-5.7578-17.812-11.578-26.512-16.602v-0.003906c-0.91797 0.48047-1.8984 0.82031-2.9141 1.0156-13.258 2.7656-23.887 19.961-35.25 27.383-12.891 8.4375-34.152 17.992-32.551 36.777 1.8203 22.574 5.4648 37.145-8.8125 56.438-2.6484 3.4883-6.9961 5.2383-11.32 4.5547s-7.9219-3.6914-9.3633-7.8242c-0.21875-0.29688-0.41406-0.60938-0.57813-0.9375-2.9922-5.6797-13.914-19.734-17.043-6.9922l-0.003906-0.003906c-1.6172 6.9922-2.082 14.203-1.3672 21.348 0.39062 5.9766 1.9492 11.82 4.5938 17.195 1.668 3.1953 2.8125 9.168 7.7148 8.4375 5.832-0.80469-3.3477-9.8359-4.1523-11.879-0.42969-1.0234-0.72266-2.0977-0.87109-3.1992l-0.36719-2.1836c-0.089844-1.0664-0.10938-2.1367-0.066407-3.207-0.003906-2.3359 0.49219-4.6484 1.4531-6.7773 0.76953-1.6758 2.043-3.0781 3.6406-4.0039 1.5859-0.98828 3.4531-1.4219 5.3125-1.2344 2.0586 0.19531 4.0234 0.94922 5.6836 2.1836 1.1094 0.78906 2.1367 1.6914 3.0664 2.6914 3.0547 3.4961 3.75 6.3359 2.8125 7.5742-3.75 4.6875-10.312-4.5078-14.418-0.87109-2.9922 2.6992-0.9375 8.0156 1.1641 10.312 3.1328 3.5703 9.2539 3.4961 12.02 6.8438 2.6172 3.0664 1.3125 7.8008 1.2383 11.438h-0.003907c-0.30078 4.1641-0.054687 8.3477 0.73047 12.449 14.699 15.641 33.145 27.273 53.598 33.797 19.348 5.3906 39.137 9.043 59.137 10.922 20.68 2.1094 23.523-22.867 24.758-38.305v-0.003906c1.8281-15.48 4.5234-30.844 8.082-46.02-1.3906 0.27734-2.8008 0.41016-4.2188 0.40234-2.5391 0-4.8008-0.28906-6.4766-0.42969-0.9375-0.14844-1.6797-1.4609-2.3359-1.5273l-0.14062 0.65625-0.36719 0.35547-1.4531 0.44141c-0.88281 0.21484-1.0234 0.50781-1.6797 0.65625-0.44141 0.14062-1.4531 0.65625-2.1094 0.9375-3.207 1.3125-6.2617 2.9141-9.9766 4.1523h0.003906c-1.0703 0.35156-2.168 0.61719-3.2812 0.79687-0.77344 0.11328-1.5586 0.11328-2.332 0l-1.2383-0.14062-0.65625-0.14844-0.9375-0.28906c-0.066406-0.074219-1.0117-0.65625-1.0117-0.65625v-0.003907c-0.625-0.41016-1.2109-0.875-1.7539-1.3867-0.875-0.83594-1.5898-1.8203-2.1094-2.9062-1.3516-3.0195-1.707-6.3867-1.0234-9.6211 0.42578-2.0781 1.1328-4.0859 2.1094-5.9727 1.6016-3.0547 3.4961-4.2188 4.1523-3.75s0.51563 2.1094 0.44141 5.0234v0.003906c-0.027344 1.6758 0.042969 3.3555 0.21484 5.0234 0.054688 1.75 0.61328 3.4453 1.6055 4.8867 0.14844 0.14063 0.28906 0.21484 0.36719 0.28906l0.28906-0.074219 1.4531-0.58203c2.3359-1.1641 5.3164-3.0547 8.6719-4.8828 0.9375-0.42969 1.6016-0.87109 2.9062-1.3789 1.1758-0.55469 2.3984-1.0195 3.6445-1.3867l1.4531-0.36719 0.28906-0.066406 0.22656 0.87109 0.79688 0.79687c0.14844 0 1.0234-0.9375 1.0234-0.9375 1.3125-0.074218 2.5508-0.50781 3.5625-0.42969 2.2578 0.14062 4.0117 0.066406 5.5391 0.066406 0.79687 0 1.2383-0.28906 1.8203-0.28906v-0.003907c0.12891-0.11719 0.28125-0.21484 0.44141-0.28906zm-59.277 235.96c-3.75-2.7695-7.3203-5.6797-10.707-8.7383h0.003906c-4.0469-0.48828-8.1133-0.75391-12.188-0.79688-13.688-0.44141-27.188 0.50781-39.609 0.50781-6.2734-0.074219-12.242-0.14062-17.812-0.58203-5.6797-0.73047-10.848-1.1641-15.656-2.1836-4.6875-1.3125-9.0273-2.5508-12.742-3.6367-2.9766-1.1406-5.8555-2.5273-8.5977-4.1562-4.5859-2.4766-7.0586-4.2266-6.7695-5.0234 0.28906-0.79688 3.2734-0.58203 8.4375 0.58203 2.5508 0.44141 5.6797 1.5273 9.2422 2.1094 3.5742 0.36719 7.5078 0.87891 11.805 1.5273 4.4453 0.44141 9.4688 0.28906 14.711 0.58984 5.3164 0 10.996-0.30078 17.043-0.51562 11.867-0.65625 24.977-1.8203 39.18-1.5273-3.8633-4.293-7.5742-8.7383-11.25-13.258-4.3984-5.0273-8.5195-10.289-12.355-15.758-1.9688-2.5508-3.9297-5.1016-5.8984-7.5742-14.645-19.012-29.352-38.016-42.242-58.191-5.7461-4.0781-12.188-8.3828-19.152-12.75h-0.003906c-5.8047-3.6836-12.176-6.3867-18.859-8.0078-5.7656-1.1328-11.605-1.8164-17.477-2.043-10.633-0.50781-17.258-1.8203-17.336-3.4961-0.074218-1.6797 6.4766-3.4883 16.969-5.1641 6.5547-1.0508 13.219-1.1992 19.812-0.44141 7.7734 1.2031 15.242 3.8984 21.992 7.9414-1.6797-3.1328-3.3477-6.2617-4.875-9.4688-6.1211-12.742-14.277-35.102-27.824-41.512-18.648-8.8125-44.277 2.6992-63.648 13.406v-0.003907c7.0859 0.25 14.129 1.1484 21.047 2.6914 11.867 2.6992 18.75 5.8984 18.348 7.5-0.28906 1.7539-7.7891 1.5273-19.445 1.0977-5.8203-0.22656-12.742-0.36719-20.176 0.074219-1.8203 0.066406-3.75 0.21484-5.625 0.35547-1.8203 0.28906-3.6367 0.51563-5.457 0.80469s-4.1523 0.9375-6.2617 1.3789l-1.6016 0.44141-1.0977 0.36719c-0.78906 0.1875-1.5469 0.48047-2.2578 0.87109-5.1641 2.1094-9.5352 11.07-15.582 16.754-2.5273 2.8555-5.2266 5.5547-8.082 8.082-2.5508 2.3359-4.8828 4.4453-6.9922 6.4141s-4.0039 3.6367-5.7578 5.1641c-1.5273 1.7539-2.9805 3.207-4.2188 4.4453-2.4766 2.3359-4.1523 3.4219-4.8828 2.9141-0.73047-0.50781-0.36719-2.4102 0.87109-5.625 0.65625-1.5391 1.4609-3.4297 2.5508-5.5391v-0.003907c1.4844-2.3867 3.0898-4.6953 4.8086-6.918 1.875-2.6914 4.0039-5.2422 6.1875-7.8672 1.6797-1.9609 3.4961-4.0781 5.1758-6.2617-23.996 11.645-46.195 26.68-65.906 44.645-25.781 26.148-37.07 62.41-63.582 87.898v0.003906c-25.23 22.949-45.59 50.738-59.867 81.711 0.074219 1.5273 0.22656 3.0664 0.30078 4.5938 0.21484 2.6758 1.0352 5.2656 2.3984 7.5742 0.65625 0.21484 0.14062 0.87109 2.4766 1.7422l1.3125 0.58203 0.28906 0.14844h0.074219l1.875 0.42969v0.003907c1.3789 0.12891 2.7617 0.17969 4.1445 0.15234 1.5391-0.21484 2.9922-0.28906 4.4453-0.58203 11.328-2.9453 22.238-7.3047 32.484-12.965 9.1797-4.7344 16.602-8.6641 21.918-11.07 5.3164-2.4102 8.5977-3.2734 8.9609-2.5508 0.36719 0.72266-2.043 2.9141-6.5625 6.4883-4.5195 3.5703-11.25 8.6641-20.102 14.418-4.3672 2.9141-9.375 5.8984-15 8.8867h0.003907c-6.0977 3.3203-12.578 5.8828-19.297 7.6406-1.875 0.51562-3.9375 0.73047-5.9062 1.0977v-0.003906c-2.207 0.16016-4.4219 0.13281-6.625-0.074219l-3.4883-0.58203-0.44141-0.14844h-0.074219l-0.87109-0.28906-0.14844-0.074219-0.64844-0.28906-1.2383-0.50781v-0.003906c-2.5039-1.1172-4.7578-2.7266-6.6289-4.7344-0.55469-0.70312-1.0469-1.4609-1.4609-2.2578-3.4961 8.3047-6.9922 16.539-10.555 24.758h-0.003906c6.7188 0.13281 13.402-0.94922 19.734-3.1953 6.9609-2.3125 13.711-5.2109 20.176-8.6719 11.07-5.7461 16.969-10.125 17.914-9.1016 0.79687 0.80469-3.75 7.0703-14.352 14.785v-0.003907c-6.3242 4.7188-13.191 8.6562-20.457 11.73-4.5469 1.9492-9.2812 3.4414-14.129 4.4414-4.4766 0.9375-9.0781 1.1328-13.621 0.58203-5.5977 12.52-11.922 24.703-18.938 36.488 3.8633-2.3359 7.6484-4.5195 11.363-6.8516 22.434-11.891 45.508-22.531 69.113-31.875 9.9102-4.0781 18.75-7.8672 26.578-11.148 7.6484-3.4219 14.352-6.3281 19.742-8.7383 5.3164-3.2383 11.117-5.5938 17.184-6.9844 0.44141 0.72266-4.8828 4.5859-15.074 11.062-5.1016 3.1328-11.578 6.5625-19.012 10.633-7.5664 3.8633-16.312 8.3047-25.922 12.891-19.227 9.2539-42.898 19.688-66.789 33.582-5.8984 3.8516-12.375 7.7148-18.348 11.719h0.003907c-5.9453 4.0352-11.395 8.7539-16.238 14.062-4.4492 4.7344-8.3242 9.9766-11.551 15.617 13.469-6.8906 27.629-12.336 42.242-16.246 7.6484-2.25 15.441-5.5312 22.727-8.3711 7.2852-2.8398 14.559-5.6797 21.629-8.4375 3.4961-1.3867 7.0586-2.625 10.48-4.0781 3.3555-1.6016 6.6289-3.1328 9.9102-4.6875 6.5625-3.0664 12.891-5.9727 19.004-8.8125 12.383-5.4648 23.598-11.25 33.871-16.539 41.25-20.68 66.852-33.75 67.727-32.109 0.44141 0.72266-5.4648 4.9492-16.387 11.867-10.922 6.918-27.02 16.602-47.258 27.965-10.051 5.6797-21.121 12.02-33.43 17.914-6.1133 3.0547-12.449 6.2617-19.004 9.5352-3.2812 1.6016-6.5625 3.207-9.9102 4.8828-3.3477 1.6797-6.9922 2.9805-10.555 4.4453-7.1445 2.9141-14.492 5.9727-21.93 9.0273-7.6406 3.0547-14.926 6.2617-23.156 8.8125l-0.003906 0.003906c-16.031 4.1602-31.391 10.566-45.629 19.023-3.7422 2.582-7.0156 5.7852-9.6836 9.4688-0.46484 2.918-0.77734 5.8594-0.9375 8.8125 0 0.51563-0.14062 0.9375-0.14062 1.4609 19.602-17.891 45.926-26.535 72.316-23.746 55.996 5.0234 107.63 24.984 164.73 26.727 35.176 1.0234 58.773 2.2578 87.758-21.414 12.816-10.48 32.812-4.1445 47.336-3.75 45.227 1.3867 60.523-40.414 82.445-71.008v0.003906c8.3594-11.098 17.305-21.738 26.805-31.875-5.8984-2.6914-12.02-5.3828-18.066-8.2227-2.3359 7.0039-5.5938 13.664-9.6836 19.809-3.4219 5.332-7.1172 10.484-11.07 15.434-14.492 17.812-24.977 26.953-26.07 26.07-1.3125-1.0859 7.0703-12.188 19.445-30.871 3.0664-4.7344 6.3359-9.8359 9.375-15.59h-0.003907c3.3711-5.7578 5.9922-11.926 7.8008-18.348l0.28906-1.3125c-8.0195-3.8867-15.738-8.3633-23.09-13.398-0.43359 2.7305-1.0391 5.4297-1.8203 8.082-2.7539 10.051-7.4258 19.477-13.762 27.75-5.7422 7.543-12.426 14.32-19.883 20.168-12.238 9.5156-25.219 18.039-38.812 25.488-11.25 6.3359-20.391 11.512-26.727 15.074-6.3359 3.75-10.051 5.4648-10.566 4.8086s2.2578-3.75 7.7266-8.6719c5.625-4.8008 14.203-11.25 24.898-18.562l-0.003907 0.003907c12.57-8.2344 24.656-17.184 36.199-26.805 13.777-10.914 23.934-25.738 29.137-42.523 1.2461-4.4531 2.0742-9.0078 2.4766-13.613-2.6953-2.457-5.2227-5.082-7.5781-7.8672-1.1094-1.3203-1.9297-2.8633-2.3984-4.5273-0.074219 0-0.14062-0.074219-0.21484-0.074219-16.527-7.5-38.887-18.496-64.012-28.914-21.449-8.5352-43.617-15.148-66.234-19.762-17.812-2.8125-29.062-4.5938-28.848-6.4141 0.074219-1.5273 11.25-2.8125 29.57-2.1836h-0.003907c24.09 2.1523 47.727 7.8711 70.137 16.969 13.398 5.625 25.707 11.578 36.703 17.398-1.5312-1.8203-2.9883-3.6367-4.3672-5.457-4.1523-2.1836-8.3711-4.3672-12.816-6.5625-6.6289-3.2812-13.621-6.7031-19.809-9.4688l-0.003907 0.003906c-5.9531-3.0039-12.055-5.6992-18.281-8.082-12.188-4.6875-23.23-8.8125-32.484-12.309-18.496-7.2852-29.203-13.473-28.688-14.859 0.65625-1.7422 12.602 1.6016 31.602 6.7031 4.8086 1.3125 9.9766 2.6914 15.516 4.2188 5.6797 1.7539 11.652 3.6484 17.992 5.625 6.6445 2.2305 13.16 4.8359 19.512 7.8008 4.5195 1.9609 8.8125 3.9297 13.191 6.0391-0.22656-0.35547-0.51563-0.72266-0.73047-1.0117l-3.207-4.1523c-4.293-5.3164-8.1562-11.148-12.309-15.656-4.1523-4.5078-8.082-8.8125-11.793-12.891-3.9375-3.8633-7.8672-7.2109-11.25-10.492-6.7031-6.7695-13.258-10.922-17.195-14.633-4.0781-3.5703-6.1875-5.9062-5.7461-6.6289 0.44141-0.72266 3.3477 0.21484 8.2969 2.6172l-0.003906-0.003907c7.0742 3.2227 13.781 7.1992 20 11.867 3.9297 2.9805 8.4375 6.0391 12.891 9.8242 4.2188 4.1484 8.7305 8.5234 13.539 13.125 4.7344 4.7344 8.5234 10.051 13.039 15.43l3.2734 4.0781-0.003906 0.003907c1.2031 1.5 2.3242 3.0625 3.3555 4.6875 2.0352 2.9805 4.0781 6.0391 6.1875 9.1016 1.4531 2.2578 2.9922 4.3672 4.4453 6.4766l3.9297 2.1836c5.9727 4.0039 11.805 7.7891 17.27 11.438l-0.003907 0.003906c6.9062 4.2305 14.664 6.8672 22.719 7.7148 32.484-6.9766 60.664-26.879 90.672-41.645zm-20.539-373.12c-2.4766-0.79688-5.1016-1.4531-7.7891-2.0352-27.02-5.5391-64.453-10.707-85.312 12.375-2.3984 2.6992-4.5859 5.3164-6.6953 8.0156-0.17188 2.1445 0.10156 4.3008 0.79688 6.3398 0.09375 0.5 0.35156 0.96094 0.73047 1.3008 0.21484 0.36719 0.36719 0.88281 0.87109 1.0977 0.36719 0.14062 0.65625 0.79688 0.9375 0.79688l1.3125 0.80469c0.12891-0.015626 0.25781 0.007812 0.36719 0.078124 2.3984 0.55859 4.9141 0.37891 7.2109-0.51562 2.9062-0.79688 5.7461-2.0352 8.2969-2.9805 5.1016-2.043 9.0273-2.7656 9.8359-1.2383 0.80469 1.5273-1.0234 4.4453-5.1016 8.5234v-0.003906c-2.5859 2.4922-5.5312 4.5781-8.7383 6.1875-4.8477 2.7188-10.621 3.2461-15.883 1.4531-0.86328-0.31641-1.7148-0.67969-2.5391-1.0859l-1.3125-0.88281c-1.332-0.89844-2.5156-2-3.4961-3.2695-1-1.0469-1.7656-2.2891-2.2617-3.6484-2.6328 4.3203-4.9453 8.8242-6.918 13.48 0.51172 3.8281 1.7188 7.5312 3.5703 10.922 1.9453 3.6602 4.8672 6.7109 8.4375 8.8125 3.0547 1.6055 6.4492 2.4531 9.9023 2.4766 1.4023-0.14453 2.8164-0.21875 4.2266-0.21484 1.3789-0.074219 2.7656-0.58984 3.8633-0.65625 2.1836-0.28906 3.5625-0.074219 3.9297 0.65625 0.36719 0.73047-0.28906 2.0352-1.8203 3.6367-0.94141 0.96875-1.9922 1.8242-3.1328 2.5508-1.8008 1-3.6836 1.8516-5.625 2.5469-5.2656 1.5508-10.898 1.3203-16.02-0.65625-5.5156-2.3516-10.168-6.3438-13.332-11.438-1.0938 5.0664-1.8516 10.199-2.2578 15.367 0.54297 2.3555 1.6719 4.5352 3.2812 6.3359 1.9023 1.8594 4.1523 3.3242 6.625 4.3047 2.2578 0.79688 3.6367 1.5273 3.6367 2.3984 0 0.87109-1.2383 1.7422-3.75 2.3984l0.003907 0.003906c-3.4922 0.60938-7.0859 0.10156-10.266-1.4531 0 1.0234-0.074218 1.9688 0 3.0547 0.87109 23.016-7.0703 39.617-9.543 61.246h-0.003906c8.2617 0.089844 16.359 2.3008 23.523 6.4141-3.082-7.7305-4.8047-15.938-5.1016-24.254-0.35547-15.441 1.7539-33.75 16.387-42.309 11.652-6.7031 24.18-0.80469 33.281 8.1562 3.1328-20.465-6.2617-42.977 11.438-61.246 11.793-12.094 27.891-18.066 39.836-29.719 5.3438-5.0625 9.7227-10.09 14.598-14.168zm-32.043 281.44c10.703-9.6797 18.879-21.828 23.812-35.391-19.039-4.7461-37.105-12.781-53.383-23.738-3.8906-2.8828-7.5664-6.0469-10.996-9.4688 5.7422 13.145 12.434 25.848 20.023 38.016 6.4883 9.5352 13.258 19.949 20.543 30.582zm-126.21 487.5c35.102-42.824 68.383-87.254 109.24-124.69-21.559-9.2617-41.574-21.762-59.355-37.07-9.4727 19.297-20.637 37.719-33.355 55.051-11.578 15.148-19.809 23.383-20.973 22.5-1.3867-1.0977 4.5078-10.996 14.062-27.02 8.0156-13.988 18.57-32.812 28.836-54.555l-2.6875 0.003906c-4.2266 2.8125-8.8125 6.8516-13.695 10.125-6.1133 4.293-11.945 8.4375-17.551 12.383-10.996 8.3711-21.113 15.797-30.215 21.703-6.8828 4.793-14.227 8.875-21.93 12.188-5.3906 2.4766-8.5859 3.4219-9.0273 2.6914-0.44141-0.73047 1.9688-3.0547 6.5625-6.7695 4.5938-3.7109 11.867-8.4375 19.52-15.289 8.0156-6.7031 17.551-14.645 28.18-23.438 5.625-4.2188 11.512-8.7383 17.625-13.32l1.9688-1.5391c-4.1523-0.28906-8.3711-0.58203-12.676-0.50781-18.75 0.44141-35.625 21.629-55.641 25.855-17.41 3.3672-35.141 4.8086-52.863 4.2969 26.23 40.074 55.152 78.32 86.566 114.48 6.7031 8.2227 12.602 15.648 17.41 22.93zm30.141-750.84c-16.875-0.64844-33.281 1.6797-43.406 19.227-10.633 18.57-3.0547 58.406 25.312 53.016h0.074219c-0.14844-16.836 2.3086-33.598 7.2852-49.688 2.6875-7.9102 6.2891-15.48 10.734-22.555zm-63.75 865.92c11.945-20.539 32.625-63.945 23.156-91.988-0.39844-0.046875-0.78906-0.14453-1.1641-0.28906-30.684-8.4102-62.621-11.27-94.312-8.4375-35.906 1.875-60.938 40.781-73.191 72.684 0.58203-0.73047 1.0859-1.5273 1.668-2.2578h0.003906c13.105-13.734 29.387-24.035 47.41-30 13.258-4.6875 21.703-6.4023 22.359-4.875 0.65625 1.5273-6.7695 6.2617-18.75 12.816v-0.003906c-14.695 7.3555-28.18 16.91-39.984 28.332 3.6484-0.36719 7.2852-1.1641 10.707-1.6797 7.4336-1.2383 14.645-2.25 20.465-2.9062 11.945-0.73047 19.152 0.28906 19.152 1.668 0 1.6797-6.8438 3.4961-17.766 6.1953-5.5391 1.7422-11.945 3.5625-19.688 5.5312-3.5625 0.87109-7.2109 2.043-11.363 2.6914v0.003906c-0.058594 0.23438-0.15625 0.45703-0.28906 0.65625 9.3828 6.7031 19.926 11.617 31.094 14.492 9.0391 2.1836 16.68 1.3125 16.754 3.207 0 1.4531-5.3906 5.3906-17.699 5.3906-13.184-0.75-25.906-5.1094-36.777-12.598-4.4336 6.5625-9.2422 12.965-14.129 19.227 38.016 13.613 73.848 32.551 111.86 46.098 14.145-21.141 27.984-42.48 40.48-63.957zm3.2734-119.51c-7.1328-8.7383-14.203-17.551-21.121-26.512-15.938-20.898-33.355-41.805-49.379-63.43v-0.003906c-0.82422 0.25781-1.6797 0.40625-2.543 0.44141-72.543 4.6875-157.97 45.656-162.7 128.1-0.007813 0.34375-0.054688 0.6875-0.14062 1.0195 20.879 16.598 43.434 30.973 67.293 42.891 11.867-29.418 36.562-72.75 66.121-81.422h0.003907c33.633-8.2109 68.703-8.582 102.5-1.0859zm-73.773 227.81c5.8203-8.5195 11.668-17.113 17.551-25.781-38.383-14.418-74.793-33.648-113.68-46.68h-0.003906c-15.312 17.684-27.305 37.988-35.398 59.934-10.191 31.461-23.082 62.043-32.691 93.656 40.492 4.5078 80.832-1.2383 121.32-3.8633 5.6562-29.426 26.113-52.629 42.941-77.277zm-11.148-338.06c-4.3672-6.4883-8.4375-13.18-12.375-19.883-1.6797 0.36719-3.4219 0.65625-5.25 1.0234-6.6953 1.3125-14.785 1.9688-23.664 2.9141l-6.8438 0.65625 0.003906-0.003907c-2.6758 0.078126-5.3516 0.003907-8.0156-0.22266-5.1797-0.39844-10.336-1.0781-15.441-2.0352-16.895-3.8438-33.984-6.7617-51.195-8.7461-5.0039-0.24609-10.016-0.125-15 0.36328-3.75 0.58203-6.0469 0.80469-6.3359 0-0.28906-0.80469 1.2383-2.3984 4.5859-4.4453l-0.003906 0.003906c5.1797-2.543 10.789-4.0977 16.535-4.5859 18-0.64453 36.004 1.1406 53.523 5.3164 5 0.86719 9.8086 1.5977 14.43 2.1836 2.1094 0.22656 4.875 0.44141 6.3281 0.44141l6.8516-0.21484h1.6406c-16.961-2.582-33.762-6.1094-50.324-10.566-29.645-8.082-62.812-20.391-93.883-12.891-25.633 6.1875-37.211 19.305-53.598 37.219 0 2.0352 0.074219 4.1445 0.14844 6.1875h0.003906c1.2031-1.5938 2.5703-3.0586 4.0781-4.3672 4.1016-3.4883 8.6719-6.3828 13.574-8.6094 6.7773-2.9727 13.898-5.1016 21.195-6.3359 5.1016-0.72266 8.0156-0.79688 8.2305 0 0.21484 0.79688-2.1836 2.4102-6.7773 4.5938-4.4336 2.3242-11.25 4.9492-18.562 9.4688-3.8438 2.3047-7.3906 5.0664-10.562 8.2305-1.7422 1.668-2.5508 3.4883-4.0781 5.0898-0.69141 1.207-1.3008 2.4609-1.8203 3.75l-0.9375 1.9688-0.44141 1.0234-0.066406 0.14062-0.074219 0.14844v0.21875c-0.70312 2.2188-1.1445 4.5156-1.3125 6.8438 0.50781 3.0664 1.0859 6.1211 1.6797 9.1016 0.79688-1.3789 1.668-2.8125 2.3984-4.1445 1.7422-2.8125 3.8633-5.1016 5.6797-7.5742h0.003907c7.0781-7.9219 15.609-14.41 25.133-19.117 6.3945-3.0312 13.223-5.0469 20.242-5.9688 4.8086-0.22656 7.5 0 7.6484 0.79688 0.14844 0.79687-2.1836 2.1094-6.7031 3.75-5.8984 2.4648-11.598 5.3867-17.043 8.7344-7.8242 5.1836-14.801 11.547-20.684 18.863-1.4531 2.1836-3.207 4.2266-4.5078 6.5625-1.0977 2.3359-2.625 4.9609-3.4961 7.1445-0.48828 1.1406-0.83203 2.3359-1.0234 3.5625-0.21484 1.4609-0.44141 2.9922-0.73047 4.4453-0.28906 1.4531-0.42969 3.0547-0.87109 4.8086 11.793 32.996 31.32 62.691 56.953 86.586 13.93-80.445 94.039-123.85 170.79-132.44z"/>
 <path d="m426.61 536.95c1.875 2.1094-27.676 34.688-74.211 64.012-11.719 6.6289-22.359 13.18-33.281 18.422-9.3438 4.7891-19.031 8.8633-28.988 12.188-3.9141 1.2617-7.9062 2.2812-11.945 3.0547-3.1602 0.44141-6.3438 0.70703-9.5352 0.79688-4.9492-0.42969-7.6484-1.0859-7.7266-1.9609-0.074219-0.87109 2.6992-1.7539 7.5-2.8125 2.1836-0.72266 4.8828-1.668 8.0156-2.6914 3.1328-1.3867 6.7031-2.5508 10.555-4.5195 7.8008-3.5625 16.754-8.4375 26.879-14.129 9.7578-5.3164 20.758-12.449 32.336-19.004 44.496-28.016 77.852-56.348 80.402-53.355z"/>
</svg>
