<?xml version="1.0" encoding="UTF-8"?>
<svg width="1200pt" height="1200pt" version="1.1" viewBox="0 0 1200 1200" xmlns="http://www.w3.org/2000/svg">
 <path d="m863.27 587.73-164.05-141.73c-7.5234-6.5039-18.898-5.6523-25.379 1.8594-6.5039 7.5234-5.6758 18.887 1.8477 25.391l125.75 108.62h-448.1c-9.9375 0-18 8.0508-18 18 0 9.9492 8.0625 18 18 18h452.63l-71.676 63.973-55.992 44.281c-7.7891 6.168-9.1211 17.484-2.9531 25.285 3.5508 4.4883 8.8203 6.8281 14.137 6.8281 3.9102 0 7.8477-1.2617 11.16-3.8867l56.797-44.977 106.05-94.609c3.8633-3.4453 6.0586-8.3867 6.0234-13.57-0.046874-5.1758-2.3047-10.082-6.2383-13.469z"/>
</svg>
