<?xml version="1.0" encoding="UTF-8"?>
<svg width="1200pt" height="1200pt" version="1.1" viewBox="0 0 1200 1200" xmlns="http://www.w3.org/2000/svg">
 <path d="m1059.7 898.18c-43.172 66.375-100.31 122.86-167.26 165.24-84.703 53.625-185.11 84.703-292.74 84.703-212.86 0-397.55-121.55-488.39-299.02-35.203-68.719-56.297-145.87-59.484-227.53-0.28125-7.2188-0.42188-14.438-0.42188-21.75 0-207.1 115.03-387.52 284.68-480.74 11.344-6.2344 25.594-2.1094 31.828 9.2344s2.1094 25.594-9.2344 31.828c-132.74 72.984-228.98 204.32-253.97 359.39 54.141-84.844 119.58-151.26 198.52-195.32 98.812-55.219 218.95-75.797 365.58-52.547-7.5469-58.031-27.141-115.64-56.438-173.06-4.2188-0.09375-8.4375-0.14062-12.656-0.14062-56.953 0-111.66 9.5156-162.71 27.047-12.234 4.2188-25.547-2.3438-29.766-14.531-4.2188-12.234 2.3438-25.547 14.531-29.766 55.781-19.172 115.64-29.578 177.89-29.578 9.5156 0 18.938 0.23438 28.312 0.70312 81.562 4.1719 158.39 26.156 226.74 62.203 174.28 91.828 293.21 274.82 293.21 485.34 0 55.922-8.3906 109.92-24 160.78-3.7969 12.375-16.922 19.312-29.25 15.516-12.375-3.7969-19.312-16.922-15.516-29.25 14.25-46.5 21.938-95.859 21.938-147.05 0-156.42-71.766-296.21-184.18-388.18 46.266 89.203 71.016 178.97 69.75 269.26-1.5938 113.16-43.828 227.53-137.29 342.89 54 22.5 113.72 34.312 178.08 37.641 7.2188-11.766 13.969-23.859 20.203-36.234 5.8125-11.531 19.922-16.172 31.453-10.359s16.172 19.922 10.359 31.453c-9 17.859-18.984 35.203-29.859 51.891zm-231.89-744.94c-49.547-25.359-103.88-42.75-161.26-50.391 30 64.922 48.047 130.22 51.844 195.89 5.7188 100.08-21.562 201.24-91.734 303.47 45.094 94.125 105.8 159.14 179.39 200.48 90.516-108.66 132.28-215.9 133.78-322.45 1.5469-109.97-39.609-218.76-112.08-326.95zm-26.625 699.89c-89.531-45.094-163.5-119.25-216.98-231.14-104.06-8.0156-190.74 12.047-263.34 55.125 48.844 132.66 120.79 222.52 212.34 277.08 94.453 56.297 209.21 75.047 339.1 66.469 47.578-30.891 89.625-69.656 124.26-114.47-71.156-6.5156-136.69-23.484-195.42-53.062zm-128.9-533.44c-139.31-24.047-253.13-6.6094-346.13 45.375-96 53.625-169.64 143.68-227.11 260.48 2.9531 58.125 15.797 113.62 36.938 164.9 41.25-58.453 88.734-106.78 143.76-142.87 83.812-54.984 185.02-81.938 308.68-72.328 58.969-86.109 84.891-171.19 83.953-255.61zm-391.26 384.37c-46.5 35.531-86.625 81.328-121.69 135.42 85.078 155.86 250.5 261.74 440.44 261.74 62.672 0 122.68-11.531 177.98-32.578-100.59-4.5-190.82-27.938-268.5-74.25-97.219-57.938-175.13-151.69-228.24-290.34z" fill-rule="evenodd"/>
</svg>
