<?xml version="1.0" encoding="UTF-8"?>
<svg width="1200pt" height="1200pt" version="1.1" viewBox="0 0 1200 1200" xmlns="http://www.w3.org/2000/svg">
 <path d="m1156.4 531.31c7.9023 10.949 6.6484 29.203 4.4141 42.824-0.21875 2.0273-1.3672 3.832-3.1016 4.8945 0.12109 7.1055-3.4492 13.766-9.4336 17.598-15.141 8.3359-29.906 10.734-44.344 22.07-28.16 23.824-58.387 45.102-90.316 63.57-15.512 8.4297-31.797 15.336-48.641 20.625-19.285 5.625-39.938 1.875-59.711 0.48828-38.344-2.5586-77.68-2.2305-115.11-11.336h0.003906c-11.973-1.8633-24.059-2.8828-36.172-3.0469-2.207 8.2656-6.7266 15.73-13.027 21.52-6.2969 5.7852-14.117 9.6602-22.539 11.164-29.418 7.5-63.844 13.836-88.789 31.547-6.2734 4.4062-12.422 8.9336-18.523 13.453 26.691 12.188 54.477 23.914 81.984 33.336h-0.003906c23.086 6.6719 45.5 15.48 66.945 26.316 28.332 15.938 58.012 41.617 33.234 76.809-20.109 28.594-54.863 31.266-87.43 28.539-6.7031 28.434-55.023 37.969-79.426 30.348-23.102-7.1914-38.438-25.387-60-34.539-18.133-7.7344-25.434-13.727-26.195-32.305l0.003906-0.003906c-13.566-4.0312-27.336-7.3398-41.25-9.9062-12.719-0.66016-25.203-3.6719-36.828-8.8789-18.578-10.973-34.844-25.461-47.875-42.656-10.156-12.418-18.051-26.523-23.316-41.672-40.969-3.75-77.625-26.418-119.25-25.547-36.984 0.70312-72.992 6.9102-109.69 0.70312-15.094 10.078-33.938 6.5625-52.078 3.2148-0.46875-0.066406-0.92578-0.19531-1.3594-0.38281-6.4492 1.6875-12.566 4.4492-18.094 8.1719-8.0625 5.832-21.945 17.055-32.68 10.023-12.309-8.0078-16.398-23.043-18.957-36.824-3.3906-14.75-0.74609-30.242 7.3477-43.031 3.0391-3.875 7.4102-6.4766 12.262-7.3047 4.4062-1.1445 8.2773 2.0156 12.965 0.11328 2.8125-1.1992 5.7188-2.3438 8.5508-3.4297 0.59375-0.31641 1.2227-0.55469 1.875-0.71484 0.63672-0.24219 1.293-0.42188 1.9609-0.54297 1.7422-0.44141 3.5898-0.81641 5.5508-1.2578 7.5156-5.5234 17.121-7.3633 26.145-5.0039 10.633 1.9609 20.43 0.9375 31.004 1.875 7.5859 0.53516 15.062 2.1133 22.219 4.6875 0.78906-0.30469 1.6172-0.48828 2.457-0.54297 39.578-2.6211 78.82-9.0078 117.19-19.07 34.266-9.0938 58.566-4.3047 90.816 3.4297 4.6641-30.672 21.668-58.105 47.062-75.938 33.234-21.562 73.379-14.438 109.45-25.387v-0.21484l2.5586-1.3047c3.375-1.7422 6.6484-3.3828 9.8516-5.0156 6.3203-3.2148 11.773-6.375 16.949-9.1484l7.6797-5.0703c-3.2148 0.44141-6.5625 0.71094-10.023 0.9375-6.2109 0.28516-12.426-0.52344-18.355-2.3906l-2.457-0.76953-2.3984-1.1445c-1.6406-0.74609-3.207-1.6367-4.6875-2.6641-1.5625-1.0312-3.0547-2.1641-4.4727-3.3828-1.4141-1.4727-2.4453-2.3906-4.3516-4.6328-3.168-4.832-6.0078-9.8711-8.5-15.082-0.69531-1.2773-1.3242-2.5859-1.875-3.9297l4.3516-0.9375c2.9453-0.60156 5.9453-1.1992 8.9922-1.875 4.3047-0.87109 8.7188-1.7422 13.18-2.6719 1.6875-0.375 3.1016-1.0859 4.6328-1.5742l1.1992-0.44141h-0.003906c0.11719-0.039063 0.22656-0.09375 0.32812-0.16016l0.48828-0.38281c0.16797-0.10156 0.44141-0.21484 0.11328-0.375-0.32813-0.16016-0.44141-0.22656-0.60156-0.32812l-0.27344-0.11328-0.21484-0.16016-1.5859-1.1992-13.996-10.68 18.242-2.3984h0.003906c11.707-1.5234 23.039-5.1562 33.449-10.723 2.6094-1.4844 5.1406-3.1055 7.5742-4.8594 2.25-1.8672 4.2617-4.0078 5.9922-6.3633 3.8828-5.4648 7.0664-11.398 9.4766-17.652 2.8047-7.4531 5.9883-14.754 9.5352-21.883 2.1719-4.0469 4.7305-7.8789 7.6328-11.438 3.3203-3.6328 7.1328-6.7891 11.324-9.375 7.8789-5.1523 16.492-9.082 25.547-11.664 5.1523-1.457 10.504-2.0898 15.852-1.875 1.5273 0.16016 3 0.38281 4.5742 0.65625 1.5859 0.42969 3.2148 0.9375 4.8008 1.5742 0.81641 0.44141 1.6328 0.9375 2.4453 1.4727 11.766-13.398 29.258-17.156 48.102-19.828 22.988-3.2148 35.953 4.5195 56.98 12.188l0.32813 0.16797c20.043 5.2305 43.359 32.195 35.738 52.238h0.003906c6.293 6.7227 11.844 14.105 16.555 22.016 0.63672 1.3203 1.1289 2.707 1.4727 4.1328 37.5 7.3047 75.395 9.5352 113.36 13.621 16.469 1.7578 32.68 5.3945 48.32 10.84 17.156 5.9453 39.215 16.07 56.812 6.2734 21.086-11.719 37.695-23.914 62.539-17.492 18.086 4.6172 25.875 20.254 27.508 37.082zm-11.25 37.809c1.5977-7.4023 1.7266-15.047 0.38281-22.5-0.1875-0.25781-0.41016-0.49609-0.65625-0.70313-1.2188-1.2578-2.7109-2.2188-4.3594-2.8125-0.41016-0.089843-0.8125-0.21484-1.1992-0.375-0.14844 0.10547-0.34375 0.10547-0.48828 0 0.054687-0.16797-0.42969 0-0.75781 0.10156l-1.1445 0.21484-0.27344 0.11328-0.11328 0.054688c-0.054687 0.054687-0.21484 0-0.32812 0.16016v0.003906c-1.5508 1.3555-2.793 3.0273-3.6445 4.9023-1.1445 2.2422-2.2305 4.4727-3.375 6.3203-0.85938 1.6133-1.9844 3.0664-3.3281 4.3008-1.0312 0.9375-1.875 1.0391-2.4453 0.76953-0.57031-0.27344-0.65625-1.2578-0.71094-2.457h-0.003906c0-1.6016 0.12891-3.207 0.38281-4.7891 0.36328-2.5117 0.92969-4.9883 1.6875-7.4062 0.054687-0.11328 0.054687-0.22656 0.11328-0.27344-12.695 6.4766-26.699 9.5234-33.891 23.09v0.003907c-0.64062 1.2422-1.6133 2.2812-2.8125 3-6.1016 4.9609-12.254 9.6953-18.57 14.164 3.3789 10.086 8.5234 19.492 15.195 27.777 4.6875-3.543 9.3086-7.0781 13.883-10.68 8.1172-6.4219 42.496-17.156 42.824-26.578l0.003906 0.003907c0.035157-2.6211 1.418-5.043 3.6562-6.4062zm-7.1328-46.574c6.8047-6.8633-13.125-13.836-17.27-13.949-21.898-0.70312-40.145 16.727-60.355 22.445-0.87109 0.22656-1.8008 0.44141-2.7266 0.60156l-0.003906-0.003906c-0.023437 8.6992 2.5898 17.195 7.5 24.375 0.375 0.50781 0.6875 1.0547 0.9375 1.6328 2.457 0.27344 4.9609 0.42969 7.4062 0.70312 1.1406 0.10156 2.25 0.41797 3.2695 0.9375 0.16016-0.16016 0.32812-0.27344 0.48828-0.42969v-0.003907c6.3398-10.766 16.312-18.922 28.125-22.996 4.8008-1.9609 10.406-5.5508 16.18-8.6055-2.7188-1.0859-4.8477-2.0625-6.6484-2.8125-2.9922-1.5742-6.5625-2.0156-6.4766-3.375 0-1.0859 2.0156-3.1602 7.7344-3 4.8125 0.17969 17.832 8.6172 21.863 4.4805zm-66.027 100.01h-0.003906c-6.4531-8.832-11.805-18.418-15.938-28.547-10.734 6.5898-22.246 11.824-34.266 15.582-31.266 9.5352-62.699 16.125-90.75 33.508-0.054688 0.054688-0.11328 0.10156-0.11328 0.16016 4.2461 5.0703 7.3516 9.5898 10.133 12.852 3.1602 4.0312 5.7188 6.918 4.9023 7.9609-0.81641 1.0391-4.1992 0.32813-9.3203-3.1016l0.003907-0.003906c-5.7891-4.5352-11.082-9.6641-15.797-15.309-1.1445-1.1992-2.2891-2.2891-3.4297-3.2734-14.52-6.6016-29.594-11.906-45.047-15.852 0.8125 5.4648 0.68359 11.031-0.38672 16.453-0.86719 4.5898-2.1406 9.0938-3.8125 13.453-2.9453 7.3594-5.9922 11.336-7.1328 10.848-1.1445-0.48828-0.32812-5.2305 0.87109-12.59 0.60156-3.75 1.2578-8.1094 1.6875-12.852l-0.003906-0.003906c0.59375-4.9141 0.44922-9.8906-0.42969-14.766-0.13672-0.72266-0.33984-1.4297-0.60156-2.1172-4.9023-0.65625-9.8633-1.1445-14.766-1.5273-0.53906 19.793-4.082 39.391-10.508 58.125 8.4375 0.98437 16.988 1.875 25.602 2.5039 17.645 1.3125 35.297 2.6172 52.941 3.75 14.109 0.87109 31.219 4.6875 44.785-0.64844 23.531-8.2227 46.02-19.176 67.004-32.637 14.887-10.34 29.746-21.074 44.398-31.969zm-25.602-66.402h-0.003907c-3.2305-7.7031-4.9648-15.949-5.1211-24.301-12.344-2.4219-24.434-5.9961-36.113-10.668-16.809-5.5-34.102-9.4062-51.645-11.66-2.1758 0.32812-4.5195 0.71094-6.9648 1.2578v-0.003906c-5.3945 1.1953-10.691 2.7773-15.855 4.7344-2.0156 0.76953-3.6016 1.3672-4.8008 1.8008-1.1992 0.42969-2.2305 0.60156-2.6641 0.16016-0.42969-0.44141-0.38281-1.4141 0.10156-2.6641h0.003907c0.94922-1.8477 2.2656-3.4844 3.8633-4.8086 1.3711-1.1719 2.8516-2.2109 4.4141-3.1016-17.652-1.875-35.41-3.1602-53.062-5.0625 0.074219 0.78125 0.035157 1.5703-0.10937 2.3438-3.5898 18.957-11.383 36.383-10.68 55.781 2.5703 0.27344 5.2305 0.42969 7.8477 0.54297-0.14453-12.539 2.1328-24.988 6.7031-36.668 1.7852-3.8945 4.4961-7.2969 7.8945-9.9062 2.457-1.5859 4.0312-1.875 4.4141-1.4727 0.38281 0.40234-0.54297 1.875-2.0156 4.1445-1.8438 3.0039-3.2695 6.2461-4.2461 9.6367-2.4844 11.34-3.6914 22.926-3.6016 34.535 7.6328 0.054687 15.309-0.21484 22.773-0.71094 2.0156-0.21484 3.9766-0.48828 5.7188-0.64844 1.7422-0.16016 3.543-0.11328 5.1289-0.054687 6.4766-0.54297 12.742-1.0859 18.684-1.5273 36.375-2.957 72.906-3.5195 109.36-1.6797zm10.902 17.156h-0.003906c-47.109-2.1758-94.312-1.3008-141.31 2.6172-30.18 1.6875-68.316 2.3438-96.039-12.582-5.1406 11.844-11.203 23.266-18.141 34.152 4.9609 2.0156 10.023 4.1992 15.254 6.4297v0.003907c0.30469 0.12891 0.59766 0.29297 0.87109 0.48437 0.87109-0.10937 1.75-0.089843 2.6172 0.058594 18.414 3.3203 37.5 1.4141 55.668 6.207 16.477 4.7656 32.668 10.477 48.488 17.109 20.715-11.746 42.945-20.578 66.074-26.25 23.484-5.9844 45.922-15.5 66.543-28.23zm-194.56-73.48c-6.207-0.8125-12.363-1.793-18.469-2.9453-0.53906 0.66797-1.1211 1.293-1.7461 1.875 0.10938 3.4336-0.44531 6.8555-1.6289 10.078 4.1914 12.91 4.2461 32.738-5.4453 43.789l-0.003906 0.003906c5.1602 2.0938 10.492 3.7344 15.938 4.9023v-0.42969c-0.027344-19.793 7.5938-37.828 11.355-57.273zm-32.25-14.203c0.41406-0.76562 0.70703-1.5898 0.87109-2.4453-1.1719-2.3281-2.6172-4.5078-4.3047-6.4883-4.6094-5.0859-8.9531-10.406-13.02-15.938-0.39063-0.69141-0.70703-1.4258-0.9375-2.1836-1.2578-2.9102-0.72656-6.2812 1.3594-8.6641 4.1445-4.7891-4.4141-15.469-7.3516-18.75-4.0312-5.2812-9.2344-9.5508-15.195-12.477-0.83594-0.019532-1.6641-0.16797-2.457-0.43359-0.074218-0.070313-0.17188-0.10938-0.27344-0.11328-0.078125-0.050781-0.17578-0.070312-0.26953-0.054687-1.9141-0.089844-3.7266-0.86328-5.1211-2.1758-2.1289-0.9375-4.3047-1.875-6.4297-2.8867-0.87109 0.87109-1.8008 1.7891-2.8125 2.9453-1.9023 2.1445-3.9766 4.1289-6.207 5.9336-1.5234 1.2266-3.2109 2.2344-5.0156 2.9883-1.875 0.78125-3.832 1.3516-5.832 1.6992-3.75 0.70312-7.4062 0.75781-10.078 1.3047v-0.003907c-1 0.14063-1.957 0.49219-2.8125 1.0312-0.48828 0.37109-0.85156 0.88672-1.0312 1.4727-0.40234 1.0312-0.66016 2.1133-0.76953 3.2148-0.054687 0.54297 0.38281 1.5273 0.98438 5.2891 0.074218 1.0312 0.09375 2.0703 0.058593 3.1016-0.14844 1.2695-0.40625 2.5273-0.76953 3.75l-0.60156 1.6328c-0.46875 1.1445-1.0547 2.2422-1.7422 3.2734-0.63672 0.92578-1.3633 1.7812-2.1758 2.5586-0.65625 0.60156-1.3125 1.0859-1.8008 1.5273 0.019531 0.48828 0.12891 0.96875 0.32812 1.4141 0.53125 1.1406 1.3633 2.1094 2.4023 2.8125 1.4727 1.2578 3.5898 2.5039 6.2617 4.3047 0.70312 0.48828 1.3594 0.9375 2.1289 1.5273 1.0195 0.80469 1.9844 1.6797 2.8867 2.6172 1.9727 2.0625 3.4258 4.5586 4.2461 7.293 0.054687 1.2578 0.10156 2.5117 0.10156 3.75h0.003906c-0.83984 3.1562-0.89453 6.4648-0.16016 9.6484 0.79297 2.4336 0.79297 5.0625 0 7.5-1.4727 4.5742-4.5195 11.383-9.5352 12.637-2.1758 0.54297-8.3906 0.16016-7.7891 3.6484 0.65625 3.8164 9.8047 1.1992 9.9648 5.1758 0.054688 1.1992-1.0859 2.8125-4.3516 3.8164v-0.003906c-1.9531 0.60938-4.0078 0.83203-6.0469 0.65625-1.3711-0.089844-2.7148-0.40625-3.9844-0.9375-2.0156-0.78906-3.6641-2.3047-4.6211-4.2461-0.66016-1.6016-0.70312-3.3906-0.11328-5.0156-3.2305 0.37891-6.3867 1.2227-9.375 2.5117-1.8281 0.5625-3.3906 1.7578-4.4141 3.375-0.38281 0.75781-0.38281 1.875 0.54297 4.2461l0.32812 0.54297 0.75781 1.1992c0.27344 0.48828 0.38281 0.54297 0.54297 0.60156h0.003906c0.12109 0.070312 0.23438 0.16406 0.32813 0.27344 0.054687 0.21484 0.60156 0.48828 1.0391 0.81641 0.42578 0.36719 0.92578 0.64453 1.4609 0.8125 2.2695 1.0938 4.7344 1.7305 7.25 1.875 4.9648 0.42969 9.9648 0.078124 14.82-1.0391 8.7109-1.7422 12.91-5.0078 14.438-4.0312 0.70312 0.44141 0.54297 2.457-1.3672 4.9023-2.6875 3.332-6.1211 5.9805-10.023 7.7344-4.4453 2.1094-9.2148 3.4531-14.109 3.9766 4.0625 4.8438 8.9766 8.9062 14.492 11.988 9.2344 4.6836 17.883 10.445 25.766 17.156 5.7734-4.6328 11.664-12.75 18.355-17.867-6.25-3.1055-11.719-7.5703-16.012-13.07-1.5742-2.0078-2.7383-4.3047-3.4336-6.7578-0.27344-1.6875-0.16016-2.8125 0.44141-3.0469s1.5195 0.21484 2.7188 1.3594c1.2578 0.98438 2.9453 2.3438 5.0156 3.9766 5.543 4.2617 11.578 7.8477 17.973 10.676 1.8828 0.83203 3.8125 1.5586 5.7734 2.1836h0.44141c7.1328 0.58984 17.914 2.0156 21.945-5.7734 4.0625-8.9961 4.2188-19.27 0.44141-28.387-0.82422-1.8906-0.74219-4.0547 0.21484-5.8789 0.57813-1.418 1.0508-2.875 1.418-4.3594 0.054688-0.32812 0.11328-0.87109 0.16016-1.2578-0.42969-0.57422-0.77734-1.2031-1.0312-1.875-0.72656 0.058594-1.4531 0.058594-2.1758 0-2.293-0.16406-4.5273-0.80078-6.5625-1.875-3.75-1.9609-4.4727-3.9766-4.0859-5.1172 0.38281-1.1445 3.1602-0.9375 5.8203-1.1445 3.2344 0.16016 6.4648-0.4375 9.4297-1.7422 1.1406-0.61328 2.0742-1.5508 2.6836-2.6914zm-9.8086 193.91c6.6797-18.414 10.324-37.789 10.793-57.367-5.0703-0.42969-10.191-1.0312-15.254-1.9609-1.2539-0.21484-2.4297-0.73828-3.4336-1.5156-1.3555 0.089844-2.7188-0.13672-3.9727-0.65625-21.469-9.1484-45.273-23.484-68.914-10.895h-0.003907c-7.4062 3.6016-14.508 7.7969-21.242 12.543-9.4766 7.1914-32.137 29.523-15.195 43.305 8.4492 5.8008 18.578 8.6523 28.816 8.1172-2.0547-1.3125-4.0078-2.7852-5.832-4.4062-0.87109-0.78125-1.6875-1.6211-2.4453-2.5117-0.82422-1.0859-1.6406-2.1758-2.3984-3.2617-1.25-2.0938-2.1992-4.3477-2.8125-6.7031-0.93359-3.7227-1.1758-7.582-0.71484-11.391 0.71094-6.0938 1.9609-9.6367 3.2148-9.6367 1.2578 0 2.3438 3.75 3.2734 9.375v-0.003907c0.47266 3.0664 1.2383 6.0742 2.2891 8.9922 0.59766 1.5352 1.3633 2.9961 2.2852 4.3594 0.53516 0.58984 1.0273 1.2148 1.4727 1.875 0.69922 0.78906 1.4453 1.5312 2.2305 2.2305 5.3594 4.4492 11.109 8.4102 17.176 11.832 23.766 1.3594 47.137 4.6797 70.668 7.6797zm-17.914-117.98c-0.18359 0.023438-0.36719 0.0625-0.54297 0.11328-7.1914 5.3359-12.965 12.188-19.688 17.973 2.2305 2.5039 4.4727 5.2891 6.7031 8.1758v-0.003907c6.0117-7.8906 10.594-16.777 13.527-26.258zm-71.09 31.434c11.641-5.3398 24.57-7.2305 37.254-5.4453-3.8281-5.2109-8.5977-9.6641-14.062-13.125-7.293-4.1914-14.926-7.5-22.059-11.867-11.383-7.0859-16.875-24.898-31.922-25.172v-0.003907c-1.2461 0.015626-2.4727-0.26562-3.5898-0.8125-1.5-0.29687-2.8945-0.99609-4.0312-2.0156-4.0977-3.6367-7.8633-7.6289-11.25-11.938-1.6367 1.8516-3.0781 3.8594-4.3047 6-2.5586 4.3516-4.5742 8.9336-7.5 14.383-1.5273 2.5039-3.1133 4.9023-4.6328 7.2383h0.003906c1.4727 3.2539 2.7812 6.5859 3.918 9.9727 1.5859 5.2305 3 9.8047 4.1992 13.668 2.3359 7.5 4.5195 11.766 3.5352 12.535-0.70312 0.64844-4.8477-2.7266-8.9336-10.191-2.8125-4.7891-5.1758-11.438-8.3906-18.086-2.8867 3.75-5.8789 7.4062-9.0391 10.836-1.9609 1.875-3.918 3.8164-5.9336 5.625 0.16016 0.42969 0.32031 0.75781 0.48828 1.2461l0.48828 1.7422 0.21484 1.1992c0.11328 0.81641 0.16797 1.6328 0.22656 2.457 0.16016 3.1602 0.32031 6.0938 0.42969 8.7656-0.054688 10.461-1.5273 16.727-2.6719 16.781-1.4141 0.10156-2.2305-6.4297-3.8047-16.398-0.44141-2.3984-0.9375-5.0703-1.4727-7.9023-0.16797-0.70312-0.27344-1.4141-0.38281-2.1172l-0.16016-0.55469-0.003906 0.007813c-4.2266 2.8242-8.8555 4.9961-13.734 6.4336-8.7266 2.332-17.715 3.543-26.746 3.5977l-10.68 0.58984 1.2578-4.4062c-1.1992 0.32813-2.5039 0.70313-3.75 1.0859s-2.5586 0.81641-3.8164 1.1992l-2.0156 0.60156-0.9375 0.32812-1.6406 0.42969v0.003906c-4.2812 1.332-8.707 2.1367-13.18 2.3984-2.7266 0.09375-5.4531-0.14453-8.1211-0.71094l-0.70312 1.4727c-2.3516 4.3672-5.2852 8.3984-8.7188 11.98-1.3594 1.6406-2.6172 3.168-3.6484 4.6875h0.003906c-1.0352 1.4492-1.875 3.0234-2.5039 4.6875-2.0781 6.1914-3.0312 12.703-2.8125 19.227 0.125 4.418 0.67188 8.8125 1.6406 13.125 0.9375 3.0547 1.5742 4.9023 1.0312 5.1758-0.54297 0.27344-1.9609-0.81641-3.8711-3.7031-2.4414-4.3477-4.0312-9.1211-4.6875-14.062-0.51562-3.4102-0.73828-6.8633-0.65625-10.312 0.054688-4.1523 0.68359-8.2734 1.875-12.254 0.73047-2.2266 1.7148-4.3672 2.9336-6.375 1.2383-1.9766 2.582-3.8867 4.0312-5.7188l3.0547-3.8711c-1.0859 0.39062-2.1445 0.86328-3.1562 1.418-4.4336 2.6289-8.6602 5.5977-12.641 8.875l-1.6406 1.2578c-0.10156 0.054687-0.87109 0.70312-1.3047 1.0312h0.003906c-0.91797 0.73047-1.7734 1.5312-2.5586 2.3984-1.5117 1.4961-2.8477 3.1602-3.9766 4.9609-4.0352 6.8828-6.5273 14.559-7.3047 22.5-0.074219 7.8672-1.0195 15.703-2.8125 23.363-1.0977 0.11328-3.75-8.7109-3.75-23.859-0.023438-9.2148 2.2305-18.289 6.5625-26.418 1.3906-2.4766 3.0938-4.7656 5.0625-6.8086 0.89844-1.043 1.8828-2.0117 2.9453-2.8867 0.60156-0.48828 0.75781-0.71094 1.6875-1.4141l1.4727-1.1992v-0.003906c0.10938-0.039063 0.20312-0.11719 0.26953-0.21484-19.094 1.7148-38.094 4.3867-56.922 8.0078-9.3047 2.4922-18.102 6.582-26.008 12.082-0.019531 0.33594-0.074219 0.66406-0.16016 0.98437-9.1562 28.539-11.34 58.852-6.375 88.406 3.3281 18.414 4.3594 37.211 7.7344 55.621v0.003906c2.8477 22.406 15.004 42.578 33.488 55.562 23.746 17.43 47.289-6.6484 65.043-20.211 10.734-8.1758 21.898-15.254 32.812-22.828-5.1758 1.3672-10.461 2.8125-16.238 4.9023-15.332 5.4922-31.625 7.7734-47.875 6.7031-5.2031-0.41406-10.215-2.1562-14.551-5.0625-1.1523-0.77344-2.1172-1.7969-2.8125-3-0.48828-0.81641-0.65625-1.3594-0.42969-1.5742 0.22656-0.21484 0.75781-0.16797 1.6328 0.16016h-0.003906c1.1406 0.55469 2.3242 1.0078 3.543 1.3594 4.2188 1.2539 8.6133 1.8086 13.012 1.6406 15.207-0.94922 30.219-3.9531 44.617-8.9336 8.3203-2.8867 16.867-5.082 25.547-6.5625 3.543-0.64844 6.8164-1.3047 9.9766-1.9609 0.027343-0.027344 0.0625-0.046875 0.10156-0.054687 13.109-10.855 27.047-20.672 41.68-29.363 29.305-17.371 89.664-15.414 107.91-46.574-4.3047-0.42969-8.6055-0.9375-12.797-1.6328-1.1992 0.54297-2.5039 1.1992-3.9297 1.9609h0.003906c-2.543 1.4102-5.1602 2.6836-7.8398 3.8125-1.5 0.66016-3.0469 1.207-4.6289 1.6328l-1.1445 0.32812c-0.5 0.14844-1.0117 0.25781-1.5273 0.32812-0.9375 0.16797-1.875 0.27344-2.8867 0.44141-7.7812 0.22656-15.551-0.72266-23.047-2.8125-7.0781-1.7422-14.867-2.7188-21.562-4.7891v-0.003907c-6.1367-1.6758-11.953-4.3633-17.211-7.9492-2.0469-1.4258-3.9336-3.0703-5.625-4.9023-1.3438-1.2461-2.5-2.6797-3.4297-4.2578-1.5273-2.5039-2.1836-4.0781-1.6953-4.5195 1.0391-1.0312 5.7266 3.918 14.062 8.0625l-0.003906 0.003906c5.0742 2.4414 10.426 4.25 15.938 5.3906 6.375 1.4727 13.508 2.0703 21.562 4.0312 6.668 1.8516 13.52 2.9453 20.43 3.2695l1.9961-0.12109h0.87109l1.1992-0.27344c1.5742-0.32813 3.1016-0.65625 4.3047-1.0391 0.87109-0.27344 1.8008-0.60156 2.7188-0.87109-22.273-5.7188-37.742-17.758-28.211-44.945 8.9531-21.152 26.172-37.719 47.656-45.852zm29.793-180.75c1.8359-1.1406 3.582-2.418 5.2305-3.8164-6.5117-2.7266-13.598-3.793-20.625-3.1016-16.875 2.2305-37.809 3.2734-47.812 18.91 2.4844-0.83594 5.0352-1.4648 7.6211-1.875 9.2617-1.3594 15 0.38281 14.879 1.5273-0.054688 1.3594-5.4453 2.0156-13.352 4.7891-4.2734 1.4609-8.3398 3.4766-12.094 5.9922 2.3008 0.93359 4.3125 2.457 5.832 4.4141 4.8477 6.2617 5.8789 10.508 5.1172 11.109-0.98438 0.81641-4.1914-2.7188-9.2617-6.8633v0.003907c-1.0547-0.94531-2.3242-1.6211-3.7031-1.9609-0.48828 0-0.54297 0-0.75781 0.21484-0.44141 0.38281-0.82422 0.82422-1.1445 1.3125-1.9805 3.4453-3.5156 7.1211-4.5742 10.949 3.832 6.9258 8.5586 13.316 14.062 19.004 2.0586 1.9805 4.3633 3.6875 6.8633 5.0742 1.875 0.9375 3.1602 1.6328 2.9922 2.2305-0.16797 0.60156-1.3047 1.0312-3.7031 0.98438h-0.003906c-3.5039-0.27344-6.8789-1.4414-9.8047-3.3867-5.3711-3.5859-10.043-8.1289-13.781-13.395-0.13672 8.9062 2.2266 17.676 6.8164 25.312 4.6875 6.5625 10.781 7.6211 10.508 9.0938-0.11328 0.60156-1.6328 0.9375-4.5195 0.81641-4.1211-0.71094-7.9258-2.6758-10.891-5.625-1.0234-1.0352-1.9648-2.1484-2.8125-3.3281 2.9922 11.676 9.7305 22.047 19.18 29.531-0.066406-0.30859-0.10156-0.625-0.11328-0.9375l-0.054688-2.1172c0.11328-0.76953 0.27344-1.4727 0.44141-2.2422 0.28906-1.4766 0.86328-2.8789 1.6875-4.1367 2.5898-4.0391 6.6055-6.957 11.25-8.1758 11.164-3.543 26.305 3.6016 29.25-11.109 3.4297-17.324-17.156-15.938-21.945-30.121h-0.003906c-0.67969-1.9648-1.0508-4.0234-1.0977-6.1016-0.09375-1.0742-0.054687-2.1523 0.11328-3.2148 1.3047-5.7734 9.918-3.2148 11.336-8.9922 1.1914-4.8477-3.0547-9.6367-2.7266-14.711h-0.003907c0.28906-4.9531 3.2539-9.3594 7.7344-11.492 2.3945-1.3047 5.0234-2.1172 7.7344-2.3906 4.5273-0.49609 7.7344-0.22656 10.312-0.49609 1.1055-0.046875 2.2031-0.21094 3.2734-0.48828 0.89844-0.26562 1.7578-0.65625 2.5508-1.1523zm-4.5742 499.21c35.898-15 34.152-48.918 2.5586-66.73-19.965-10.66-40.883-19.418-62.484-26.156-34.098-11.711-68.035-25.762-100.83-40.848-3.5898 2.6055-7.2461 5.2227-10.895 7.8359-1.3125 21.355 0.70312 41.352-12.535 60.086-8.9336 12.031-19.102 23.098-30.336 33.02 34.426 7.5664 68.258 9.6953 101.32 23.691 30.234 12.84 81.543 22.422 113.2 9.1367zm-67.707 18.449-5.0156-0.65625c-19.375-2.6133-38.273-8.0078-56.109-16.012-22.5-9.6484-46.789-9.9766-70.648-14.164 2.9922 10.238 12.742 10.508 22.715 17.156 10.621 7.1328 20.625 15.742 31.809 21.898 15.195 8.3906 67.762 17.27 77.25-8.2227zm-13.293-496.54c1.3047-3.1562 2.7227-6.3164 4.2461-9.4766-1.3477-0.76562-2.8672-1.1797-4.418-1.1992-3.5273-0.039062-7.043 0.39844-10.453 1.3008-7.3984 2.1758-14.445 5.4062-20.922 9.5938-2.8672 1.7305-5.5 3.8164-7.8398 6.2148-2.1797 2.7031-4.1133 5.6016-5.7734 8.6523-3.4297 6.2734-6.1016 13.352-9.207 20.484-2.9492 7.4883-6.8711 14.559-11.664 21.027-2.5078 3.3047-5.3984 6.3047-8.6055 8.9336-3.1602 2.2773-6.4492 4.3711-9.8516 6.2656-7.1602 3.7188-14.703 6.6406-22.5 8.7188 1.0312 0.9375 2.1172 1.875 3.3203 2.8125l2.0703 1.8008c0.27344 0.27344 0.87109 0.60156 0.87109 0.81641l-1.1992 0.71094-4.6328 2.7188c-3.1016 1.7422-6.1484 3.543-9.1484 5.2891-1.5273 0.87109-3 1.7422-4.5195 2.4453l-4.2461 1.4727c-2.0156 0.65625-4.0859 1.4727-6.0469 1.875-1.9609 0.40234-3.9297 0.71094-5.832 1.0391l-1.4141 0.27344h-0.16797c-0.10156 0-0.54297 0.054687-0.54297 0.054687l-0.9375 0.054688h-0.48828c0.054687 0.10156 0.11328 0.27344 0.16797 0.375 0.13672 0.56641 0.375 1.1016 0.70312 1.5859 0.71094 0.81641 1.4141 1.5742 2.1289 2.3438h-0.003907c0.91406 0.83984 1.8789 1.6172 2.8906 2.332 0.94531 0.75781 1.9883 1.3906 3.1016 1.875l1.5742 0.87109 1.7422 0.60156h0.003906c8.9922 2.9102 18.598 3.3984 27.844 1.418 3.9648-0.66797 7.8516-1.7461 11.594-3.2188 3.543-1.4141 6.7031-3.1016 9.6953-4.6328v0.003906c8.4336-5.2383 16.367-11.238 23.699-17.926 4.7891-4.2461 7.3047-5.8789 7.9492-5.3359 0.64844 0.54297-0.64844 3.2148-4.4062 8.6055v0.003907c-6.2383 8.5977-13.789 16.16-22.375 22.414-1.7422 1.0859-3.543 2.2305-5.5039 3.375-3.0547 2.8867-6.918 6.4766-11.934 11.164-1.875 1.6875-3.918 3.4883-6.1016 5.4453-2.1836 1.9609-4.6211 3.8164-7.1914 5.9336l-0.003906 0.003906c-1.2656 1.2305-2.6719 2.3086-4.1875 3.2148-1.2578 0.21484 0.98437 0.81641 1.875 0.87109 0.96875 0.14453 1.9609 0.050782 2.8867-0.26953 0.375-0.16016 0.70312-0.32812 1.0312-0.42969 2.2305-0.82422 4.4609-1.5859 6.8047-2.457 6.0625-2.2891 12.441-3.6289 18.91-3.9766l1.4609 5.1172c6.6055-0.27734 13.156-1.3398 19.512-3.1562 3.5586-1.0977 6.9219-2.7539 9.9648-4.9062 3.3086-2.5781 6.4219-5.3984 9.3203-8.4375 6.2969-7.1641 11.945-14.875 16.875-23.043 2.0703-3.9297 4.4609-9.375 7.5-14.605 1.6875-2.8672 3.6016-5.5977 5.7188-8.1641 1.1055-1.2891 2.3281-2.4727 3.6445-3.5469-5.3711-10.977-7.8086-23.152-7.0781-35.352-3.2891 1.5586-6.1758 3.8516-8.4375 6.7031-2.3984 2.8867-7.2461 9.375-6.75 13.508 1.1445-0.38281 3.8047-2.2305 5.0078-1.4727 3.2734 1.9609-0.27344 11.879-1.0859 14.383-0.54297 1.7422-1.3594 3.3203-2.0156 4.9023h-0.003907c-1.2578 3.043-2.6953 6.0078-4.3008 8.8789-1.3672 2.6523-2.8945 5.2148-4.5742 7.6797-4.8438 7.5625-10.711 14.418-17.438 20.371-2.6641 2.0703-4.9492 3.8164-6.8633 5.2891-2.0156 1.3125-3.75 2.2305-5.0625 2.9453-2.6719 1.4141-3.9766 1.8008-4.2461 1.3594-0.27344-0.44141 0.54297-1.5273 2.6641-3.543 1.0977-1.0312 2.5117-2.2891 4.1992-3.8047 1.6875-1.5195 3.543-3.6016 5.832-5.8867l-0.003906-0.007812c5.7852-6.1875 10.863-13.004 15.141-20.312 1.4688-2.375 2.7969-4.832 3.9766-7.3594 1.4414-2.7422 2.6953-5.582 3.75-8.4961 0.68359-1.4883 1.2852-3.0156 1.8008-4.5742 0.27344-0.81641 0.54297-1.6328 0.75781-2.457l0.32812-0.9375c0.054688-0.21484 0-0.21484-0.11328-0.21484s-2.1172-0.65625-2.1172-0.65625c-1.8008-0.49609-3.6562-1.0391-5.5039-1.5859 0.32812-1.4727 0.65625-2.9922 0.9375-4.4609 0.22656-0.76953 0.32812-1.4727 0.60156-2.2891l0.55469-1.8008-0.003906 0.003906c0.54297-1.7227 1.2148-3.3984 2.0156-5.0156 1.5703-3.4531 3.6016-6.6758 6.0391-9.582 2.6172-3.2852 5.8359-6.043 9.4883-8.1211 1.9961-1.0938 4.1406-1.8984 6.3633-2.3984 1.25-7.8789 3.2734-15.613 6.0469-23.09-2.5938-0.35156-5.2266-0.26172-7.7891 0.26953-4.0742 0.95703-7.8164 2.9883-10.84 5.8789-5.4961 5.6211-9.7617 12.328-12.523 19.688-3.5664 11.672-8.793 22.773-15.523 32.953-3.8789 5.4883-8.9922 9.9844-14.926 13.125-3.75 1.6875-5.5039 2.1172-5.7266 1.6328-0.22656-0.48828 0.9375-1.875 3.9297-4.3047h-0.003906c4.7109-3.8789 8.7383-8.5195 11.926-13.723 0.60156-0.9375 1.1445-1.875 1.8008-2.8125 0.48828-1.0312 1.0312-2.1172 1.5859-3.2617l-0.003906-0.003906c1.2227-2.3906 2.3086-4.8477 3.2617-7.3594 2.1836-5.4453 4.0312-11.598 6.6484-19.004v0.003906c2.9609-8.5898 7.7969-16.41 14.156-22.895 4.0234-3.9141 9.0312-6.6641 14.492-7.9609 4.1641-0.86719 8.457-0.92188 12.641-0.16016zm-107.53 363.75-2.1289 1.4727c-1.4727 0.9375-3 1.9609-4.4609 3.0547 0 0.48828 0.046875 0.9375 0 1.5742l-0.003907 0.003906c-0.53516 8.293-2.9375 16.355-7.0312 23.586-3.8008 7.0664-8.4883 13.621-13.949 19.5-4.2461 4.4727-7.3516 6.7031-8.3828 5.9453-1.0312-0.75781 0.27344-4.4141 3.0469-9.7031 2.7734-5.2891 7.0312-12.309 11.164-20.043h0.003906c2.4961-4.707 4.7344-9.5469 6.7031-14.496-1.1992 0.98438-2.457 1.9688-3.75 2.9453-3.0039 6.1836-6.5781 12.074-10.68 17.598-5.8047 7.5703-12.797 14.152-20.699 19.5-6.1016 3.7031-10.312 5.1758-11.008 4.1992-0.69531-0.97656 2.1289-4.4727 7.0781-9.375 3.4883-3.75 8.0156-8.5508 12.75-14.211l0.003906-0.003907c-7.4805 5.5664-15.84 9.8398-24.734 12.641-37.855 10.781-71.523-32.578-77.738-66.188-5.0625-27.617-8.1094-55.621-12.684-83.297-2.2812-18.129-0.875-36.527 4.1367-54.094-18.516 20.867-29.691 48.648-21.301 73.707 4.5273 13.621 11.879 23.043 9.8633 37.914v-0.003906c-3.582 24.043 2.7734 48.508 17.598 67.773 12.523 17.598 32.523 42.93 54.91 47.992 15.355 3.4297 30.836 5.625 46.133 9.1484 13.387-10.609 25.285-22.977 35.363-36.77 6.9336-12.301 10.324-26.285 9.7969-40.398zm-180.64-43.984c2.5586-18.75-6.1016-22.547-8.7734-37.367v-0.003906c-1.0312-6.1523-1.4844-12.391-1.3594-18.629-2.8125-0.71094-5.5586-1.4727-8.2773-2.2305-5.6836 24.203-9.9219 48.719-12.695 73.426 10.027 3.25 20.328 5.5859 30.777 6.9766-0.84375-7.375-0.73047-14.828 0.32813-22.172zm-46.742 10.133c2.75-24.414 6.9336-48.641 12.535-72.562-13.664-3.9609-28.059-4.707-42.059-2.1758-15.797 3.2617-30.723 9.1484-46.414 12.797-2.7188 0.60156-5.3906 1.1445-8.0625 1.6875-6.75 14.438 1.0391 31.602 6.918 45 0.38281 0.84766 0.625 1.75 0.71484 2.6719 9.0625-0.28516 18.141-0.10547 27.188 0.54297 16.812 2.0469 33.32 6.0859 49.18 12.039zm-104.86-11.008c3.8633-0.27344 7.7344-0.54297 11.598-0.75781-7.2148-13.949-10.188-29.707-8.5508-45.328-3.375 0.49609-6.75 0.98438-10.133 1.4141-0.54297 13.895-2.8125 31.105 5.832 42.281h-0.003907c0.55859 0.71875 0.98438 1.5273 1.2578 2.3906zm-18.355 1.1445c-6.8164-12.852-5.5586-29.578-5.0703-44.062-9.0938 0.87109-18.141 1.5859-27.348 2.2422 0.16797 0.375 0.44141 0.70312 0.60156 1.0859 5.3906 12.75-1.6875 28.434-10.133 40.145h-0.003907c13.945 1.2891 27.973 1.4844 41.953 0.58984zm-56.336-9.0938c5.2891-8.1758 17.223-24.629 3.75-31.164v0.003907c-5.6836-2.6016-11.797-4.1328-18.035-4.5195 1.7617 3.2188 2.8711 6.7539 3.2695 10.406 1.0117 14.594-4.8281 28.828-15.797 38.512 5.2617 0.52734 10.562-0.43359 15.305-2.7734 4.7422-2.3438 8.7266-5.9688 11.508-10.465zm-27.723-15.309c5.5508-26.746-33.395-20.102-47.617-16.18h0.003906c-6.793 3.5625-14.395 5.3086-22.059 5.0703-9.4766-1.1992-10.312 13.566-10.078 20.156 0.16797 3.4766 3.75 42.273 17.156 33.664 5.0703-3.2148 9.7031-7.0859 14.82-10.191v0.003907c5.4453-3.0352 11.246-5.375 17.27-6.9766-6.2305-1.6953-12.621-2.7148-19.07-3.0469-2.8359-0.074219-5.6562 0.44922-8.2773 1.5273-1.9609 0.75781-3.3203 1.7344-3.75 1.1445-0.32812-0.38281-0.32812-1.7422 1.4141-3.8711 2.6289-2.8203 6.125-4.6797 9.9297-5.2891 11.105-0.82422 22.273 0.058593 33.113 2.6172 1.1992 0.16797 2.457 0.27344 3.6016 0.32812h-0.003906c7.1953-3.8945 12.195-10.887 13.547-18.957z"/>
 <path d="m1012.2 310.86c4.3594 11.652 9.8047 24.461 6.4297 37.152h0.003906c-6.5664 23.32-21.527 43.383-42 56.328-25.93 15.355-45.047 16.875-74.352 9.5352-25.828-6.4883-36.824-21.562-47.129-45.328-17.965-41.355-14.488-93.039 30.289-115.21 33.836-16.781 88.125-18.629 111.4 17.598 6.7031 12.645 11.859 26.051 15.355 39.926zm-10.078 23.531c-0.40625-3.6641-1.2461-7.2656-2.5039-10.734-0.54297-1.4727-1.0859-2.9922-1.5742-4.5195-9.3438 11.164-20.574 20.605-33.176 27.891-0.71484 0.59375-1.5273 1.0508-2.4023 1.3594-26.934 14.082-56.355 22.777-86.613 25.605 2.2539 3.6406 4.9023 7.0195 7.9023 10.078 0.75391-0.125 1.5234-0.14453 2.2852-0.058594 16.875 1.875 40.855-10.238 57.039-15.086v0.003906c22.398-6.0625 42.781-17.984 59.043-34.539zm-10.125-34.387c0-0.11328 0.16016-0.16797 0.21484-0.27344-2.8555-12.711-10.504-23.832-21.355-31.047-13.316-7.8281-28.637-11.582-44.062-10.793 22.66 13.594 41.484 32.738 54.695 55.621 3.918-4.1641 7.4336-8.6875 10.508-13.508zm-5.5039 74.68c3.7812-4.1172 7.0547-8.6719 9.75-13.562-3.7109 2.7969-7.5664 5.3945-11.547 7.7891 0.72656 1.8711 1.3281 3.7852 1.7969 5.7383zm-18.055 15.547c1.4141-1.0312 2.8867-2.0703 4.3047-3.1016v-0.003906c-0.59766-3.6094-1.4375-7.1797-2.5156-10.676-5.0703 2.2578-10.25 4.2578-15.523 5.9883 0.87109 4.4141 1.5859 8.9336 2.1289 13.398 4-1.582 7.8789-3.457 11.605-5.6055zm-6.4297-60.355c2.457-1.6406 4.8477-3.375 7.1914-5.1172-14.867-25.828-37.586-50.391-66.242-60l-0.003906-0.003906c-0.69531-0.23828-1.3555-0.57031-1.9609-0.98438-2.4961 1.0781-4.9336 2.3008-7.293 3.6562-2.6133 1.5742-5.0664 3.2109-7.3594 4.9023 31.406 10.586 53.637 32.918 75.637 57.543zm-20.973 70.492c-0.54297-4.3594-1.1445-8.6641-1.9609-12.965-10.246 3.5352-21.301 8.2227-32.195 10.949l0.003906-0.003906c11.039 3.4492 22.754 4.1445 34.125 2.0156zm6.4766-62.27c-6.2617-6.9766-12.523-13.727-19.117-19.988l0.003907-0.003907c-19.227 13.418-42.273 20.258-65.703 19.5 1.3281 7.3438 3.3945 14.531 6.1602 21.461 0.95703-0.52734 2.0156-0.84766 3.1055-0.9375 26.145-2.25 51.699-9.0312 75.523-20.035zm-86.117-16.781v-0.003906c19.168 1.0039 38.18-3.9023 54.469-14.062-12.488-10.258-27.062-17.676-42.703-21.738-7.6016 10.395-11.727 22.922-11.793 35.801z"/>
 <path d="m615 731.25c0.44141 0.9375-7.2461 7.1328-22.172 13.949-19.594 8.6719-40.906 12.75-62.316 11.926-11.793-0.66016-23.449-2.8398-34.688-6.4766-2.5117-0.9375-5.0156-1.875-7.4141-2.7266-2.3984-0.85156-4.6211-2.0703-6.8047-3.0469l-0.003907-0.003906c-4.0469-1.8594-7.9766-3.9688-11.766-6.3164-13.895-8.5586-20.758-16.07-20.102-16.875 0.9375-1.1992 9.0938 4.3594 23.148 11.117 3.6016 1.5742 7.3594 3.5352 11.719 5.0078 2.1172 0.81641 4.3047 1.7422 6.5625 2.5039 2.2578 0.75781 4.6875 1.4258 7.1328 2.1836h0.003906c10.648 2.9766 21.594 4.7852 32.633 5.3906 20.215 0.64844 40.383-2.3398 59.543-8.8242 14.746-4.7695 23.953-9.1289 24.523-7.8086z"/>
 <path d="m553.74 706.77c-0.046876 0.60156-1.3047 1.1992-3.6484 1.6406h0.003906c-1.4688 0.28516-2.9766 0.33984-4.4648 0.15625-2.0469-0.078124-4.0781-0.40625-6.0469-0.98437-10.863-3.2891-20.746-9.2188-28.762-17.258-8.0742-7.5898-14.914-16.398-20.27-26.102-4.0312-7.5-5.1172-12.797-4.0312-13.293 2.1836-1.0312 12.805 15.938 30.617 32.691h0.003906c7.2617 7.1562 15.562 13.18 24.617 17.867 6.4883 3.3203 11.98 3.8633 11.98 5.2812z"/>
 <path d="m482.49 710.75c4.5195 5.8867 8.2773 8.832 7.6797 10.078-0.42969 1.0977-5.8789-0.046875-12.309-5.4922-7.9922-7.2383-14.344-16.098-18.629-25.988-4.5586-9.6445-7.3438-20.031-8.2227-30.664-0.49609-8.4375 1.1914-13.238 2.3906-13.191 1.3672 0 2.0156 5.0156 4.0312 12.188 2.6289 9.5508 6.0195 18.879 10.137 27.891 4 8.9336 9.0078 17.383 14.922 25.18z"/>
</svg>
