<?xml version="1.0" encoding="UTF-8"?>
<svg width="1200pt" height="1200pt" version="1.1" viewBox="0 0 1200 1200" xmlns="http://www.w3.org/2000/svg">
 <path d="m1067.8 289.65h-974.04v620.7h50.961v-250h346.14l102.9 0.003906h461.51v250h50.988v-620.7zm-935.58 89.551v518.65h-25.961v-595.7h25.961zm115.39 268.65h-102.88v-77.051h102.88zm0-89.551h-102.88v-77.051h102.88zm0-89.551h-102.88v-77.051h102.88zm0-89.551h-102.88v-77.051h102.88zm115.39 268.65h-102.89v-77.051h102.89zm0-89.551h-102.89v-77.051h102.89zm0-89.551h-102.89v-77.051h102.89zm0-89.551h-102.89v-77.051h102.89zm115.38 268.65h-102.88v-77.051h102.88zm0-89.551h-102.88v-77.051h102.88zm0-89.551h-102.88v-77.051h102.88zm0-89.551h-102.88v-77.051h102.88zm115.39 268.65h-102.89v-77.051h102.89zm0-89.551h-102.89v-77.051h102.89zm0-89.551h-102.89v-77.051h102.89zm0-89.551h-102.89v-77.051h102.89zm115.38 268.65h-102.88v-77.051h102.88zm0-89.551h-102.88v-77.051h102.88zm0-89.551h-102.88v-77.051h102.88zm0-89.551h-102.88v-77.051h102.88zm115.4 268.65h-102.9v-77.051h102.89v77.051zm0-89.551h-102.9v-77.051h102.89v77.051zm0-89.551h-102.9v-77.051h102.89v77.051zm0-89.551h-102.9v-77.051h102.89v77.051zm115.38 268.65h-102.88v-77.051h102.88zm0-89.551h-102.88v-77.051h102.88zm0-89.551h-102.88v-77.051h102.88zm0-89.551h-102.88v-77.051h102.88zm115.39 268.65h-102.88v-77.051h102.88zm0-89.551h-102.88v-77.051h102.88zm0-89.551h-102.88v-77.051h102.88zm0-89.551h-102.88v-77.051h102.88zm38.461 518.65h-25.961v-595.7h25.961z"/>
</svg>
