<?xml version="1.0" encoding="UTF-8"?>
<svg width="1200pt" height="1200pt" version="1.1" viewBox="0 0 1200 1200" xmlns="http://www.w3.org/2000/svg">
 <path d="m924.64 545.61h-4.2617v-341.77h-641.63v341.77h-3.3594l-215.39 450.56h1080zm-42.875-327.78h22.078v16.848h-22.078zm0 21.516h22.078v19.801h-22.078zm0 24.48h22.078v19.801h-22.078zm0 24.48h22.078v19.801h-22.078zm0 24.457h22.078v19.812h-22.078zm0 24.488h22.078v19.812h-22.078zm0 24.469h22.078v19.801h-22.078zm0 24.48h22.078v13.906h-22.078zm-26.676-168.37h21.18v16.848h-21.18zm0 21.516h21.18v19.801h-21.18zm0 24.48h21.18v19.801h-21.18zm0 24.48h21.18v19.801h-21.18zm0 24.457h21.18v19.812h-21.18zm0 24.488h21.18v19.812h-21.18zm0 24.469h21.18v19.801h-21.18zm0 24.48h21.18v13.906h-21.18zm-26.703-168.37h21.18v16.848h-21.18zm0 21.516h21.18v19.801h-21.18zm0 24.48h21.18v19.801h-21.18zm0 24.48h21.18v19.801h-21.18zm0 24.457h21.18v19.812h-21.18zm0 24.488h21.18v19.812h-21.18zm0 24.469h21.18v19.801h-21.18zm0 24.48h21.18v13.906h-21.18zm-26.699-168.37h21.215v16.848h-21.215zm0 21.516h21.215v19.801h-21.215zm0 24.48h21.215v19.801h-21.215zm0 24.48h21.215v19.801h-21.215zm0 24.457h21.215v19.812h-21.215zm0 24.488h21.215v19.812h-21.215zm0 24.469h21.215v19.801h-21.215zm0 24.48h21.215v13.906h-21.215zm-26.699-168.37h21.191v16.848h-21.191zm0 21.516h21.191v19.801h-21.191zm0 24.48h21.191v19.801h-21.191zm0 24.48h21.191v19.801h-21.191zm0 24.457h21.191v19.812h-21.191zm0 24.488h21.191v19.812h-21.191zm0 24.469h21.191v19.801h-21.191zm0 24.48h21.191v13.906h-21.191zm-26.699-168.37h21.191v16.848h-21.191zm0 21.516h21.191v19.801h-21.191zm0 24.48h21.191v19.801h-21.191zm0 24.48h21.191v19.801h-21.191zm0 24.457h21.191v19.812h-21.191zm0 24.488h21.191v19.812h-21.191zm0 24.469h21.191v19.801h-21.191zm0 24.48h21.191v13.906h-21.191zm-26.676-168.37h21.18v16.848h-21.18zm0 21.516h21.18v19.801h-21.18zm0 24.48h21.18v19.801h-21.18zm0 24.48h21.18v19.801h-21.18zm0 24.457h21.18v19.812h-21.18zm0 24.488h21.18v19.812h-21.18zm0 24.469h21.18v19.801h-21.18zm0 24.48h21.18v13.906h-21.18zm-26.715-168.37h21.191v16.848h-21.191zm0 21.516h21.191v19.801h-21.191zm0 24.48h21.191v19.801h-21.191zm0 24.48h21.191v19.801h-21.191zm0 24.457h21.191v19.812h-21.191zm0 24.488h21.191v19.812h-21.191zm0 24.469h21.191v19.801h-21.191zm0 24.48h21.191v13.906h-21.191zm-26.688-168.37h21.191v16.848h-21.191zm0 21.516h21.191v19.801h-21.191zm0 24.48h21.191v19.801h-21.191zm0 24.48h21.191v19.801h-21.191zm0 24.457h21.191v19.812h-21.191zm0 24.488h21.191v19.812h-21.191zm0 24.469h21.191v19.801h-21.191zm0 24.48h21.191v13.906h-21.191zm-26.699-168.37h21.215v16.848h-21.215zm0 21.516h21.215v19.801h-21.215zm0 24.48h21.215v19.801h-21.215zm0 24.48h21.215v19.801h-21.215zm0 24.457h21.215v19.812h-21.215zm0 24.488h21.215v19.812h-21.215zm0 24.469h21.215v19.801h-21.215zm0 24.48h21.215v13.906h-21.215zm-26.699-168.37h21.18v16.848h-21.18zm0 21.516h21.18v19.801h-21.18zm0 24.48h21.18v19.801h-21.18zm0 24.48h21.18v19.801h-21.18zm0 24.457h21.18v19.812h-21.18zm0 24.488h21.18v19.812h-21.18zm0 24.469h21.18v19.801h-21.18zm0 24.48h21.18v13.906h-21.18zm-26.676-168.37h21.168v16.848h-21.168zm0 21.516h21.168v19.801h-21.168zm0 24.48h21.168v19.801h-21.168zm0 24.48h21.168v19.801h-21.168zm0 24.457h21.168v19.812h-21.168zm0 24.488h21.168v19.812h-21.168zm0 24.469h21.168v19.801h-21.168zm0 24.48h21.168v13.906h-21.168zm-26.699-168.37h21.18v16.848h-21.18zm0 21.516h21.18v19.801h-21.18zm0 24.48h21.18v19.801h-21.18zm0 24.48h21.18v19.801h-21.18zm0 24.457h21.18v19.812h-21.18zm0 24.488h21.18v19.812h-21.18zm0 24.469h21.18v19.801h-21.18zm0 24.48h21.18v13.906h-21.18zm-26.703-168.37h21.191v16.848h-21.191zm0 21.516h21.191v19.801h-21.191zm0 24.48h21.191v19.801h-21.191zm0 24.48h21.191v19.801h-21.191zm0 24.457h21.191v19.812h-21.191zm0 24.488h21.191v19.812h-21.191zm0 24.469h21.191v19.801h-21.191zm0 24.48h21.191v13.906h-21.191zm-26.699-168.37h21.203v16.848h-21.203zm0 21.516h21.203v19.801h-21.203zm0 24.48h21.203v19.801h-21.203zm0 24.48h21.203v19.801h-21.203zm0 24.457h21.203v19.812h-21.203zm0 24.488h21.203v19.812h-21.203zm0 24.469h21.203v19.801h-21.203zm0 24.48h21.203v13.906h-21.203zm-26.699-168.37h21.18v16.848h-21.18zm0 21.516h21.18v19.801h-21.18zm0 24.48h21.18v19.801h-21.18zm0 24.48h21.18v19.801h-21.18zm0 24.457h21.18v19.812h-21.18zm0 24.488h21.18v19.812h-21.18zm0 24.469h21.18v19.801h-21.18zm0 24.48h21.18v13.906h-21.18zm-26.676-168.37h21.18v16.848h-21.18zm0 21.516h21.18v19.801h-21.18zm0 24.48h21.18v19.801h-21.18zm0 24.48h21.18v19.801h-21.18zm0 24.457h21.18v19.812h-21.18zm0 24.488h21.18v19.812h-21.18zm0 24.469h21.18v19.801h-21.18zm0 24.48h21.18v13.906h-21.18zm-26.699-168.37h21.18v16.848h-21.18zm0 21.516h21.18v19.801h-21.18zm0 24.48h21.18v19.801h-21.18zm0 24.48h21.18v19.801h-21.18zm0 24.457h21.18v19.812h-21.18zm0 24.488h21.18v19.812h-21.18zm0 24.469h21.18v19.801h-21.18zm0 24.48h21.18v13.906h-21.18zm-26.699-168.37h21.191v16.848h-21.191zm0 21.516h21.191v19.801h-21.191zm0 24.48h21.191v19.801h-21.191zm0 24.48h21.191v19.801h-21.191zm0 24.457h21.191v19.812h-21.191zm0 24.488h21.191v19.812h-21.191zm0 24.469h21.191v19.801h-21.191zm0 24.48h21.191v13.906h-21.191zm-26.703-168.37h21.18v16.848h-21.18zm0 21.516h21.18v19.801h-21.18zm0 24.48h21.18v19.801h-21.18zm0 24.48h21.18v19.801h-21.18zm0 24.457h21.18v19.812h-21.18zm0 24.488h21.18v19.812h-21.18zm0 24.469h21.18v19.801h-21.18zm0 24.48h21.18v13.906h-21.18zm-26.688-168.37h21.168v16.848h-21.168zm0 21.516h21.168v19.801h-21.168zm0 24.48h21.168v19.801h-21.168zm0 24.48h21.168v19.801h-21.168zm0 24.457h21.168v19.812h-21.168zm0 24.488h21.168v19.812h-21.168zm0 24.469h21.168v19.801h-21.168zm0 24.48h21.168v13.906h-21.168zm-26.699-168.37h21.18v16.848h-21.18zm0 21.516h21.18v19.801h-21.18zm0 24.48h21.18v19.801h-21.18zm0 24.48h21.18v19.801h-21.18zm0 24.457h21.18v19.812h-21.18zm0 24.488h21.18v19.812h-21.18zm0 24.469h21.18v19.801h-21.18zm0 24.48h21.18v13.906h-21.18zm-25.871-168.37h20.352v16.848h-20.352zm0 21.516h20.352v19.801h-20.352zm0 24.48h20.352v19.801h-20.352zm0 24.48h20.352v19.801h-20.352zm0 24.457h20.352v19.812h-20.352zm0 24.488h20.352v19.812h-20.352zm0 24.469h20.352v19.801h-20.352zm0 24.48h20.352v13.906h-20.352zm608.54 27.938v131.48h-608.54v-131.48zm-611.16 158.89h614.68l80.23 167.86h-775.15zm-93.359 195.3h801.37l95.82 200.41h-993z"/>
</svg>
