<?xml version="1.0" encoding="UTF-8"?>
<svg width="1200pt" height="1200pt" version="1.1" viewBox="0 0 1200 1200" xmlns="http://www.w3.org/2000/svg">
 <path d="m1044.9 1104.7c10.922 54.496-47.512 57.488-84.871 58.836-23.719 0.88281-39.992-3.0469-53.07-23.383v0.003906c-3.1875-7.4688-2.7891-15.98 1.0781-23.121 7.1914-18.984 22.848-33.824 14.062-56.879-30.508-79.105-83.176-142.83-133.41-209.54-7.3984-9.8242-14.914-19.453-22.781-28.875-13.426-15.938-23.438-33.965-35.625-50.711-3.5508-0.75781-7.0586-1.6953-10.512-2.8125-5.3438 3.3203-11.645 4.7539-17.895 4.0703-27.523-1.8281-46.434 17.289-62.914 37.012-29.277 35.25-56.465 71.391-90.938 101.96l-0.003906 0.003907c-26.496 24.277-54.93 46.359-85.012 66.027 10.379 19.387 21.422 44.336 4.7422 63.18v-0.003907c-0.78125 0.84375-1.6172 1.6367-2.5 2.375-2.3789 4.5859-5.2422 8.9023-8.543 12.879-11.727 14.305-32.203 5.0156-46.875 10.312-19.594 7.1172-35.926 19.051-56.605 23.316-20.73 2.875-41.715 3.4414-62.57 1.6953-18.844-0.46875-50.102-2.9141-47.586-28.602 2.8125-29.223 49.828-52.613 75.383-60.676-0.14063-1.0117-0.33594-1.9688-0.41406-2.9805h0.003906c-2.4688-3.0117-4.4375-6.3984-5.832-10.031-11.383-29.352 3.1875-58.238 19.461-82.914 53.551-81.074 108.94-161 161.95-242.48-0.49609-2.4727 0.15234-5.0391 1.7617-6.9844 11.184-14.57 19.527-24.805 19.527-43.988v0.003907c1.4102-15.238-0.19922-30.605-4.7422-45.219-10.172-29.352-10.988-78.027-36.477-99.93v0.003906c-28.617 38.961-53.602 80.465-74.637 123.99-8.3359 18.367-2.5781 39.516-15.523 56.062-9.1406 12.594-22.059 21.945-36.871 26.699-23.727 6.375-50.504 2.9141-55.789-22.293h-0.003906c-3.5-1.4102-5.4961-5.1211-4.7422-8.8203 0.70703-5.082 1.8164-10.098 3.3164-15-17.223-15-17.559-34.164-5.8984-54.844 7.7266-13.688 19.855-27.188 23.109-42.77 4.0703-19.258 4.4062-38.852 8.0078-58.125 9.1484-48.195 50.625-79.453 47.043-131.45-2.1016-29.559 5.9609-62.363 28.742-82.633h0.003906c-7.4922-10.492-13.781-21.797-18.75-33.695-6.3516-15.531-9.8008-32.102-10.172-48.879-6.0273-15-14.711-28.332-8.6055-45.074 5.1289-12.039 11.133-23.688 17.961-34.848-0.27734-1.4922-0.18359-3.0273 0.27344-4.4727 22.488-83.578 159.63-61.828 164.58 13.492 38.711-6.7773 63.75 30 69.957 65.352 3.4102 0.59375 6.7852 1.3867 10.105 2.3711 18.75 5.832 35.109 22.227 47.812 36.562 16.684 16.879 30.676 36.219 41.484 57.348 10.434 23.438 15.254 48.207 24.273 72 22.434 59.062 38.504 120.66 56.934 180.94 3.75 12.273-0.88281 14.578 13.492 21.488h-0.003906c8.4648 3.5586 15.867 9.2461 21.488 16.508 9.5547 11.793 9.6953 30.094 10.312 44.336 0.15625 2.1445-0.49609 4.2695-1.8281 5.9609 5.8906 29.562 7.2617 59.848 4.0586 89.824 1.1211 2.8477 2.5781 5.5547 4.3398 8.0625 9.6289 12.816 24.816 19.32 34.238 31.996 21.215 28.473 33.348 62.371 46.641 94.836 13.285 32.203 31.453 61.352 43.125 94.367v0.003907c6.0078 19.836 13.543 39.18 22.539 57.852 7.3984 13.555 18.852 23.586 26.785 36.562 15.707 25.863 27 54.164 33.41 83.738zm-20.336 17.625h0.003906c0.67578-5.168 0.8125-10.395 0.41016-15.59-8.7461-4.1328-15.461-7.9297-20.625-9.8359-5.0156-2.1016-9.4219-2.8125-9.2812-4.4062 0.066406-1.2188 3.3203-3.3828 10.773-2.9805 5.9062 0.59375 11.691 2.0781 17.156 4.4062-1.1953-4.875-2.7383-9.6523-4.6133-14.309-1.1719-1.4141-2.5664-2.6289-4.1328-3.5898-5.1484-3.3828-10.098-3.7969-10.172-5.5586-0.19531-0.9375 2.9922-3.1133 8.7461-2.7109-6.0469-11.051-12.746-21.738-20.062-31.996-11.117-10.977-32.203-8.8125-44.605 0.9375 5.8281-1.3047 11.844-1.5352 17.754-0.67578 9.8359 1.3516 15.188 5.4922 14.445 6.7773-0.68359 1.4922-6.0391 0.54297-14.785 1.2852h0.003906c-4.8984 0.38281-9.7383 1.2969-14.438 2.7188-3.5078 1.0703-6.668 3.0586-9.1523 5.7578 0.67578 3.9375 1.2188 7.9297 1.6211 11.867h0.003907c0.19531 0.15234 0.40234 0.28516 0.61719 0.40625 4.418 1.6953 9.0977 2.6094 13.828 2.707 8.7383 0.54297 14.504 0.20703 15 1.8281 0.27344 1.0234-2.3711 2.9141-7.3867 4.5469 2.2969-0.066407 4.5391-0.066407 6.5625 0 11.523 0.67578 18.301 2.3711 18.301 3.9297 0 1.5547-7.0508 2.8125-17.961 4.2109l-0.003906-0.003906c-6.1523 0.6875-12.23 1.9102-18.168 3.6562-3.0273 0.89453-5.8789 2.2891-8.4375 4.1367-1.9062 1.5938-3.0039 3.9531-2.9922 6.4414 0.0625 0.49219 0.085938 0.99219 0.078126 1.4883 4.9414-1.4922 9.7578-3.0469 14.438-4.1992 5.7812-1.5547 11.77-2.2188 17.754-1.9688 3.9922 0.22656 7.918 1.1445 11.598 2.7109 2.5039 1.0859 3.7969 2.0352 3.6562 2.7188-0.14062 0.68359-1.6953 1.1523-4.3398 1.2852v-0.003907c-3.5586 0.089844-7.1094 0.35938-10.641 0.81641-5.1523 0.84766-10.215 2.1875-15.113 3.9961-5.7656 2.1094-12.273 4.8203-19.688 7.2578l-5.2227 1.6953c-0.89062 2.3984-1.6602 4.8438-2.3047 7.3203-3.1133 11.457 42.637 7.7891 47.652 7.3203 9.4961-0.9375 15.938-1.9688 16.406-0.33594 0.41406 1.4258-4.6875 5.082-14.773 8.2695-13.215 4.4141-27.348 5.3281-41.016 2.6445-2.1016-0.67578-4.1328-1.3594-6.168-2.0352l-0.80469-0.27344-0.75-0.40234h-0.003906c-0.14453-0.11719-0.30469-0.20703-0.47656-0.27344l-1.1523-0.75c-0.066407-0.066406-0.19531-0.13281-0.26172-0.20703 1.2852 6.4414 6.5625 10.648 19.387 10.172 18.176-0.69141 69.812 3.4727 73.34-21.203zm-90.785-99.582c11.414-9.5039 25.824-14.668 40.68-14.578-2.6797-4.3867-5.1211-8.9141-7.3242-13.555-13.125-27.656-24.375-55.93-36-84.133-10.715 15.121-28.266 22.172-46.238 28.406 20.375 25.367 36.852 53.629 48.883 83.859zm-15.188-131.79c0.49609-1.5938 1.3828-3.0391 2.5781-4.207-5.2227-12.133-10.574-24.133-16.34-36.055v-0.003906c-0.18359-0.35156-0.33984-0.71484-0.46875-1.0859-16.637 19.625-40.27 31.996-65.879 34.48 10.715 11.793 21.965 24.543 33.02 38.035 18.094-5.9453 40.715-11.371 47.109-31.164zm-24.375-61.152c0.21875-0.35547 0.49609-0.67188 0.81641-0.9375-7.5938-17.691-14.711-35.457-23.523-52.668-0.20703-0.33594-0.33594-0.60938-0.54297-0.9375-4.4844 3.8945-9.4492 7.2031-14.773 9.832-8.9531 4.4062-14.445 6.375-15.328 5.2227-0.88281-1.1523 3.4609-5.832 11.055-11.793h-0.003906c4.25-3.3086 8.2578-6.9102 12-10.781 0.55469-0.62891 1.0742-1.2852 1.5586-1.9688-5.0078-7.6562-10.801-14.766-17.289-21.215v-0.066406c-0.33594-0.34766-0.67578-0.68359-1.0117-1.0859-0.20703 0.18359-0.43359 0.34375-0.67578 0.47656-2.1094 1.4922-4.2109 3.3828-6.168 5.082-3.0977 2.8672-6.4062 5.4961-9.9023 7.8633-2.6445 1.6211-4.3398 1.875-4.8203 1.2852-0.47656-0.58984 0.41406-2.1641 1.875-4.6133h0.003906c2.1211-3.4961 4.4336-6.875 6.918-10.125 1.7773-2.3555 3.7266-4.5742 5.832-6.6445-2.8125-2.6445-5.6914-5.3516-8.6719-8.1289-20.477 21.281-48.195 32.129-73.688 46.023 2.2305 3.1875 4.4727 6.3086 6.6367 9.4961 5.2891-2.4453 10.312-4.4062 14.785-6.2422 3.5898-1.4922 7.1797-3.3828 9.8906-4.4727 3.0547-1.9609 6.168-3.6562 8.4375-5.418 2.2695-1.7617 4.6875-3.1875 6.8438-4.6133 1.8203-1.2539 3.7773-2.3047 5.832-3.125 3.3945-1.3516 5.3516-1.6875 5.6992-1.0117 0.34766 0.67578-0.9375 2.3047-3.3281 4.6133-1.5312 1.3555-2.9766 2.8008-4.332 4.332-1.7617 1.7617-3.75 3.7969-5.9727 6.0391v-0.003907c-2.4844 2.3945-5.1133 4.6328-7.8633 6.7148-3.75 2.3047-6.9766 4.3398-10.848 6.3008-4.0586 2.0352-8.3359 4.0039-12.535 6.1016 3.9297 5.4922 7.9961 10.988 12.066 16.406 6.8867 0.24219 13.777-0.46484 20.473-2.1016 6.3008-1.293 11.25-2.9805 14.711-3.9375 3.5234-1.1445 5.6914-1.6875 6.0938-1.0117s-0.88281 2.4375-3.8633 4.8828v0.003907c-4.4805 3.2461-9.3789 5.8672-14.566 7.7891-4.9492 1.9414-10.086 3.3516-15.328 4.2109 11.664 14.438 22.379 29.551 33.086 44.672h-0.003906c27.898 1.707 54.641-11.375 70.418-34.445zm-75.75-116.73c0.33984-0.36328 0.70312-0.70703 1.0859-1.0234-15.523-35.859-18.918-114.7-66.441-99.516-31.875 10.172-44.465 41.766-54.16 71.316-5.7656 17.43-14.645 49.152 10.508 60.262 2.1016 0.9375 4.1992 1.6953 6.3008 2.4453h0.003906c0.46875-0.16016 0.95703-0.25781 1.4531-0.28906-0.33594-0.67578-0.74219-1.293-1.0117-1.9688-5.2734-12.059-7.7969-25.141-7.3867-38.297 0.26172-9.8984 2.2969-15.863 3.75-15.73 1.4531 0.13281 2.5117 5.9609 4.2734 15.121 1.8867 11.684 5.1406 23.105 9.6953 34.031 0.35938 0.86719 0.78906 1.7031 1.2812 2.5039 1.9805 2.6133 4.3359 4.918 6.9844 6.8438 6.6406 3.8906 14.594 4.8477 21.969 2.6445 0.9375-0.19531 1.7617-0.33594 2.6445-0.53516 21.109-10.559 42.805-20.457 59.051-37.809zm-6.168-87.188c-1.0859-7.1914-2.1641-14.371-3.2539-21.629-30.301-23.727-78.75-27.523-107.99 0.67578-18.57 17.973-34.238 41.832-58.305 53.223-39.375 18.637-91.508 37.285-133.12 17.758-8.4375 13.023-17.082 25.969-25.695 38.914v-0.003906c28.293 0.80469 55.902 8.875 80.176 23.43 24.273 14.559 44.391 35.113 58.426 59.691 0.15625-0.22266 0.33594-0.42578 0.53516-0.60938 0.61719-2.3711 1.2266-4.9492 1.875-7.8008 1.3242-7.8164 1.2305-15.805-0.27344-23.586-0.47656-2.3047-0.9375-4.7422-1.4258-7.2578-0.54297-1.9688-1.2188-4.1992-1.9688-6.3008-1.8242-4.4023-4.3594-8.4766-7.5-12.066-6.4844-7.1875-14.316-13.039-23.051-17.219-7.3438-3.6406-14.988-6.6367-22.848-8.9531-6.7773-2.1641-12.402-3.2539-16.266-4.332-4.0039-0.9375-6.2344-1.7617-6.2344-2.5781s2.3047-1.4258 6.4414-1.875c5.9492-0.38672 11.926-0.089844 17.812 0.87891 8.8047 1.3516 17.398 3.8359 25.566 7.3984 10.418 4.2578 19.734 10.832 27.242 19.219 3.9922 4.5859 7.1367 9.8398 9.2891 15.523 0.94531 2.793 1.6914 5.6484 2.2422 8.543 0.33594 2.4375 0.67578 4.9492 1.0117 7.3203 0.71484 5.6289 0.71484 11.324 0 16.949 1.0859-1.7617 2.2422-3.5234 3.3945-5.4297v0.003906c3.8047-5.543 7.0078-11.473 9.5547-17.691 2.1758-5.4648 2.1758-11.551 0-17.016-2.2266-4.7812-5.2031-9.1719-8.8125-13.012-3.1133-3.6641-5.9609-6.375-7.8672-8.5391-1.9023-2.1641-2.7109-3.75-2.2305-4.3398 0.47656-0.58984 2.1016-0.40234 4.8086 0.67578v-0.003906c3.8867 1.5547 7.5234 3.6797 10.781 6.3086 5.3281 3.8086 9.7305 8.7656 12.883 14.504 3.9375 7.8594 4.3789 17.016 1.2188 25.219-0.20703 0.54297-0.47656 1.0117-0.67578 1.5547 7.8672-6.1289 17.137-10.203 26.973-11.859 1.8477-0.17188 3.707-0.17188 5.5586 0-20.062-19.594-21.422-50.035-6.0938-85.895 16.941-39.789 50.57-96.562 102.56-67.246 10.523 6.957 19.184 16.383 25.219 27.461zm-6.0391-47.664c-5.5586-10.281-14.184-18.57-24.676-23.719-3.168-1.6875-6.1445-3.7109-8.875-6.0391-10.328-3.1445-20.016-8.1016-28.605-14.641-10.016-8.1016-18.301-18.125-24.375-29.484-4.0586-8.6172-5.5508-14.371-4.1992-15.188 1.3516-0.81641 5.4297 3.6562 11.117 11.055v-0.003906c7.4062 8.9375 15.625 17.176 24.547 24.602 4.0273 3.0664 8.2383 5.8828 12.609 8.4375-2.3711-10.031-2.8125-22.641-4.5469-28.332-15.461-49.895-26.645-101.42-45.281-150.43-7.8672-20.672-14.062-40.133-21.289-58.707h-0.003906c-12.227 15.148-29.379 25.535-48.469 29.352 1.293 0.41406 2.5781 0.81641 3.7969 1.2188 8.1406 1.8594 15.879 5.168 22.848 9.7695-0.20703 1.875-10.098 1.0117-24.883-1.9688-7.5-1.3594-16.332-3.1875-26.023-4.7422-4.6914-0.80859-9.4258-1.375-14.176-1.6992-0.60938 0.67578-1.2188 1.3594-1.8281 1.9688 1.4258 0.46875 2.8125 0.9375 4.1992 1.4141v0.003906c2.0078 0.60156 3.9805 1.3281 5.8984 2.1719l0.47656 0.20703c13.555 4.7344 26.539 10.965 38.711 18.574 9.4219 6.5078 12.676 12 12 12.883-0.88281 1.1523-6.2344-2.9141-15.395-6.8516-9.375-4.332-23.184-8.9453-39.656-14.57l-0.46875-0.20703c-2.2422-0.9375-6.7773-2.0352-10.715-3.3828v-0.003906c-1.4492-0.49219-2.875-1.0586-4.2656-1.6953-2.7188 2.3047-5.3633 4.5391-8.1367 6.7109 1.2188 0.60938 2.5039 1.2188 3.75 1.7617 4.6016 2.2969 9.0078 4.4727 13.285 6.5625 8.4375 4.1992 15.938 8.0625 22.305 11.324 12.609 6.5078 20.203 11.316 19.52 12.742-0.68359 1.4258-9.2812-0.67578-22.914-5.418-6.7773-2.2422-14.773-5.3633-23.383-9.1602-4.3398-1.875-8.8867-3.8633-13.566-5.8984-2.9062-1.2852-5.9609-2.7109-9.0078-4.1328-5.0156 3.8633-10.105 7.7266-15 11.727 1.1523 1.4258 2.1641 2.6445 3.1875 3.75l3.9297 4.5391c2.8125 2.8125 5.7656 5.3633 8.2031 7.8008 10.977 9.5547 16.406 16.602 15.461 17.758-1.0859 1.293-8.6172-3.7969-20.41-11.383-2.9805-2.1758-6.3008-4.4062-9.6953-7.1914l-5.0156-4.8086c-1.2852-1.2188-2.5117-2.5117-3.5898-3.6641-1.875 1.6953-3.75 3.3281-5.5586 5.0898h-0.003906c-21.488 21.254-41.125 44.305-58.688 68.906-1.3594 1.875-2.6445 3.75-4.0039 5.5586 33.148 28.68 32.539 81.348 48 119.65 2.9805 7.5 10.434 22.238 7.1172 31.051-0.46875 1.2852-0.9375 2.5703-1.3516 3.75 1.6875-0.74219 3.3203-1.4258 4.9414-2.1016 3.75-1.6953 7.9297-3.0469 11.457-4.4727 3.3555-1.2617 6.5977-2.8047 9.6914-4.6094l2.2422-1.2852c0.28516-0.15625 0.57812-0.29297 0.88281-0.41406l1.0234-0.88281c1.4922-1.0781 2.9062-2.2305 4.332-3.3203 2.8125-2.2305 4.6133-4.4727 6.9844-6.5625 2.1016-2.3711 4.0039-4.8203 5.9609-7.125 1.7617-2.4375 3.4609-4.7422 5.0898-7.0508 12.066-18.75 18.703-31.586 20.336-30.77 0.67578 0.33594-0.13281 3.8633-2.2422 9.9648v0.007812c-3.1211 8.6172-6.8555 17-11.188 25.078-1.5547 2.5117-3.1133 5.1562-4.8086 7.9297-1.875 2.6445-3.7969 5.4297-6.0391 8.2031h0.003907c-2.4336 2.8438-5.0156 5.5586-7.7266 8.1367-1.3594 1.1523-2.8125 2.3047-4.1328 3.5234l-1.0859 0.88281h-0.003906c-0.47266 0.39062-0.96875 0.75-1.4883 1.0781l-2.6445 1.6328c-3.5078 2.1953-7.2031 4.0781-11.043 5.625-3.75 1.6953-7.1914 2.8125-10.988 4.6133-3.7969 1.8008-7.7266 3.3828-10.781 5.1484v-0.003906c-0.44922 0.26172-0.87891 0.55859-1.2852 0.88281 0.003906 1.293 0.070312 2.5859 0.20703 3.8711 0.50391 0.62109 1.0469 1.207 1.6211 1.7617l1.0859 1.1445c-0.27344-0.13281 0.54297 0.41406 0.74219 0.54297 0.64453 0.53906 1.3242 1.0391 2.0352 1.4922 2.75 1.7031 5.9219 2.5977 9.1602 2.5781 3.4492 0.14062 7.7266-0.13281 11.523-0.33594 3.7969-0.20703 7.7266-0.33594 11.391-0.75l-0.003906-0.003907c12.996-0.81641 25.848-3.1562 38.297-6.9727 4.6641-1.6133 9.2539-3.4258 13.762-5.4297 3.75-2.1016 7.2578-3.4609 9.8984-5.2891 5.3516-3.5898 8.5391-5.2891 9.0078-4.6875 0.46875 0.60156-1.6875 3.4609-6.168 8.0703l0.003906 0.003906c-2.9688 2.7617-6.1641 5.2695-9.5547 7.5-2.0859 1.3867-4.2578 2.6367-6.5039 3.75-2.4844 1.3633-5.0391 2.5898-7.6602 3.6641-12.797 5.1875-26.266 8.5156-40.004 9.8906-3.7969 0.54297-7.7266 0.75-11.727 1.1523v0.003906c-4.2109 0.44922-8.4414 0.67578-12.676 0.67188-5.1641-0.035157-10.223-1.4609-14.645-4.1328-0.34375-0.14453-0.66406-0.35156-0.9375-0.60938-3.8984 7.7734-9.0664 14.84-15.301 20.906 33.555 13.414 82.641-0.27344 112.27-17.559 25.555-14.914 39.375-41.148 63.375-57.617v-0.003907c16.203-10.812 35.059-16.973 54.52-17.809 19.461-0.83594 38.777 3.6875 55.844 13.074zm-125.86-305.39c0.066406-1.1133 0.29297-2.207 0.67578-3.2539-8.3438-16.906-19.078-32.523-31.875-46.367-16.211-17.484-31.051-30.367-51.797-33.695-1.2148 0.87891-2.6406 1.4219-4.1328 1.5664-45.148 6.5078-65.418 85.07-79.922 121.55-7.0508 17.625-22.641 29.062-36.273 41.148-16.027 15.273-31.012 31.605-44.859 48.879-30 34.977-30.77 85.078-53.953 123.75-20.539 34.434-63.863 72.742-71.184 112.94 1.5352 1.3945 2.582 3.25 2.9805 5.2891 4.7383-4.4102 9.0117-9.2969 12.75-14.578 2.4297-3.918 4.3438-8.1367 5.6914-12.547 1.0234-3.4492 1.9688-5.2891 2.8125-5.2109 0.84375 0.074219 1.3516 2.1016 1.6211 5.6914 0.26562 5.418-0.73047 10.828-2.9141 15.797-3.4336 7.0078-7.9102 13.457-13.285 19.113-0.54297 0.67578-1.1523 1.3594-1.7617 2.1016 0.88672 0.57031 1.8281 1.0469 2.8125 1.4258 7.3203-1.7227 13.801-5.9727 18.297-12 4.4336-5.4336 8.3125-11.293 11.59-17.496 5.832-10.773 9.0859-17.961 10.715-17.484 1.4258 0.40234 0.9375 8.4375-3.3203 20.812-2.5273 7.3711-6.1367 14.324-10.715 20.625-0.63281 0.91797-1.3125 1.7969-2.0352 2.6445 3.9961-1.3906 7.8164-3.2305 11.391-5.4844 12.48-8.8281 19.648-23.367 19.051-38.645 0.71094-10.066 3.6758-19.844 8.6719-28.609 19.461-36.469 40.809-72.602 63.59-107.1 21.797-33.863 46.281-65.922 73.219-95.859 22.988-24.945 52.883-41.961 75.523-67.051h0.003906c2.5547-3.2461 5.293-6.3438 8.2031-9.2812 4.875-5.0234 9.375-9.6289 12.609-12.957 3.1797-3.5898 5.5508-6.2344 7.0508-5.4844 0.46875 0.19531 0.74219 0.81641 0.9375 1.5547 0.27344 0 0.60938 0 0.74219 0.14062 1.0234 0.80469 0.27344 3.3828-1.4258 7.0508 0 0.13281 0 0.19531-0.066407 0.26172v0.003906c-1.1133 3.0195-2.5938 5.8906-4.4062 8.5508-1.2188 2.2305-2.6445 4.6875-4.1992 7.2461 22.984 1.9219 66.035-10.285 67.188-35.035zm-71.652 541.71c-0.60547-0.65625-1.1328-1.3828-1.5664-2.1641-12.961-24.691-32.797-45.094-57.109-58.75-24.312-13.652-52.059-19.973-79.887-18.191-33.215 49.621-66.91 98.953-99.844 148.8-12.477 18.844-43.996 54.77-43.32 81.75 0.875-2.1797 1.9648-4.2695 3.25-6.2344 1.4766-1.8359 3.1367-3.5156 4.9531-5.0156 1.5938-1.082 3.2461-2.0742 4.9492-2.9805 1.1875-0.42578 2.4102-0.74219 3.6562-0.9375 2.1016-0.34766 3.4609-0.20703 3.8633 0.46875 0.40234 0.67578-0.27344 1.875-1.6875 3.4609-0.68359 0.75-1.6953 1.6328-2.7188 2.5781-0.73828 1.082-1.5508 2.1641-2.4375 3.2539v-0.003906c-4.5234 6.2227-5.8516 14.211-3.5938 21.562 0.83594 3.1211 2.2383 6.0664 4.1367 8.6797 21.695 12.273 59.25-6.5078 77.758-15.938h-0.003906c65.164-32.824 122.82-78.789 169.34-135 6.8516-8.3906 13.48-16.93 20.258-25.34zm-37.285-645.56c4.4727-0.19531 8.8789-0.40234 13.285-0.46875-5.9609-24.375-21.562-51.113-49.961-42.91l-1.1523 0.19531v0.003906c-1.1055 4.7148-2.5781 9.3398-4.4062 13.828-0.5 1.1094-1.1641 2.1406-1.9688 3.0547 0.14062 0.19531 0.33594 0.40234 0.47656 0.60938 0.27344 0.46875 0.54297 0.81641 0.88281 1.4922l0.9375 2.1016v-0.003906c0.54297 1.3633 0.97266 2.7695 1.2852 4.2031 0.50781 2.8633 0.57812 5.793 0.20703 8.6797-0.40625 2.6328-1.0664 5.2188-1.9688 7.7266 0 0.54297-0.066406 1.2188-0.13281 1.875 1.7695-0.6875 3.6797-0.92187 5.5586-0.6875 2.5781 0.41406 5.1484 0.60938 7.7266 0.81641 0.33594-2.0352 0.75-4.1328 1.0859-6.5625 1.0859-8.2773 1.2852-16.133 4.4727-17.016 2.8125-0.9375 8.2031 6.9766 6.8438 18.57v0.003906c-0.25781 1.8047-0.71094 3.5781-1.3477 5.2852 2.5781 0 5.2227-0.066407 7.7891-0.20703 1.1094-3.125 1.5273-6.4531 1.2266-9.7578-0.41406-8.4375-1.6328-14.062-0.14063-14.773 1.4922-0.71094 5.4297 3.9297 8.1367 13.492l0.003907-0.003906c0.76172 2.6914 1.1719 5.4727 1.2188 8.2695 0.042968 0.72656 0.023437 1.4609-0.058594 2.1836zm-19.996 21.695c-7.2578-0.33594-14.445-1.2852-22.379-2.3711-1.8086-0.25391-3.5-1.0312-4.875-2.2344-3.4492 5.6055-7.6484 10.711-12.477 15.18-5.7617 5.4102-11.852 10.461-18.234 15.121l-4.5391 3.3828v0.003907c-0.011719 0.58984-0.058594 1.1758-0.14062 1.7617-1.0742 11.535-4.5625 22.711-10.238 32.812-2.0391 3.4336-4.4688 6.6172-7.2461 9.4883 10.031 7.8008 19.855 15.797 29.758 23.727 4.0703-10.031 7.8008-20.336 12.609-30.168 11.184-22.566 20.812-49.004 37.762-66.703zm-31.258-35.383c0.097656-2.3438-0.46484-4.668-1.6211-6.7109l-0.20703-0.41406c-2.4766-1.707-5.2266-2.9766-8.1367-3.75-3.6523-0.9375-7.4883-0.89453-11.117 0.13281-2.3984 1.043-4.5977 2.4883-6.5078 4.2734-0.19531 0.16016-0.37891 0.33984-0.54297 0.53516-0.54297 0.75-1.0117 1.4922-1.6211 2.3711-1.8086 2.6016-4.0234 4.8945-6.5625 6.7891-0.16406 0.25391-0.29688 0.52344-0.40234 0.80469l-4.5469 12.141-5.6914-11.934c-2.5781-5.418-5.625-11.055-8.5391-17.625h-0.003906c-1.2266-2.5273-2.2227-5.1602-2.9805-7.8672l-1.2188-4.0703c-0.14062-0.88281-0.33594-0.9375-0.54297-2.4375l-0.20703-1.875v0.003906c-0.097657-1.8086-0.097657-3.6211 0-5.4297-0.046875-0.52344-0.13672-1.0469-0.26953-1.5547-0.47656-2.9102-1.1328-5.7891-1.9609-8.6172l-1.4258-1.6211c-0.81641-0.60938-1.6953-1.2852-2.5781-1.875-0.83594-0.76562-1.7852-1.3984-2.8125-1.875-1.1523-0.46875-2.1016-1.2188-3.3203-1.6211h0.003907c-5.4375-2.0469-11.105-3.4102-16.875-4.0703-11.051-1.0117-22.172-0.99219-33.219 0.066406-2.1016 0.20703-3.9922 0.33594-5.6914 0.47656-0.27344 0.54297-0.41406 1.0117-0.60938 1.4922-5.625 11.391-15.395 22.305-18.508 34.688-3.1875 12.742 3.6562 22.434 8.3359 33.695h0.003907c1.1602 0.19141 2.2695 0.62891 3.25 1.2812 1.3594-6.3008 2.6445-10.098 4.0039-10.031 5.7578 0.40234 0.60938 18.168-0.066406 20.746-1.6953 6.4414-5.6992 17.418 0.066406 22.977v0.003906c2.168 1.9062 5.0469 2.7969 7.9102 2.4453 2.8633-0.34766 5.4453-1.9023 7.0898-4.2734 2.7109-4.6133-4.1992-18.234-1.875-19.867 0.9375-0.60938 3.75 1.0859 7.1797 5.4922l0.003907 0.003906c2.1992 2.7305 3.8945 5.8281 5.0156 9.1484 0.81641 2.4688 1.0273 5.0938 0.60938 7.6602-0.58203 3.1602-2.293 6-4.8125 7.9961l-0.14063 0.066406c-2.2227 1.4141-4.7578 2.2539-7.3867 2.4453-1.875 0.19531-3.7969 0.33594-5.625 0.40234-2.1641 0-4.3398 0-6.5078-0.13281l0.003907 0.003906c3.7891 11.121 9.5781 21.461 17.078 30.508 5.1562 6.168 8.7461 14.062 14.512 19.688 9.957 9.5547 20.625-0.9375 29.887-7.3203 0.27344-0.41406 0.54297-0.75 0.81641-1.1523 1.5547-2.3711 3.1875-4.8828 4.8203-7.5 1.7617-2.8125 3.75-5.4844 5.7578-8.2695v-0.003906c6.9141-8.5664 13.117-17.684 18.543-27.262 1.0859-2.4375 2.0352-4.6016 2.8125-6.5625-1.6445-5.8477-2.4883-11.891-2.5039-17.961 0.046875-1.4609 0.22656-2.9141 0.53516-4.3438 0.20703-1.875 0.54297-3.5898 0.81641-4.9492 0.88281-3.5898 1.6328-5.5586 2.4375-5.5586 0.80469 0 1.5 2.1016 2.0352 5.6992 0.30469 4.6289 1.25 9.1914 2.8125 13.559 0.35156 0.73828 0.95313 1.3359 1.6953 1.6875 0 0.074218 0.066406 0.074218 0.33594 0.14062 0.27344 0.066407 1.2188 0.27344 1.0234 0.13281v-0.003906c0.52344 0.023437 1.0469-0.019531 1.5547-0.12891 2.7344-0.72656 5.1172-2.4102 6.7148-4.7461 0.60938-0.60938 1.0781-2.8125 1.6211-2.8125-1.6602 0.19922-3.3359-0.17969-4.7422-1.0781-1.0586-0.56641-1.9805-1.3516-2.7109-2.3047-0.42578-0.91016-0.78906-1.8516-1.0859-2.8125-0.29297-1.3789-0.40625-2.793-0.33984-4.1992 0.27344-2.3047 0.81641-3.4609 1.6328-3.5234 0.81641-0.066406 1.6875 0.88281 2.7109 2.5039 0.9375 1.4258 2.6445 4.2734 3.9297 4.1328l-0.003906-0.003907c1.9922-0.78125 3.6797-2.1797 4.8203-3.9922 1.1875-1.5469 2.1914-3.2305 2.9805-5.0156 0.46875-0.9375 0.67578-1.6953 1.0117-2.5117l0.47656-1.875 0.13281-0.47656v-0.20703l0.066406-0.67578c0.34375-1.3633 0.29688-2.7969-0.13281-4.1367-0.20703-0.54297-0.54297-1.0859-1.875-1.4258v0.003906c-3.0117-0.52734-6.1133-0.20312-8.9531 0.9375-2.2148 0.86719-4.3477 1.9336-6.375 3.1875-1.5547 1.1523-2.7109 1.875-3.4492 1.4922-0.74219-0.38281-0.9375-1.6211-0.34766-3.7969v-0.003906c1.207-3.168 3.332-5.9023 6.1055-7.8555 4.1719-3.3164 9.4766-4.875 14.781-4.3398 3.4102 0.33594 6.543 2.0078 8.7188 4.6484zm-6.9102-32.879h0.003907c0.125-0.35156 0.21094-0.71484 0.26172-1.0859-3.9297-6.375-5.1484-12.066-7.9961-15.254-0.75391-1.0312-1.6172-1.9727-2.5781-2.8125l-0.33594-0.27344-0.003906 0.003906c0.039062-0.039062 0.10156-0.039062 0.14062 0l-0.20703-0.066406-0.066407-0.066406-0.9375-0.67578c-0.60938-0.33594-1.293-0.88281-1.875-1.1523h0.003907c-1.9688-1.0742-4.0625-1.8984-6.2344-2.4453-8.8125-2.2305-15-2.1641-15.047-3.6562-0.14063-1.0859 5.418-3.75 16.199-3.3203 3.1367 0.24219 6.2188 0.94922 9.1484 2.1016 0.69922 0.26953 1.375 0.58203 2.0352 0.9375l1.0859 0.47656 0.27344 0.13281 0.54297 0.40234 0.60938 0.41406v-0.003906c1.6289 1.0781 3.1289 2.3359 4.4727 3.75 0.40234 0.46875 0.74219 1.0859 1.1523 1.6211v0.003907c-0.92578-5.1328-2.7891-10.047-5.4922-14.504l-0.20703-0.27344c-1.2422-1.3867-2.6523-2.6172-4.1992-3.6562-0.67578-0.41406-1.3516-1.0234-2.0352-1.3594-0.66797-0.21094-1.3203-0.46094-1.9609-0.75l-0.9375-0.46875c-0.48828-0.10547-0.98828-0.17578-1.4883-0.20703-4.3594-0.44141-8.7461-0.57422-13.125-0.40234-4.8906 0-9.7539 0.70703-14.438 2.1016-1.1211 0.44141-2.207 0.96094-3.2539 1.5547-0.67578 0.75-1.2852 1.0859-1.6211 0.9375-0.33594-0.14844-0.54297-0.80469-0.47656-1.875h-0.003906c0.51953-1.7227 1.5352-3.2539 2.918-4.4062 8.5195-5.6445 18.953-7.625 28.949-5.4922-1.0234-3.3203-4.1445-3.5234-6.7891-4.4727-3.9922-1.5547-7.5859-4.0039-11.586-5.5586-1.082-0.097656-2.1719-0.097656-3.2539 0-1.4727 0.09375-2.9297 0.36719-4.3398 0.81641-1.8203 0.45313-3.5898 1.0781-5.2891 1.875-1.625 0.67969-3.1953 1.4961-4.6875 2.4375-6.9453 3.8281-12.445 9.832-15.656 17.09-0.9375 2.3203-0.96094 4.9102-0.0625 7.2461 2.0234 3.1875 5.8203 0.33594 8.8125 1.7617 2.4375 0.88281 4.9414 0.41406 7.5 2.4453 1.0234 0.88281 2.1016 1.875 3.1211 2.8125v0.003907c0.79297 0.85937 1.4961 1.8047 2.0977 2.8125l0.88281 1.3516 0.47656 0.68359 0.19531 0.33594 0.14062 0.13281c0.066406 0.14062 0.40234 0.68359 0.40234 0.68359h0.003906c0.68359 1.4023 1.207 2.8828 1.5547 4.4062 0.70703 3.6836 0.9375 7.4414 0.6875 11.184 0.54297 2.3711 1.0781 4.6875 1.5547 7.0508l0.67578 2.8125 0.14062 0.54297 0.066406 0.20703 0.54297 1.4258v-0.003906c0.64062 1.8594 1.457 3.6523 2.4375 5.3555l1.875 3.0469c0.81641 1.2188 2.3828 2.4453 2.3828 3.5898 0-0.26172 0.40234-0.67578 0.74219-0.9375h-0.003906c2.1641-2.0156 4.6055-3.7031 7.2578-5.0156 0.066406-0.066406 0.13281-0.066406 0.20703-0.13281h-0.003907c1.2734-1.1133 2.6836-2.0586 4.2031-2.8125 1.2617-0.58984 2.5781-1.0664 3.9258-1.4219 2.5586-0.58203 5.1875-0.76172 7.8008-0.53516 0.79297 0.046875 1.5859 0.13281 2.3711 0.26172 0.88281-0.13281 1.875-0.19531 2.8125-0.26172-4.7344-4.3359-10.051-7.9844-15.797-10.848-5.6992-2.9922-10.445-4.4805-10.172-6.0391 0.20703-1.3594 4.5469-2.9805 12.609-1.4922v0.003906c6.0156 1.2266 11.742 3.5742 16.887 6.9258zm-20.949 184.05-0.066406-0.074219c-9.9648-7.8555-19.789-15.992-29.758-23.859-4.2109 18.102 1.2188 35.625 5.4844 53.559 3.3945-3.3281 6.7109-6.5625 10.105-9.9648 5.7031-5.8047 10.5-12.43 14.234-19.66zm-36.875-247.98c0.67578-0.33594 1.2852-0.60938 1.9609-0.9375-27.188-2.8125-55.727 7.6602-65.418 34.914 0.88281-0.34766 1.875-0.75 2.8125-1.0859v-0.003906c0.30469-0.082031 0.59766-0.19531 0.87891-0.33594 6.4531-2.1953 13.188-3.4609 20-3.75h0.41406-0.003906c3.5742-0.27344 7.1641-0.30078 10.746-0.085938 2.0352 0.066406 4.1328 0.27344 6.168 0.40234 0.019532-2.1172 0.36719-4.2188 1.0195-6.2344 1.8672-5.4375 5.0586-10.328 9.2812-14.23 3.6367-3.4258 7.7188-6.3359 12.141-8.6523zm-4.9492 939.64c0.089844-0.24219 0.15625-0.49609 0.19922-0.75-1.6211-3.4609-3.4492-6.7109-5.1484-9.8242-24.402 14.523-51.633 23.652-79.855 26.773-6.8594 0.56641-13.762 0.25391-20.543-0.9375 13.828 16.059 44.336 23.383 61.352 24.535 13.07 2.0273 26.449 0.28516 38.57-5.0156 3.6562-4.3359 5.9219-9.6758 6.5039-15.32-6.3594 6.5234-14.484 11.047-23.379 13.016-7.7344 1.5664-12 0.074218-12.188-1.3516-0.27344-1.6328 4.2109-3.2539 9.4961-6.3086 7.1758-3.7266 13.664-8.6562 19.18-14.57 2.6172-2.9805 4.5938-6.4688 5.8125-10.246zm-3.5234-641.16c0.25391-3.2773-0.39453-6.5625-1.875-9.4961-2.2305-4.9414-4.2656-9.9648-6.8438-15.18-3.6484-8.6133-9.4336-16.148-16.809-21.898-1.293-0.85547-2.6562-1.6055-4.0703-2.2422-1.293-0.53516-2.3711-0.9375-3.3281-1.3516-2.2305-0.60938-3.5234-1.293-3.5234-2.0352s1.1523-1.6328 3.3281-2.4375v0.003906c1.5859-0.29688 3.1953-0.45703 4.8086-0.48047 2.0977 0.14844 4.1719 0.55859 6.168 1.2188 7.5664 2.9805 13.996 8.2734 18.375 15.125-2.1602-9.8438-2.918-19.945-2.2422-30-5.9883 2.8008-12.746 3.4961-19.18 1.9688-8.0938-2.8359-15.016-8.2734-19.688-15.461-29.062 28.742-11.934 65.961-22.105 101.55-8.6055 30.168-33.617 53.223-41.418 82.5-7.5 28.199-6.5078 57.695-15 85.688-4.5391 15.188-35.719 44.672-25.762 62.645 16.875-32.07 46.641-57.422 62.914-90.844 20.465-42.027 26.102-91.789 57.141-127.99 9.4492-11.016 19.207-21.254 29.109-31.285zm-117.75 713.67c19.391-1.0977 38.289-6.5156 55.312-15.863-23.184-5.2227-46.875-15.797-58.836-34.031h-0.003907c-12.293 3.3594-23.887 8.8906-34.234 16.332-2.0352 1.3594-38.711 28.949-19.527 32.07h-0.003906c19.012 2.2539 38.191 2.7539 57.293 1.4922z"/>
 <path d="m767.14 725.18c2.1094 2.5781 3.2539 4.9492 2.5117 6.3086-0.74219 1.3594-3.3945 1.4922-7.2578 0.19531l0.003906 0.003906c-5.3398-2.1445-9.6094-6.3125-11.883-11.598-2.2734-5.2852-2.3633-11.254-0.25-16.602 1.7617-3.3203 3.75-5.082 5.2227-4.7422 1.4727 0.33594 2.3711 2.8125 2.7109 6.4414v-0.003906c0.64063 3.5547 1.582 7.0469 2.8125 10.445 1.7812 3.3438 3.832 6.5391 6.1289 9.5508z"/>
 <path d="m728.36 541.13c0.68359 1.5547-12 7.5-32.062 16.949v0.003907c-11.57 5.3828-22.641 11.777-33.086 19.113-1.4922 1.0859-3.0469 2.1641-4.5391 3.3203-1.4922 1.1523-2.9141 2.2422-4.3398 3.3945-2.9805 2.3711-6.1016 4.875-9.4883 7.3867h0.003906c-7.1602 5.9414-15.652 10.059-24.75 12l-11.652 1.9688 5.832-10.172 0.88281-1.6328h-0.003906c4.6602-7.5742 10.277-14.516 16.715-20.652 2.8125-2.9805 5.2891-5.625 7.6602-8.4375l1.875-2.3047 0.75-1.0117 0.80469-1.1523c1.0234-1.5547 2.0352-3.1211 3.0547-4.6133 4.0703-6.1016 8.1289-11.793 11.25-17.625 3.1875-5.6914 6.5078-10.848 8.9531-15.938 2.6445-4.9492 4.9414-9.4219 7.0508-13.359 2.1094-3.9375 3.75-7.5 5.2891-10.312 3.0469-5.625 5.082-8.6055 5.7578-8.2695 0.67578 0.33594 0.14063 3.7969-1.6211 9.9648-0.88281 3.0469-2.0352 6.7773-3.5234 11.055-1.4922 4.2734-3.5234 9.0859-5.625 14.371-2.1016 5.2891-5.0156 10.977-7.9961 17.082l-0.003907-0.003907c-3.1914 6.4883-6.7656 12.781-10.707 18.844-1.0234 1.6328-2.0352 3.2539-3.0547 4.9492l-0.80469 1.2188-0.9375 1.3594-1.6875 2.3711c-1.1523 1.5547-2.7188 3.2539-4.0703 4.875l-4.2109 4.6133c-0.46875 0.54297-0.9375 1.0234-1.4141 1.5547 3.0469-2.1641 6.0273-4.4727 9.0078-6.7031 1.6953-1.2266 3.2539-2.3828 4.8828-3.6016 1.5547-1.0117 3.1133-2.1016 4.6875-3.1133v0.007812c11.262-7.3438 23.34-13.352 35.992-17.898 21.141-7.7734 34.586-10.961 35.129-9.6016z"/>
 <path d="m627.19 429.38c0.5625 16.645-0.96484 33.293-4.5469 49.555-2.1562 9.0742-5.2695 17.891-9.2812 26.309-3.3164 6.8828-7.4219 13.355-12.234 19.293-8.4375 10.164-15.188 14.062-16.199 13.219-1.3594-1.0859 3.6562-7.5938 9.5547-17.812h-0.003907c7.8047-13.641 13.539-28.363 17.016-43.688 4.1992-17.961 5.9609-34.914 7.6602-47.316 1.6953-12.402 3.1211-19.996 4.7422-19.996 1.625 0 2.8516 7.8008 3.293 20.438z"/>
 <path d="m510.36 362.04c1.1523 0.75-0.60938 6.5078-6.7109 13.695-7.9609 8.0664-16.336 15.715-25.09 22.914-4.1992 3.9766-7.7031 8.6289-10.367 13.762-2.6445 4.8086-4.7422 9.6172-6.8438 13.555-4.0039 8.1289-7.8008 12.469-9.2266 11.793-1.4258-0.67578-0.27344-6.168 1.6953-14.645l0.003906 0.003906c1.1992-5.1836 2.8086-10.262 4.8086-15.188 1.2773-3.1562 2.8711-6.1758 4.7539-9.0117 2.0391-2.8242 4.2812-5.5 6.7031-8.0039 4.8711-4.5586 10.113-8.707 15.664-12.402 4.6133-3.2539 8.8789-6.2344 12.402-8.6719 6.7812-5.0273 10.719-8.75 12.207-7.8008z"/>
 <path d="m473.61 769.39c1.2266 1.0781-2.8125 7.6602-9.4219 17.758-6.5078 10.367-15.383 24.609-25.312 40.312-8.4648 13.836-18.125 26.898-28.875 39.047-8.6797 8.9453-14.914 13.352-16.07 12.402-1.2852-1.0859 2.9805-7.5938 9.8984-17.625 6.5625-9.9648 15.461-24.133 25.414-39.992h0.003907c8.4297-13.781 17.953-26.863 28.473-39.125 8.5781-9.1211 14.785-13.797 15.891-12.777z"/>
 <path d="m348.13 340.75c0.085938 0.87891 0.10938 1.7617 0.0625 2.6445 0.003907 0.86719-0.10937 1.7305-0.33594 2.5664-6.375 60.133-39.59 109.75-104.87 106.1-62.812-3.4609-101.34-52.5-98.297-114.64 3.0469-62.297 69.824-90.227 123.85-86.09 50.84 3.9258 78.57 41.352 79.586 89.418zm-20.539-5.0234-0.003906-0.003907c-0.32422-4.418-0.98438-8.8047-1.9688-13.125-50.23 9.6953-83.926 61.145-107.51 104.32v0.003907c6.4883 2.2461 13.227 3.7031 20.062 4.3398 13.426-40.312 42.984-87.113 87.523-95.445v-0.003907c0.62891-0.097656 1.2617-0.12891 1.8945-0.09375zm-9.0859-32.336c-0.33594-0.60938-0.67578-1.2852-1.0117-1.875h-0.003906c-0.46094-0.023437-0.92188-0.11328-1.3594-0.27344-60-18.75-116.53 34.773-141.07 84.055v0.003907c-0.24609 0.48047-0.54297 0.93359-0.87891 1.3594 5.7656 12.434 14.668 23.156 25.828 31.113 25.762-47.203 63.523-102.93 118.5-114.38zm-58.707 127.58c39.863-5.2891 59.652-36.469 66.234-74.23-32.543 8.9453-54.715 43.246-66.234 74.23zm30.234-153.88v0.003906c-9.7734-4.1797-20.309-6.2812-30.938-6.168-44.062-0.074219-97.211 24.066-94.566 76.059 0.21875 4.293 0.69531 8.5703 1.4258 12.805 26.598-42.973 73.238-81.957 124.08-82.695z"/>
</svg>
