<?xml version="1.0" encoding="UTF-8"?>
<svg width="1200pt" height="1200pt" version="1.1" viewBox="0 0 1200 1200" xmlns="http://www.w3.org/2000/svg">
 <path d="m60 246.73v706.56h27.828v-288.64h1024.3v288.64h27.84v-706.55zm1015 27.828h37.164v33.469h-37.164zm0 42.746h37.164v39.371h-37.164zm0 48.637h37.164v39.359h-37.164zm0 48.66h37.164v39.359h-37.164zm0 48.645h37.164v39.359h-37.164zm0 48.625h37.164v39.359h-37.164zm0 48.648h37.164v39.359h-37.164zm-952.91 76.297h-34.273v-27.66h34.262v27.66zm0-36.938h-34.273v-39.359h34.262v39.359zm0-48.637h-34.273v-39.359h34.262v39.359zm0-48.633h-34.273v-39.359h34.262v39.359zm0-48.648h-34.273v-39.359h34.262v39.359zm0-48.66h-34.273v-39.359h34.262v39.359zm0-48.613h-34.273v-39.371h34.262v39.371zm0-48.66h-34.273v-33.469h34.262v33.469zm44.938 328.79h-35.664v-27.66h35.664zm0-36.938h-35.664v-39.359h35.664zm0-48.637h-35.664v-39.359h35.664zm0-48.633h-35.664v-39.359h35.664zm0-48.648h-35.664v-39.359h35.664zm0-48.66h-35.664v-39.359h35.664zm0-48.613h-35.664v-39.371h35.664zm0-48.66h-35.664v-33.469h35.664zm44.93 328.79h-35.664v-27.66h35.664zm0-36.938h-35.664v-39.359h35.664zm0-48.637h-35.664v-39.359h35.664zm0-48.633h-35.664v-39.359h35.664zm0-48.648h-35.664v-39.359h35.664zm0-48.66h-35.664v-39.359h35.664zm0-48.613h-35.664v-39.371h35.664zm0-48.66h-35.664v-33.469h35.664zm44.926 328.79h-35.652v-27.66h35.652zm0-36.938h-35.652v-39.359h35.652zm0-48.637h-35.652v-39.359h35.652zm0-48.633h-35.652v-39.359h35.652zm0-48.648h-35.652v-39.359h35.652zm0-48.66h-35.652v-39.359h35.652zm0-48.613h-35.652v-39.371h35.652zm0-48.66h-35.652v-33.469h35.652zm44.941 328.79h-35.664v-27.66h35.664zm0-36.938h-35.664v-39.359h35.664zm0-48.637h-35.664v-39.359h35.664zm0-48.633h-35.664v-39.359h35.664zm0-48.648h-35.664v-39.359h35.664zm0-48.66h-35.664v-39.359h35.664zm0-48.613h-35.664v-39.371h35.664zm0-48.66h-35.664v-33.469h35.664zm44.93 328.79h-35.641v-27.66h35.641zm0-36.938h-35.641v-39.359h35.641zm0-48.637h-35.641v-39.359h35.641zm0-48.633h-35.641v-39.359h35.641zm0-48.648h-35.641v-39.359h35.641zm0-48.66h-35.641v-39.359h35.641zm0-48.613h-35.641v-39.371h35.641zm0-48.66h-35.641v-33.469h35.641zm44.961 328.79h-35.676v-27.66h35.676zm0-36.938h-35.676v-39.359h35.676zm0-48.637h-35.676v-39.359h35.676zm0-48.633h-35.676v-39.359h35.676zm0-48.648h-35.676v-39.359h35.676zm0-48.66h-35.676v-39.359h35.676zm0-48.613h-35.676v-39.371h35.676zm0-48.66h-35.676v-33.469h35.676zm44.93 328.79h-35.676v-27.66h35.676zm0-36.938h-35.676v-39.359h35.676zm0-48.637h-35.676v-39.359h35.676zm0-48.633h-35.676v-39.359h35.676zm0-48.648h-35.676v-39.359h35.676zm0-48.66h-35.676v-39.359h35.676zm0-48.613h-35.676v-39.371h35.676zm0-48.66h-35.676v-33.469h35.676zm44.914 328.79h-35.641v-27.66h35.641zm0-36.938h-35.641v-39.359h35.641zm0-48.637h-35.641v-39.359h35.641zm0-48.633h-35.641v-39.359h35.641zm0-48.648h-35.641v-39.359h35.641zm0-48.66h-35.641v-39.359h35.641zm0-48.613h-35.641v-39.371h35.641zm0-48.66h-35.641l0.003906-33.469h35.641zm44.953 328.79h-35.664v-27.66h35.664zm0-36.938h-35.664v-39.359h35.664zm0-48.637h-35.664v-39.359h35.664zm0-48.633h-35.664v-39.359h35.664zm0-48.648h-35.664v-39.359h35.664zm0-48.66h-35.664v-39.359h35.664zm0-48.613h-35.664v-39.371h35.664zm0-48.66h-35.664v-33.469h35.664zm44.93 328.79h-35.652v-27.66h35.652zm0-36.938h-35.652v-39.359h35.652zm0-48.637h-35.652v-39.359h35.652zm0-48.633h-35.652v-39.359h35.652zm0-48.648h-35.652v-39.359h35.652zm0-48.66h-35.652v-39.359h35.652zm0-48.613h-35.652v-39.371h35.652zm0-48.66h-35.652v-33.469h35.652zm44.914 328.79h-35.641v-27.66h35.641zm0-36.938h-35.641v-39.359h35.641zm0-48.637h-35.641v-39.359h35.641zm0-48.633h-35.641v-39.359h35.641zm0-48.648h-35.641v-39.359h35.641zm0-48.66h-35.641v-39.359h35.641zm0-48.613h-35.641v-39.371h35.641zm0-48.66h-35.641v-33.469h35.641zm44.953 328.79h-35.641v-27.66h35.652v27.66zm0-36.938h-35.641v-39.359h35.652v39.359zm0-48.637h-35.641v-39.359h35.652v39.359zm0-48.633h-35.641v-39.359h35.652v39.359zm0-48.648h-35.641v-39.359h35.652v39.359zm0-48.66h-35.641v-39.359h35.652v39.359zm0-48.613h-35.641v-39.371h35.652v39.371zm0-48.66h-35.641v-33.469h35.652v33.469zm44.926 328.79h-35.652v-27.66h35.652zm0-36.938h-35.652v-39.359h35.652zm0-48.637h-35.652v-39.359h35.652zm0-48.633h-35.652v-39.359h35.652zm0-48.648h-35.652v-39.359h35.652zm0-48.66h-35.652v-39.359h35.652zm0-48.613h-35.652v-39.371h35.652zm0-48.66h-35.652l0.003906-33.469h35.652zm44.93 328.79h-35.641v-27.66h35.641zm0-36.938h-35.641v-39.359h35.641zm0-48.637h-35.641v-39.359h35.641zm0-48.633h-35.641v-39.359h35.641zm0-48.648h-35.641v-39.359h35.641zm0-48.66h-35.641v-39.359h35.641zm0-48.613h-35.641v-39.371h35.641zm0-48.66h-35.641v-33.469h35.641zm44.953 328.79h-35.664v-27.66h35.664zm0-36.938h-35.664v-39.359h35.664zm0-48.637h-35.664v-39.359h35.664zm0-48.633h-35.664v-39.359h35.664zm0-48.648h-35.664v-39.359h35.664zm0-48.66h-35.664v-39.359h35.664zm0-48.613h-35.664v-39.371h35.664zm0-48.66h-35.664v-33.469h35.664zm44.926 328.79h-35.652v-27.66h35.652zm0-36.938h-35.652v-39.359h35.652zm0-48.637h-35.652v-39.359h35.652zm0-48.633h-35.652v-39.359h35.652zm0-48.648h-35.652v-39.359h35.652zm0-48.66h-35.652v-39.359h35.652zm0-48.613h-35.652v-39.371h35.652zm0-48.66h-35.652v-33.469h35.652zm44.93 328.79h-35.652v-27.66h35.652zm0-36.938h-35.652v-39.359h35.652zm0-48.637h-35.652v-39.359h35.652zm0-48.633h-35.652v-39.359h35.652zm0-48.648h-35.652v-39.359h35.652zm0-48.66h-35.652v-39.359h35.652zm0-48.613h-35.652v-39.371h35.652zm0-48.66h-35.652v-33.469h35.652zm44.941 328.79h-35.664v-27.66h35.664zm0-36.938h-35.664v-39.359h35.664zm0-48.637h-35.664v-39.359h35.664zm0-48.633h-35.664v-39.359h35.664zm0-48.648h-35.664v-39.359h35.664zm0-48.66h-35.664v-39.359h35.664zm0-48.613h-35.664v-39.371h35.664zm0-48.66h-35.664v-33.469h35.664zm44.938 328.79h-35.664v-27.66h35.676v27.66zm0-36.938h-35.664v-39.359h35.676v39.359zm0-48.637h-35.664v-39.359h35.676v39.359zm0-48.633h-35.664v-39.359h35.676v39.359zm0-48.648h-35.664v-39.359h35.676v39.359zm0-48.66h-35.664v-39.359h35.676v39.359zm0-48.613h-35.664v-39.371h35.676v39.371zm0-48.66h-35.664v-33.469h35.676v33.469zm44.93 328.79h-35.641v-27.66h35.641zm0-36.938h-35.641v-39.359h35.641zm0-48.637h-35.641v-39.359h35.641zm0-48.633h-35.641v-39.359h35.641zm0-48.648h-35.641v-39.359h35.641zm0-48.66h-35.641v-39.359h35.641zm0-48.613h-35.641v-39.371h35.641zm0-48.66h-35.641v-33.469h35.641zm44.938 328.79h-35.652v-27.66h35.652zm0-36.938h-35.652v-39.359h35.652zm0-48.637h-35.652v-39.359h35.652zm0-48.633h-35.652v-39.359h35.652zm0-48.648h-35.652v-39.359h35.652zm0-48.66h-35.652v-39.359h35.652zm0-48.613h-35.652v-39.371h35.652zm0-48.66h-35.652v-33.469h35.652zm9.2773 301.14h37.164v27.66h-37.164z"/>
</svg>
