<?xml version="1.0" encoding="UTF-8"?>
<svg width="1200pt" height="1200pt" version="1.1" viewBox="0 0 1200 1200" xmlns="http://www.w3.org/2000/svg">
 <path d="m717.52 399.01c-45.348-15.844-76.988-59.512-62.758-108.95 14.773-51.328 57.367-87.449 112.5-74.617 9.3984 2.1875 18.438 5.6914 26.852 10.406 0.78906 0.32422 1.5195 0.77734 2.1562 1.3438 33.047 30 58.125 69.375 40.312 114.95-9.0078 21.902-25.609 39.824-46.758 50.48-21.152 10.652-45.434 13.324-68.395 7.5234-0.68359-0.046875-1.3555-0.19141-1.9961-0.43359-0.67188-0.125-1.3203-0.36328-1.9141-0.70313zm103.51-59.062c1.9727-4.793 3.4336-9.7852 4.3594-14.887-49.688 15.582-99.57 25.715-151.32 16.66 2.8789 6.582 6.793 12.66 11.586 18.008 0.32812 0 0.64844-0.11328 0.9375-0.11328 45.863-0.17578 91.25-3.457 134.44-19.629zm5.3359-32.195v0.003906c-0.44531-20.289-8.1562-39.742-21.73-54.824 4.1641 19.602 6.3125 39.582 6.4219 59.625 5.1172-1.5312 10.199-3.0859 15.309-4.7656zm-30.938 9.2266c-0.3125-0.86328-0.47656-1.7773-0.48828-2.6992 0.12891-25.996-3.6133-51.867-11.098-76.762-6.6094-3.1719-13.637-5.3828-20.871-6.5625-1.7734-0.27344-3.5547-0.42969-5.3359-0.58984h0.003906c6.4297 10.77 11.074 22.512 13.742 34.77 4.2109 17.25 4.0977 36.168 9.7578 52.773 0.29688 0.81641 0.44141 1.6758 0.43359 2.5391 4.6289-1 9.2148-2.1914 13.848-3.4297zm-29.164 6.7891c-0.26953-0.48438-0.50781-0.99219-0.70312-1.5078-10.312-30.242-4.1445-66.684-28.125-91.695v-0.003906c-9.3398 1.2617-18.379 4.1836-26.691 8.625 19.262 25.711 31.738 55.855 36.281 87.656 6.4492-0.76953 12.816-1.7891 19.227-3.0352zm40.164 38.008h-0.003906c-33.133 8.9922-67.293 13.629-101.62 13.789 5.9727 3.543 12.316 6.418 18.918 8.5703 29.574 7.3555 60.848-1.0859 82.699-22.324zm-137.36-37.5h-0.003906c20.359 4.3711 41.234 5.8047 62 4.2539-4.2969-29.184-15.887-56.809-33.695-80.324-15.699 13.379-25.816 32.152-28.359 52.621-1.1445 7.7812-1.1289 15.691 0.046875 23.465z"/>
 <path d="m1144 459.54c-0.66016-0.42188-1.3438-0.79688-2.0547-1.125-2.4414-0.98438-5.0234-1.5859-7.6484-1.7812-1.7812-0.054687-3.5625-0.16016-5.2891-0.21484l-2.5859-0.11328-2.2578 0.11328c-2.9727 0.16016-5.8203 0.10156-8.9531 0.48828-5.9805 0.42969-11.758 1.2383-16.977 1.875-10.52 1.3984-19.305 2.5312-25.453 2.7461-6.1484 0.21484-9.7031-0.375-9.918-1.6133-0.21484-1.2383 2.8125-3.0195 8.4375-5.2891h-0.003906c7.9414-3.2617 16.062-6.0781 24.316-8.4375 5.8008-1.7148 11.684-3.1367 17.625-4.2539 3.4727-0.72656 6.9883-1.25 10.52-1.5664l2.8125-0.27344 2.5859-0.10156 5.2305-0.16797h0.003906c2.0898 0.042969 4.1797 0.20703 6.2539 0.48438-1.9883-3.9844-27.488-2.4766-30.676-2.3164v0.003907c-15.484 0.37109-30.801 3.2852-45.34 8.625-22.152 8.7383-43.668 18.977-65.766 27.871-15.695 6.3086-30.938 13.48-45.938 21.074 9.5117 11.215 17.176 23.871 22.699 37.5 7.6602-6.4688 15.422-12.777 23.672-18.488 7.4375-3.8086 15.742-5.6094 24.094-5.2305 9.1133-0.64844 17.859-3.8633 25.227-9.2734-6.8984-1.4609-12.234-3.1875-16.227-4.2656-2.7461-0.86328-5.1172-1.5078-6.6836-2.1016-1.5664-0.58984-2.3711-1.2383-2.3711-1.875s0.86328-1.2383 2.4297-1.7812l-0.003906 0.003906c2.3125-0.78906 4.7305-1.2227 7.1719-1.293 6.4141-0.53516 15.367 0.32813 25.312 0.054688 10.133 0.27344 18.602-4.5273 31.754-11.758 7.4062-4.1758 15.52-6.9531 23.934-8.1914 7.1445-0.28906 14.223-1.4648 21.074-3.5078 1.4141-0.54297 2.7891-1.1914 4.1055-1.9414 0.64844-0.375 1.2383-0.9375 1.875-1.293l1.4531-1.0234 1.0781-1.0234zm18.543-1.0234c0 1.0781-0.11328 2.2695-0.21484 3.3477-0.375 1.9258-1.0508 3.7773-1.9961 5.4922-0.79297 1.5469-1.7891 2.9805-2.9648 4.2578l-0.80469 0.9375-0.54297 0.48828-1.0781 1.0781-0.27344 0.26172-0.10156 0.11328-0.54297 0.48828-0.11328 0.10156-0.75 0.54297-1.5078 1.1328c-1.0312 0.69531-1.9961 1.5078-3.0742 2.1562-1.6211 0.86328-3.2344 1.7266-4.9023 2.4766h-0.003906c0.66406 0.019531 1.3281-0.015625 1.9883-0.10156 10.246-1.4609 14.617 14.117 4.3125 15.629-13.488 0.37891-26.824-2.9609-38.543-9.6484-4.8555 1.0742-9.5742 2.6992-14.062 4.8477-2.7461 1.2461-5.3906 2.4297-7.9766 3.6172 6.6133 3.7969 13.508 7.0742 20.625 9.8086 4.1289 1.3398 6.4727 5.6914 5.3203 9.8789-1.1562 4.1875-5.3984 6.7227-9.6328 5.7578-10.312-3.0742-19.895-11.43-30.133-13.586-12.348-2.5859-18.75 10.133-28.52 13.801-11.25 4.2578-24.32 1.1797-35.043 5.3906-13.801 5.4453-23.719 18.977-34.688 28.191-19.953 16.246-40.992 31.109-62.973 44.484-22.426 14.176-44.203 31.969-68.305 43.238-11.785 5.6211-24.059 10.16-36.664 13.555-12.188 3.0742-27.984 4.3125-38.492 11.812h-0.003906c-7.793 7.1328-16.816 12.793-26.633 16.707-11.973 1.8984-23.766 4.7852-35.262 8.625-22.137 10.16-45.016 18.621-68.438 25.312-27.188 7.0586-42.703 26.68-63.891 43.883 0.11328 30.301-3.5547 63.992-25.977 85.312 0.023437 0.37891 0.023437 0.75781 0 1.1367-2.4844 30.836 2.2031 66.797-23.344 89.008v-0.003906c-0.55078 15.262-0.23828 30.543 0.9375 45.77 0.30078 1.9883-0.30469 4.0039-1.6523 5.4961-1.3438 1.4922-3.2891 2.3047-5.293 2.2109-0.96094 0.30078-1.9688 0.42969-2.9727 0.38281-11.102-0.625-22.203-1.0742-33.309-1.3516-1.0312 0.16016-2.0547 0.32031-3.0742 0.42969l-0.003906 0.003906c-7.8711 0.80078-15.82 0.51172-23.613-0.86328-64.152-0.48828-128.36 2.3711-192.52-1.6211-1.9297 2.0195-4.7852 2.8594-7.5 2.2109-34.023-7.1719-29.492-59.57-27.496-85.07v0.003906c0.097656-1.1641 0.41797-2.3008 0.9375-3.3477 0.64844-21.348 5.4922-42.637 5.2773-63.984-0.21484-16.555-3.9844-32.457-5.2227-48.898-0.15234-16.535-1.7578-33.023-4.8008-49.277-0.76172-1.293-1.1914-2.7539-1.2461-4.2539-0.375-1.1914-0.69531-2.3711-1.125-3.5078-5.625-14.879-27.395-29.539-39.375-39.73-31.391-25.379-64.777-48.184-99.836-68.195-18.75-11.25-46.875-28.574-47.867-53.531-0.9375-21.133 13.199-36.562 29.914-47.812 11.586-7.8203 24.375-13.641 36.008-21.301 14.184-9.3203 24.32-22.5 37.961-32.398 31.539-22.914 86.25-18.75 101.95-57.844 3.0156-10.062 9.1289-18.922 17.465-25.312 13.266-8.4375 27.77-9.168 31.379-27.281 0-0.054688 0.054688-0.11328 0.054688-0.21484-0.13672-2.4453 0.64844-4.8516 2.2031-6.7422 1.957-3.4102 1.9375-7.6016-0.046874-10.996-1.082-4.2773 1.3984-8.6523 5.625-9.918 3.1172-1.1992 6.3828-1.9805 9.7031-2.3164 0.88672-4.3438 3.375-8.1953 6.9766-10.785 3.5977-2.5898 8.0391-3.7266 12.441-3.1836 10.562 0.90625 20.992 2.9688 31.105 6.1484 2.2969 0.46094 4.2266 2.0117 5.1758 4.1562 0.55859 0.85937 0.95703 1.8086 1.1797 2.8125 2.7578 13.594 7.3867 21.141 4.0508 34.773-3.1328 12.836-10.312 25.93-14.398 38.82-7.2188 22.855-22.367 36.168-42.535 48.469-53.258 32.504-95.477 77.195-143.44 116.34v-0.003906c17.078 12.66 35.039 24.086 53.746 34.191 12.43 5.3242 25.738 8.3008 39.254 8.7852 9.6484-22.367 24.695-41.672 49.594-45.555-0.40625-5.8633-0.023437-11.758 1.1328-17.52 4.6406-23.129 15.094-47.812 36.824-59.785 24.707-13.363 53.426-17.293 80.812-11.055 29.699 5.625 40.426 17.035 54.375 42.188 0.63672 0.60938 1.1641 1.3203 1.5664 2.1016 2.3711 4.5859 7.9219 5.3359 12.449 6.8438 5.5742 1.4922 10.715 4.2852 15 8.1445 2.8945 3.2812 4.0391 7.7539 3.0781 12.02-2.0312 4.3438-4.3555 8.5391-6.957 12.562 5.2891 9.543 9.168 21.562 0.21484 28.949 2.6445 13.051-6.0391 22.105-9.8633 36.008v0.003906c-1.2773 4.6914-3.1406 9.2031-5.5508 13.426 2.8125-0.9375 5.625-1.9414 8.2969-2.9062 20.625-7.5 40.379-23.344 61.996-27.871l0.003906-0.003907c21.848-3.6484 44.008-5.0938 66.148-4.3125 29.711-0.11328 51.863-9.4883 79.574-17.812 27.711-8.3242 55.258-13.125 81.945-24.852 22.5-9.918 44.547-20.754 66.141-32.504 41.352-22.594 82.004-47.277 125.77-64.914 24.805-9.9766 49.117-22.695 74.398-31.379l0.003907 0.003906c22.68-7.0703 46.402-10.188 70.137-9.2148 12.188 0.11328 23.344-3.2891 29.551 8.6797 0.99609 2.8086 1.2148 5.832 0.63672 8.7539s-1.9375 5.6328-3.9297 7.8477c2.4531 2.1211 4.2656 4.8867 5.2305 7.9805 0.27344 1.1133 0.47656 2.2422 0.60156 3.3828zm-200.06 85.883v0.003907c-5.1797-15.266-13.438-29.309-24.262-41.25-23.438 12.336-46.473 25.492-69.863 38.109-13.914 7.4453-27.984 15-42.43 22.105 0.97656 0.48047 1.918 1.0391 2.8125 1.668 2.832 2.2773 5.1797 5.1016 6.8984 8.3047 2.4844 4.7891 3.9375 7.8672 3.0742 8.7852-0.86328 0.91797-4.1523-0.80469-8.1953-4.8555h0.003906c-1.9414-1.9922-4.0938-3.7617-6.4219-5.2773-0.64844-0.21484-1.125-0.64844-1.7734-0.80469l-0.9375-0.21484-0.48828-0.16797-0.10156-0.046875h-0.054687v-1.0312l-0.003907-0.003906c-1.7344-0.054688-3.4688 0.20312-5.1172 0.75781-2.0234 0.35156-4 0.94922-5.8789 1.7812 5.8828 1.7031 11.203 4.9414 15.422 9.375 6.3008 6.7422 6.4688 12.836 5.4922 13.051-1.3516 0.58984-3.6641-3.9922-9.8047-8.25-7.7969-5.5078-17.379-7.8906-26.848-6.6836-0.75781 0.10156-1.5078 0.27344-2.2109 0.42969 0.75781 0.53516 1.5664 1.0234 2.2695 1.6133h-0.003906c2.9062 2.4766 5.1328 5.6484 6.4688 9.2266 0.83594 2.2031 1.2578 4.543 1.2383 6.8984 0 1.5664-0.27344 2.4766-0.75781 2.6445-0.48828 0.16797-1.1797-0.54297-1.9883-1.875-0.80469-1.332-1.9414-3.1797-3.2891-5.1758h-0.003906c-1.6016-2.3086-3.6562-4.2734-6.0352-5.7656-3.1055-1.6953-6.5156-2.7578-10.031-3.1289h-0.375c6.4141 19.621 19.406 36.168 22.426 56.879 1.1914-0.27344 2.3164-0.54297 3.4492-0.86328 16.926-4.4688 33.105-11.41 48.008-20.598 1.7266-1.0781 3.4492-2.2109 5.1758-3.2891 0.42969-3.9922 1.0234-7.7617 1.4531-11.25v-0.003906c0.89844-5.4766 1.4922-11 1.7812-16.547 0.70312-8.8984-1.2383-15 0.054688-15.32 0.86328-0.32031 4.8477 4.3672 6.0391 15v0.003906c0.57812 5.8594 0.62891 11.758 0.16016 17.625-0.10156 1.4531-0.21484 3.0742-0.32031 4.5859 2.1016-1.3516 4.1992-2.6992 6.3555-4.0391 0.70312-1.7812 1.3516-3.5625 1.875-5.3438v-0.003906c1.8359-6.0352 3.3164-12.176 4.4258-18.383 1.9961-10.727 3.0195-17.57 4.3672-17.57 1.1797 0 2.418 6.957 1.9883 18.273-0.1875 5.4141-0.8125 10.809-1.875 16.125 15.262-9.8164 30.461-19.688 45.395-29.812 11.309-7.918 22.141-16.496 32.438-25.688zm-176.62 100.32c-2.043-20.484-16.012-37.199-22.367-56.492-4.3672 1.2383-8.7383 2.4297-13.125 3.3945-23.992 5.5039-45.984 14.879-69.543 21.461v-0.003906c-18.859 4.5391-38.258 6.4336-57.637 5.625-27.113-1.2422-54.113 4.1602-78.656 15.742 9.7344 15.902 17.301 33.035 22.5 50.941 0.21484-0.48828 0.375-1.0234 0.58984-1.5664 1.8906-4.3242 4.4805-8.3125 7.6602-11.801 5.1133-5.2891 10.512-10.297 16.172-15 3.5195-3.0977 6.7461-6.5078 9.6445-10.191 2.1094-2.6445 3.4023-4.3125 3.9922-3.9922 0.58984 0.32031 0.42969 2.2695-0.80469 5.625-1.9805 4.7773-4.75 9.1875-8.1914 13.047-7.9766 9.9766-22.754 19.734-22.5 38.008-0.48828 3.5078-0.75781 6.7969-0.9375 10.031 0.32812 1.7266 0.60156 3.4492 0.86328 5.2227 1.5078-1.5078 2.9727-3.0195 4.3672-4.4727 3.5625-3.8242 6.6836-7.1719 9.3281-9.9766 5.2891-5.5508 9.168-8.4375 9.8633-7.6016 0.54297 0.70312-1.668 4.3672-5.8203 10.836-2.1016 3.2344-4.7422 7.0703-7.9219 11.324-1.6211 2.1016-3.3945 4.3672-5.4453 6.6289-0.9375 1.0312-1.9414 2.1094-3.0742 3.1875 0.60156 5.4375 1.0781 10.996 1.3516 16.648 12.348-12.074 24.695-25.977 40.004-31.801 26.09-10.031 52.133-15.367 77.812-27.188l-0.007812 0.003906c12.094-5.0391 24.691-8.7812 37.574-11.156 15-3.5547 24.582-13.367 37.574-20.699 5.2461-2.7852 10.891-4.7383 16.734-5.7852zm-245.12 190.2c22.152-23.07 21.289-63.188 19.191-92.945l-0.003907 0.003906c-1.2578-35.531-11.637-70.137-30.141-100.49-9.082 3.9805-18.406 7.3828-27.918 10.191 0.75 0.21484 1.6133 0.42969 2.3164 0.70312 6.3945 2.2109 12.293 5.6523 17.363 10.133 3.4492 3.2344 4.8477 5.4453 4.4727 5.8789-1.0234 1.293-8.625-6.0391-23.719-9.918-4.0469-1.0195-8.1836-1.6484-12.348-1.875h-3.6641l-0.9375-0.054687h-0.27344l-0.47656 0.054687h-0.52734l-4.9023 1.293c-1.9375 2.2266-5.0391 3.0391-7.8203 2.0547-3.1328 0.75-6.2539 1.5547-9.4297 2.2578 3.9297 0.58984 7.7617 1.1914 11.477 1.875h-0.003907c9.4844 1.7031 18.629 4.9453 27.066 9.6016 5.6367 3.1602 10.688 7.2617 14.934 12.129 2.9141 3.3945 4.3125 5.4453 3.8828 5.8789-0.42969 0.42969-2.5859-0.70312-6.1953-3.2891-4.8203-3.5938-10.027-6.6289-15.527-9.0586-8.1914-3.4805-16.801-5.8711-25.613-7.1133-10.078-1.4531-21.508-2.3711-33.695-3.8828l-7.9219-0.9375c4.7422 1.875 9.5898 3.6641 14.605 5.625h0.003906c10.988 4.7578 21.531 10.496 31.492 17.148 8.1953 5.5195 15.66 12.059 22.207 19.461 4.4102 5.0391 8.0781 10.684 10.887 16.762 1.6797 4.3125 2.2109 6.8516 1.6797 7.1172-0.53516 0.26172-2.2109-1.7266-4.8008-5.4922l-0.003907-0.003906c-3.793-4.9609-7.9609-9.6328-12.457-13.969-6.8008-6.3281-14.199-11.98-22.098-16.875-9.8008-5.9883-20.016-11.27-30.57-15.797-17.68-6.8984-34.07-13.586-47.551-19.359-9.543-2.1016-19.078-4.5859-27.93-6.8438-15.496-4.668-30.645-10.414-45.336-17.203-7.2734 22.266-25.227 37.098-37.359 56.879-10.086 17.141-23.551 32.051-39.574 43.828 3.043 0.41797 6.1406 0.066406 9.0117-1.0195 4.5977-1.6641 8.9648-3.9102 12.992-6.6875 7.1758-4.8633 13.953-10.289 20.27-16.227 5.5586-5.957 11.512-11.539 17.812-16.707 1.2383 0.64844-3.0742 9.5898-13.312 21.133-5.9727 6.9258-12.688 13.176-20.023 18.637-4.543 3.4219-9.5312 6.1953-14.832 8.25-3.0742 1.1445-6.3125 1.7812-9.5898 1.875h-1.5664c0.86328 6.0391 1.3984 12.133 1.875 18.273 4.4062-2.4883 8.5586-5.3945 12.402-8.6836 5.0625-4.3125 9.543-8.5117 13.473-11.699 7.875-6.5625 13.641-9 14.062-8.2422 0.60156 0.9375-3.8828 4.6875-10.453 12.02-3.3477 3.75-7.2266 8.3047-12.242 13.266h-0.003907c-4.8633 4.9023-10.465 9.0156-16.602 12.188 0.48828 7.1719 0.9375 14.344 1.875 21.402 0.32812 2.5859 0.64844 5.0625 1.0312 7.6016v0.003906c3.0234-5.5312 6.6562-10.707 10.836-15.422 9.8047-10.941 17.68-15.523 18.375-14.719 0.9375 1.0234-5.3359 7.3867-13.312 18.75-4.6367 6.5039-8.4414 13.566-11.324 21.02-0.87891 2.3867-1.6367 4.8164-2.2578 7.2812 0.78906 6.2344 1.1758 12.516 1.1523 18.797 1.7812-2.8125 3.6094-5.7188 5.5039-8.25 4.1367-6.0781 9.6094-11.133 16.004-14.773 4.3203-2.3359 9.1484-3.5742 14.062-3.6094 3.2891 0.21484 5.0156 0.70312 5.0703 1.2383s-1.7812 1.1914-4.8008 1.9414c-4.0391 1.1992-7.8633 3.0391-11.324 5.4453-5.0625 3.8711-9.3242 8.6836-12.555 14.176-4.0508 6.2539-7.7148 13.914-12.402 22.105l-1.1914 1.9961c-0.75 7.0586-1.5078 14.176-2.1562 21.234 3.2617-3.6641 6.9336-6.9375 10.953-9.75 4.0273-2.6758 8.418-4.7656 13.039-6.207 6.6523-2.1094 13.758-2.3477 20.539-0.69141 4.5273 1.3398 6.7422 2.6914 6.6367 3.2344-0.10156 0.54297-2.8125 0.375-7.332 0.10156h0.003906c-6.0781-0.14062-12.117 0.98047-17.738 3.293-3.8633 1.6367-7.5039 3.7578-10.836 6.3086-3.7695 3-7.1367 6.4648-10.031 10.312-2.543 3.3359-4.6953 6.9531-6.4141 10.781-0.054688 1.4531-0.21484 2.8125-0.21484 4.2578v-0.003907c-0.027344 1.3164-0.37891 2.6055-1.0234 3.75-0.054688 0.70313-0.11328 1.4062-0.16797 2.1562 4.3555-1.8359 8.9805-2.9453 13.695-3.2891 6.4297-0.40625 12.883 0.17578 19.137 1.7266 10.184 2.6484 19.91 6.8125 28.855 12.355 15 9.2734 22.742 16.977 22.098 17.898v-0.003907c-8.7578-3.2578-17.184-7.3398-25.164-12.195-8.7539-4.418-18.027-7.7305-27.598-9.8633-10.75-2.6719-22.109-1.3086-31.922 3.8242-1.3398 18.816-1.5547 45.336 11.539 53.586v0.003906c1.2383-0.61328 2.6172-0.875 3.9922-0.76172 53.906 3.6172 107.93 2.1562 161.89 1.875-1.668-1.6211-3.2891-3.2891-4.9023-5.1289-7.1172-7.707-12.938-15.195-19.133-21.395v0.003906c-5.7266-5.832-12.098-10.996-18.984-15.395-9.7812-6.9297-20.129-13.023-30.938-18.215-7.6484-3.5625-12.188-4.8008-12.074-5.5586 4.5742-0.375 9.1719 0.40625 13.367 2.2656 11.629 4.0547 22.742 9.4648 33.105 16.117 7.4961 4.2695 14.461 9.4062 20.754 15.309 6.7422 6.3086 13.125 13.914 19.836 20.973 1.6797 1.7812 3.4492 3.5625 5.3906 5.3438h0.003906c1.6719 1.6797 3.5156 3.1758 5.5 4.4727 0.64844 0.42969 1.3984 0.70312 2.043 1.0781 12.617 0 25.234 0.10938 37.848 0.32812-2.3711-3.2344-4.3125-6.4766-6.3086-9.4414-5.625-7.8672-11.805-16.012-17.25-23.504-10.883-15.254-20.484-29.008-27.816-41.082-7.6602-11.859-12.938-21.777-16.547-28.734-3.6094-6.957-5.2891-10.883-4.8008-11.25 0.48828-0.36719 3.2344 3.0742 7.707 9.4883 4.4727 6.4141 10.621 15.852 18.816 27.121 7.875 11.43 18.008 24.742 29.164 39.562 5.7656 7.5 11.645 14.832 18.008 23.438h0.003906c2.6641 4.2695 5.5781 8.3711 8.7266 12.293 0.70313 0.80469 1.4609 1.5664 2.1562 2.2695 4.4258 0.10156 8.793 0.375 13.125 0.53516-2.5312-3.5547-4.5742-7.2266-7.0039-10.996-7.6016-12.234-15.367-25.988-23.184-40.492-15.582-29.109-29.758-55.145-41.344-73.125-2.9141-4.4805-5.3438-8.625-7.7734-12.188s-4.5742-6.5625-6.3008-9.0547c-3.3477-5.0156-4.9609-8.0352-4.4805-8.4375 0.47656-0.40234 3.0742 1.8281 7.2852 6.1953 2.1016 2.2109 4.5859 4.9023 7.5 8.0898 2.7461 3.2891 5.7188 7.2734 9.0547 11.645h0.003906c16.414 23.059 31.141 47.273 44.062 72.457 7.8203 14.492 15.262 28.246 22.379 40.48 2.8203 5.5703 6.1602 10.859 9.9727 15.797 0.39453-0.007813 0.78906 0.011718 1.1836 0.058593-0.64844-10.461-0.48828-20.867-0.375-31.32v-0.003907c-1.7617-7.5039-4.3516-14.793-7.7148-21.73-2.2578-4.8477-4.1445-9.9766-7.0039-15.195-1.293-2.5859-2.6406-5.2305-4.0391-7.9297-0.64844-1.3398-1.3516-2.7461-2.0547-4.0977l-0.53516-1.0234-0.11328-0.27344-0.054688-0.046874-0.32031-0.48828-1.1914-1.9414v0.003906c-6.0117-9.7539-12.641-19.117-19.836-28.031-6.6289-8.4375-12.609-16.227-17.195-23.129-5.7812-6.9414-9.8125-15.168-11.754-23.992 1.1914-0.81641 6.6836 7.9766 16.93 20.156 5.2773 6.1484 11.531 13.539 18.543 21.676 7.8633 8.9922 14.961 18.621 21.227 28.793l1.293 2.0547 0.32812 0.48828 0.21484 0.42969 0.10156 0.26172 0.54297 1.0312c0.69531 1.3984 1.3398 2.7461 2.043 4.0977 1.293 2.7461 2.6445 5.3906 3.9375 8.0234 2.6992 5.1758 4.5273 10.781 6.6836 15.75 1.3516 3.0664 2.3711 6.0391 3.3477 9 22.914-18.75 18.168-50.57 19.996-77.305l0.003907-0.003906c-6.1914-16.805-13.465-33.191-21.777-49.059-8.8438-16.336-20.59-30.926-34.66-43.059-10.836-9.4297-18.328-14.664-17.625-15.938 0.53516-0.9375 9.2734 2.3164 21.617 10.836h0.003906c16.207 11.434 29.488 26.527 38.754 44.062 1.5078 3.1211 3.0195 6.1953 4.4258 9.2148-2.2695-9.543-4.3125-18.113-5.625-25.125-1.9414-10.781-2.4297-17.57-1.2461-17.812 1.1797-0.24219 3.9375 5.9258 7.5 16.227 3.5625 10.305 8.1953 24.523 12.188 40.867 1.0781 4.8203 2.0156 9.5664 2.7109 14.148zm-40.812-258.45c1.668-0.86328 1.0781-0.054688 0.9375-1.3516-0.23828-1.1914-0.61719-2.3477-1.1328-3.4492-1.6406-3.1875-3.457-6.2812-5.4375-9.2695-0.74609-1.1172-1.1797-2.4102-1.2461-3.75-1.0391 0.078124-2.082 0.078124-3.1211 0-3.8828-0.375-5.2891-1.9414-5.2891-3.1211 0-1.1797 2.3242-2.1094 4.4258-3.2344v-0.003907c2.8242-1.1992 5.4648-2.7891 7.8555-4.7148 0.86719-0.71875 1.5703-1.6211 2.0547-2.6445 0.25391-0.51563 0.36328-1.0938 0.31641-1.668-3.6094-1.5664-7.7617-2.2695-11.25-3.75-5.5039-1.8906-10.254-5.5078-13.535-10.312-0.70313-0.64062-1.3047-1.3867-1.7812-2.2109-7.5-13.688-13.527-28.406-30.289-32.617h-0.003906c-11.266-3.3008-22.887-5.2539-34.613-5.8203-2.4844 0-5.0156 0.054688-7.6016 0.21484-0.60156 0.32812-1.1602 0.72656-1.668 1.1914-1.1484 1.4023-1.6562 3.2188-1.4062 5.0156 0.16797 1.1289 0.48438 2.2305 0.9375 3.2812 1.0234 1.9023 1.7305 3.9609 2.0977 6.0938 0.09375 1.418-0.20312 2.8359-0.85937 4.0977-0.5625 1.0078-1.3125 1.9062-2.2031 2.6406-1.207 0.91406-2.5312 1.6562-3.9375 2.2148-0.52344 0.24609-1.0664 0.44141-1.625 0.58984 0.44922 1.2109 0.76172 2.4688 0.9375 3.75 0.11328 1.1367 0.019532 2.2891-0.26953 3.3945-0.40234 1.332-1.1914 2.5156-2.2695 3.3945-0.4375 0.35156-0.90234 0.66406-1.3984 0.9375 0.14063 0.19531 0.25 0.41406 0.32031 0.64453 0.38281 0.86328 0.38281 1.5078 0.054687 1.875-0.32812 0.36719-0.9375 0.38281-1.875 0.16797l-1.6211-0.60156c-0.58984-0.10156-1.2383-0.21484-1.875-0.375v0.003906c-3.9766-0.90234-8.0586-1.2656-12.129-1.0781-2.7266 0.12109-5.4219 0.57422-8.0352 1.3477-23.664 6.3672-3.6094 24.148 9.168 28.734 5.1641 2.0898 10.852 2.5234 16.273 1.2383 3.4961-1.1758 6.5586-3.375 8.7969-6.3086 1.5078-2.4766 2.9609-3.9844 3.8828-3.8242 0.91797 0.16016 1.293 2.1016 1.0234 5.8789h-0.003907c-0.52344 2.2852-1.418 4.4688-2.6445 6.4688-0.86328 1.0781-1.7734 2.3711-2.9062 3.5625-1.293 0.96094-2.6953 1.9844-4.2109 3.0664v-0.003907c-7.4062 3.5781-15.875 4.2891-23.773 2-1.0781-0.27344-2.2031-0.58984-3.3359-0.9375 1.875 2.418 3.75 4.7891 5.3359 7.2734h-0.003906c3.1914 6.3711 5.0781 13.316 5.5508 20.43 1.5938 15.387 1.8789 30.883 0.84375 46.32 12.188 2.8125 24.523 5.2891 36.77 7.5 18.281 2.5039 36.879 1.3516 54.711-3.3945l1.9414-1.9414c-3.9219 0.43359-7.8906 0.03125-11.645-1.1797l-1.125-0.32812-0.27344-0.054688-0.85938-0.32031-1.875-0.70312c-1.1797-0.42969-2.3711-0.9375-3.6094-1.4062-2.4297-0.9375-4.9023-1.875-7.5-3.1211-5.1289-2.3711-10.086-4.7422-14.559-7.332-4.4727-2.5859-8.8398-5.1758-12.836-7.8203-1.0234-0.70313-1.9883-1.3516-2.9609-1.9961l-0.53516-0.32031-0.12109-0.082031-0.32031-0.27344-0.64844-0.48828-1.2734-1.1133c-0.86328-0.70312-1.7266-1.3516-2.5312-2.043-0.9375-0.9375-1.7812-1.7812-2.6992-2.6445-3.2578-3.2891-5.7578-7.2461-7.332-11.598-1.6953-5.8633-2.0625-12.031-1.0781-18.055 0.58984-3.9922 1.4062-6.2539 2.3164-6.2539 0.91016 0 1.9414 2.043 2.9727 5.9258 1.0352 5.0508 2.625 9.9688 4.7422 14.672 1.5391 2.6875 3.5898 5.0469 6.0391 6.9453 0.64844 0.54297 1.293 1.0781 1.9883 1.6211 0.86328 0.58984 1.7812 1.1797 2.6992 1.7812l2.4766 1.6133c0.9375 0.54297 1.9492 1.0781 2.9727 1.6211 3.9375 2.2578 8.0352 4.5859 12.508 6.7422 4.3672 2.3711 8.8984 4.4141 13.527 6.5625 2.2109 1.1328 4.8008 2.1016 7.1719 3.0742 1.2383 0.48828 2.4297 0.9375 3.6094 1.5078l1.7812 0.70312 0.48828 0.21484h0.21484l0.70312 0.21484-0.003906 0.003906c3.0977 1.3516 6.5859 1.5234 9.8047 0.48828 3.1602-1.3047 5.9414-3.3828 8.0898-6.0391 2.3516-2.7266 4.543-5.5859 6.5625-8.5664 0.48828-0.70313 0.9375-1.293 1.3516-1.9961 4.2578-8.0352 9.6484-17.148 5.7188-25.012v-0.003906c-1.0586-2.1328-1.1602-4.6172-0.27734-6.832 0.88672-2.2148 2.6719-3.9453 4.9102-4.7656 0.17188-0.10547 0.35156-0.20312 0.53125-0.28906zm-109.07-72.094c0-0.10156 0-0.21484-0.10156-0.32031l-1.0234-2.3828v0.003906c-1.6875-3.7344-1.9375-7.957-0.70312-11.859-19.43 1.4922-37.062 11.918-47.738 28.219-14.215 23-16.23 51.512-5.3906 76.285 6.2812 12.164 10.457 25.309 12.348 38.867 4.3594 1.3984 8.7266 2.7461 13.125 3.9844 1.8906-16.094 1.1602-32.383-2.1562-48.242-2.4023-5.5195-5.2227-10.848-8.4375-15.938-3.8242-8.0352-6.1484-17.523-9.375-25.715v-0.003906c-2.4766-6.8008-1.6484-14.363 2.2383-20.469 3.8867-6.1055 10.391-10.055 17.598-10.691 3.6211-0.49219 7.293-0.43359 10.895 0.16797 3.0195 0.47656 5.957 1.3633 8.7383 2.6328 0.99219 0.015626 1.9805-0.058593 2.9609-0.21484 0.16797-0.042969 0.32812-0.09375 0.48828-0.16016-0.66016-1.793-1.5469-3.4961-2.6445-5.0625l-3.2344-4.7422 5.7656-1.875c1.875-0.58984 3.75-1.2383 5.3359-1.9414l1.1328-0.53516zm-42.32-132.55c6.3086-12.133 10.031-45.496-11.371-45.984-3.2891-0.10156-11.699-1.5664-12.664 3.0742-0.81641 3.9844 10.398 6.1953 13.586 7.7617l-0.003906 0.003906c2.1953 1.2695 4.207 2.8281 5.9805 4.6406 1.6211 1.8438 2.9297 3.9336 3.8828 6.1953 0.92969 2.0898 1.4414 4.3438 1.5078 6.6289-0.089843 1.9375-0.40234 3.8555-0.9375 5.7188-0.65625 1.4648-1.4141 2.8867-2.2578 4.2578-0.65625 0.81641-1.418 1.5391-2.2695 2.1562-1.3398 1.0234-2.3164 1.4531-2.8125 1.1328-0.49609-0.32031-0.54297-1.4531-0.11328-3.0742 0.16016-0.80469 0.70312-1.875 0.86328-2.8125 0.14453-5.1992-1.2383-10.324-3.9805-14.742-2.7422-4.418-6.7188-7.9336-11.441-10.113-3.4961-0.80469-12.723 0.054688-8.4375 5.2891 2.2031 2.6914 7.5 1.6133 9.6484 4.5859l0.70312 0.9375c1.5469 2.3789 2.5586 5.0664 2.9609 7.875 1.168 9.0938-0.52734 18.324-4.8555 26.406-3.1406 6.2266-6.9922 12.066-11.484 17.402-7.4453 9-12.617 13.855-13.641 13.125-1.0234-0.73047 2.418-7.1172 8.3516-16.82 3.4766-5.4922 6.5234-11.242 9.1133-17.203 3.668-7.2539 5.0586-15.445 3.9844-23.504-1.6133-4.2578-11.43-8.0352-15.254-4.7422-3.2344 2.8125 0.375 8.8984 0.375 12.188-0.41016 4.0781-1.7578 8.0078-3.9375 11.484-3.6133 5.8594-8.6094 10.746-14.547 14.23-11.914 7.7734-25.227 13.594-30.461 27.871-9.8711 27.121-25.715 36.723-53.102 44.43 8.1602 10.582 15.289 21.918 21.293 33.852 14.406-13.023 29.504-25.262 45.234-36.656 18.168-12.938 53.438-26.25 63.289-47.23 5.793-12.215 6.6016-26.332 12.797-38.363zm-17.465 254.9c-3.2891-16.93-11.102-31.434-15.414-47.117-17.305 1.9883-28.359 16.117-35.43 31.105 2.6445 0.26172 5.3438 0.53516 8.0898 0.9375h0.003906c14.859 3.0898 29.238 8.1602 42.75 15.074zm-25.773 5.625c-0.9375-0.32031-1.7734-0.64844-2.6914-0.9375h0.003906c-17.582-3.8125-35.5-5.8555-53.484-6.0938-1.875-0.16016-3.75-0.48828-5.625-0.80469 1.1914 2.0469 2.5273 4.0078 3.9922 5.8672 2.8906 3.4375 6.0234 6.6641 9.375 9.6562 5.7109 5.1758 9.6484 8.4375 9 9.4297-0.64844 0.99219-5.3359-0.32031-12.562-4.5859v0.003906c-4.2773-2.5664-8.2227-5.6406-11.758-9.1602-3.918-3.9102-6.918-8.6406-8.7812-13.855-28.438-8.7383-53.188-31.238-77.871-46.238-0.77344-0.48047-1.4648-1.082-2.0508-1.7812-29.164 0-56.176 12.348-84.375 18.602 26.25 23.438 61.191 37.949 89.598 58.547 6.4688 4.6875 12.938 9.4297 19.305 14.289 5.1172 1.2383 10.621 2.3164 16.387 3.2344 15.938 2.3711 30.836 3.9375 41.512 6.4688 10.883 2.4844 16.82 5.7188 16.547 6.8438-0.375 1.293-7.1172 0.21484-17.523-0.47656-10.453-0.86328-25.117-1.3516-41.512-3.75 3.6641 3.1328 7.2852 6.3672 10.789 9.6484 9.1016 8.5781 24.742 15.535 30.723 27.121v-0.003906c1.3672 2.6602 2.5898 5.3984 3.6641 8.1914 16.07-13.125 24.75-28.68 37.5-46.199 10.605-14.766 24.348-26.195 29.84-43.988zm-91.051-126.56h0.003907c-0.125-0.21875-0.21484-0.44922-0.27344-0.69531-4.4141-15.102-15.852-26.793-24.148-39.844-0.054687-0.054688-0.054687-0.16016-0.11328-0.21484-18.926 5.0859-36.309 14.746-50.625 28.125-9.4688 9.8164-20.223 18.305-31.969 25.23-20.316 11.305-64.793 32.961-50.887 60.055 24.797-4.3125 48.414-14.062 72.945-18.543-8.5703-1.0078-17.199-1.4766-25.828-1.4062-8.5703 0.86328-17.227 0.074219-25.5-2.3164 8.1719-2.6797 16.711-4.0625 25.312-4.0977 9.3398-1.0469 18.762-1.1602 28.125-0.32812 5.5664 0.60156 11.082 1.6133 16.5 3.0195 1.3984 0.38281 2.8125 0.75781 4.0391 1.0312 1.2305 0.32812 2.4844 0.54297 3.75 0.64844l1.1914 0.10156c1.5078-1.1797 2.9609-2.4297 4.4141-3.6641-7.332-1.293-14.176-2.9609-20.43-4.4141-8.7383-2.0547-16.387-3.8359-22.855-4.8008l0.003906-0.003907c-7.125-0.33594-14.207-1.2422-21.188-2.6992 6.7617-3.2617 14.352-4.4062 21.777-3.2812 8.0156 0.44531 15.996 1.4336 23.879 2.9648 4.5391 0.75 9.375 1.668 14.242 2.5312h-0.003907c-3.1445-2.3984-6.4609-4.5625-9.9258-6.4688-4.3594-2.4766-8.5117-4.5273-12.02-6.3086-7.0039-3.5078-11.371-6.0391-10.996-7.2734 0.375-1.2383 5.4453-0.80469 13.312 1.2383v-0.003907c4.6055 1.2852 9.1133 2.9062 13.48 4.8555 5.6641 2.4375 10.879 5.8086 15.422 9.9766 1.1133 1.0352 2.1055 2.1914 2.9609 3.4492 0.64844 0.75 1.1914 1.582 1.6133 2.4727 14.84-12.75 29.27-26.117 43.793-39.328z"/>
 <path d="m725.88 632.43c0.9375 2.3711-18.441 11.43-43.293 20.27-24.91 8.0898-45.77 12.676-46.527 10.312-0.75781-2.3633 18.816-10.895 43.727-18.93 24.578-8.793 45.176-13.969 46.094-11.652z"/>
 <path d="m503.6 834.05c0.54297 4.3125 0.54297 6.7422-0.10156 6.8438-1.4531 0.32812-3.8828-8.7852-10.312-22.098-1.7812-3.2344-3.4492-6.957-5.8203-10.566-1.1914-1.875-2.2695-3.75-3.5625-5.625s-2.7461-3.8359-4.1445-5.7734h-0.003906c-6.4375-8.4258-13.559-16.309-21.301-23.559-16.66-15.414-33.582-27.656-45.449-37.145-11.867-9.4883-18.805-15.938-18.055-16.875s8.9531 3.6094 21.777 11.699v0.003907c17.043 10.434 33.105 22.395 47.98 35.734 8.1602 7.6523 15.496 16.137 21.891 25.312 5.1562 7.5664 9.375 15.73 12.562 24.312 2.1641 5.7266 3.6875 11.672 4.5391 17.734z"/>
 <path d="m419.18 924.04c11.055 10.828 14.184 19.688 13.367 20.211-1.1797 0.9375-6.5625-6.8984-17.625-15.422-15.188-10.941-31.398-20.383-48.41-28.191-16.93-7.5703-34.945-12.43-53.383-14.398-7.8867 0.027344-15.754-0.85547-23.438-2.6367 7.4766-3.3125 15.691-4.6055 23.82-3.75 19.684 0.11719 39.109 4.4297 56.992 12.648 17.73 7.9844 34.145 18.617 48.676 31.539z"/>
</svg>
