<?xml version="1.0" encoding="UTF-8"?>
<svg width="1200pt" height="1200pt" version="1.1" viewBox="0 0 1200 1200" xmlns="http://www.w3.org/2000/svg">
 <path d="m1138.6 425.08c11.195 0.9375 26.859 3.1016 21.348 14.465-5.8516 12.047-17.27 15.836-27.367 23.184-16.359 11.879-25.48 30.637-41.324 43.32v0.003907c-8.9375 7.2461-19.812 11.695-31.266 12.797-0.42578 1.4141-1.1953 2.7031-2.2383 3.75-29.062 29.203-45.73 67.5-76.434 96.461v-0.003906c-25.703 24.855-55.578 44.996-88.258 59.504-80.906 34.895-173.52 24.102-259.43 25.312-3.9219 15.398-10.781 29.895-20.203 42.695-0.28906 0.40234-0.62891 0.75-0.9375 1.0977v-0.003907c5.7539 20.211 9.2539 40.992 10.445 61.969 0.55469 0.30859 1.0703 0.67578 1.5469 1.0977 27.711 22.664 49.695 51.543 64.16 84.293 0.33594 0.16797 0.68359 0.23437 1.0859 0.40234 12.562 6.1406 22.781 15.891 35.344 22.031h0.003906c2.3203 1.6172 3.7695 4.2109 3.9258 7.0352 0.16016 2.8242-0.99219 5.5664-3.1211 7.4297-12.238 11.973-23.125 25.246-32.473 39.59-7.4023 9.8086-16.891 17.844-27.781 23.531 8.0898 20.625 20.773 48.375 12.395 70.238-7.0586 18.535-42.348 26.57-58.875 31.789-36.496 11.477-73.273 3.0391-110.8 0.9375-42.066-2.4102-82.742-6.7109-121.88-23.242l0.003907 0.003906c-1.8594-0.62891-3.3516-2.0391-4.0898-3.8555-0.73828-1.8164-0.64844-3.8672 0.24609-5.6133-0.5625-1.6328-0.60156-3.3984-0.11328-5.0547 1.668-6.2695 2.8555-12.656 3.5508-19.105-0.050782-4.0117 0.21875-8.0234 0.80859-11.992 0.62891-21.77-4.0781-43.363-13.715-62.895-0.35938-0.14453-0.70313-0.32031-1.0312-0.51562-16.996-11.305-29.281-28.422-34.547-48.141-0.0625-0.23828-0.10937-0.48047-0.13281-0.72266-15.723-19.164-37.246-32.992-48.32-55.773-0.34766-0.28906-0.62891-0.58203-0.9375-0.9375-35.66-39.02-66.332-82.32-91.301-128.91-0.14844-0.30078-0.26562-0.61328-0.34766-0.9375-0.054688-0.11328-0.16797-0.11328-0.22656-0.22656-20.953-24.852-48.148-43.125-69.609-67.367-5.5117-6.1953-10.613-12.742-15.496-19.453l-2.6328-1.2656 1.3789-0.57031c-12.277-17.645-23.227-36.176-32.766-55.438-13.031-25.648-30.648-53.711-37.875-81.711-4.3203-12.48-1.7266-26.309 6.8242-36.375 19.117-22.613 39.477-44.016 58.473-66.797 16.641-22.098 36.574-41.508 59.109-57.555 13.66-8.7852 62.953-31.508 62.492-49.125-1.4961-9.5664-1.4414-19.312 0.16797-28.863 4.9375-11.867 9.1719-24.012 12.684-36.375 0.20312-0.98438 0.59375-1.918 1.1445-2.7578-0.62891-19.285-12.336-43.039-3.0391-58.988 4.875-8.2695 15.938-3.8438 21.281 0.57031l0.003906 0.003906c5.5547 5.3711 8.4727 12.91 7.9766 20.625-0.11328 4.9414-1.875 17.906 3.8984 20.625 7.5-14.41-2.4102-31.219 1.2109-45.742 2.9258-12.047 11.992-31.098 25.078-16.238 3.3516 4.1641 5.7227 9.0273 6.9375 14.234 2.7891-3.7188 7.0703-6.0234 11.711-6.3125 13.258-0.46094 15.496 15.148 13.941 32.586 5.0547-6.1953 10.105-8.6641 13.949-2.0078v0.003907c4.9102 9.5234 7.0703 20.227 6.2422 30.91s-4.6133 20.926-10.93 29.578c8.1758-1.1953 16.516 0.48828 23.586 4.7617 1.8711 0.76953 3.6602 1.7305 5.3359 2.8711 3.8281 2.125 6.3477 6.0195 6.7109 10.387-0.29688 4.4922-2.6172 8.6055-6.3086 11.184-1.3047 1.1133-2.9727 1.707-4.6875 1.668-0.57031 0.28125-1.2109 0.51562-1.875 0.79688-0.11328 0.054687-0.22656 0.054687-0.28906 0.12109h-0.003906c-10.32 3.0742-20.344 7.0703-29.953 11.938-11.773 9.1367-21.293 20.855-27.824 34.254-11.453 18.891-25.051 36.395-40.52 52.164-26.445 27.711-52.734 55.312-77.062 84.93-6.7109 8.2578-13.367 16.641-19.688 25.191-2.0703 2.8125-18.656 22.145-17.445 24.617 9.75 19.789 30.414 32.766 43.781 49.977 14.062 18.02 26.914 37.07 40.855 55.199 11.5 15.418 24.941 29.281 39.996 41.25-0.11328-22.5 0.63672-46.023 12.742-64.902h-0.003906c-13.867-6.0664-23.672-18.797-25.996-33.75-0.9375-12.852 4.8828-24.617 3.5078-37.5-1.7031-10.77-1.3867-21.766 0.9375-32.418 11.699-43.613 45.938-78.441 93.02-61.574h-0.003906c1.3906 0.47656 2.6367 1.3086 3.6094 2.4062 45.16-11.699 81.195 35.23 86.477 74.832 24.73 27.027 20.887 72.133 8.6719 104.55-1.9805 5.3984-4.9844 10.367-8.8398 14.633 1.4336 2.9805 2.6992 6.0859 4.1914 9.0078v0.003906c2.1094 0.34375 4.0273 1.4414 5.3906 3.0938 15.223-1.4336 30.008-5.8789 43.5-13.078 0.58594-0.6875 1.2422-1.3125 1.9492-1.875 44.062-33.461 134.16-61.688 179.06-16.414 49.867 1.0312 98.699-11.531 148.51-12.508 0.36719 0.007813 0.73047 0.042969 1.0898 0.11328 39.07-14.035 74.766-36.105 104.78-64.781 25.594-24.852 56.746-39.086 84.871-60.367h0.003906c0.90234-0.72656 1.9609-1.2383 3.0938-1.5 0.51563-4.5859 1.3203-9.1797 2.2422-13.828h-0.003906c-2.5039-9.9219-5.8438-19.617-9.9844-28.977-8.0352-22.32 38.727-24.215 46.762-7.6875 11.539 23.645 38.164-29.383 43.902-40.914 4.4727-8.9531 13.539-30.355 27.188-29.148 13.883 1.2578 14.062 13.828 10.848 26.336 5.2773-3.2734 10.555-4.5391 13.941 0.40234 10.707 15.441-8.4648 38.363-19.941 53.336zm9.7031-36.891c1.1992-2.0156 3.6641-4.4258 2.6328-7.0586-1.1992-2.9922-3.3828-1.875-5.8516-0.34766-10.68 6.5625-10.5 19.855-17.043 28.867l0.003906-0.003906c-3.75 5.1953-7.8516 10.121-12.281 14.75-3.4414 3.6758-6.0273 5.793-7.1719 5.0547-0.86328-0.52344-0.75-2.5859 0.22656-5.6797v-0.003907c1.8086-7.8125 4.668-15.344 8.4922-22.387 2.4297-4.8047 5.3555-9.3438 8.7266-13.539 0.11328-0.40234 0.16797-0.75 0.28125-1.1445 2.8672-6.4883 11.766-45.449-2.9805-18.75-4.9297 9.0078-8.6055 19.105-14.344 27.656-10.445 15.723-19.914 37.707-40.227 41.664 0.98828 4.25 1.1445 8.6523 0.45703 12.965-0.74219 3.5625-2.0078 5.6797-3.3281 5.6797-1.3203 0-2.5234-2.1172-3.5547-5.4453s-1.9609-7.6328-3.2148-12.113c-3.2734-10.5-10.5-27.309-24.273-22.32-16.359 5.9141 3.3828 20.035 5.2227 29.438 2.9805 15.664-7.293 34.949 2.0078 49.18 0.74219 0.68359 1.4922 1.3203 2.2422 2.0625 3.625 3.5117 7.9141 6.2617 12.617 8.0898 1.6602 0.61328 3.5234 0.28906 4.875-0.85156 1.9219-1.5781 3.0898-3.8906 3.2188-6.375-0.46484-4.4414 0.22656-8.9258 2.0039-13.023 0.58203-0.9375 1.0391-1.4336 1.5547-2.1836l0.22656-0.28906 0.57031-0.74219 0.12109-0.11328 0.46094-0.46094 0.9375-0.86328c1.2578-1.2109 2.5234-2.4102 3.75-3.4414v0.003906c4.2422-3.4414 8.2109-7.2031 11.879-11.25 5.2773-6.7695 6.8242-13.312 8.3711-12.852 0.63672 0.16797 0.9375 1.7812 0.86328 4.5938-0.26953 4.2227-1.4609 8.3359-3.4961 12.047-3.2109 5.1016-7.0664 9.7695-11.477 13.883-1.0977 1.1523-2.2422 2.3516-3.3945 3.5078l-0.85156 0.9375-0.23438 0.28906c-0.51562 0.70312-0.99609 1.4297-1.4336 2.1836 0.054688 0.40234-0.054688 0.46094-0.11328 0.9375-0.12891 0.61719-0.1875 1.2461-0.16797 1.875-0.066406 1.4453 0.16797 3.2734 0 5.6797v0.003906c-0.039062 1.4492-0.3125 2.8828-0.80469 4.2461 13.523-8.0586 25.059-19.059 33.75-32.184 10.5-13.125 25.594-17.504 36.383-29.324 2.0078-2.1836-15.383-4.5938-17.906-5.2227-1.7891-0.53125-3.2383-1.8555-3.9336-3.5859-0.69531-1.7344-0.55859-3.6914 0.37109-5.3125 3.0977-5.0742 6.4922-9.9609 10.164-14.633 5.6836-7.7227 10.918-15.766 15.672-24.094zm-106.27 126.12c-0.51562-0.40234-1.0977-0.68359-1.6133-1.1445-8.9219-6.5898-14.898-16.422-16.641-27.375-14.457 10.039-30.121 18.02-44.699 27.836 6.293 16.156 19.91 28.348 36.664 32.812 0.38672 0.070313 0.75781 0.20703 1.0977 0.40234 7.5625-11.465 15.984-22.34 25.191-32.531zm-48.836 45.449c2.3984-0.03125 4.793-0.18359 7.1719-0.45703-15.582-7.1133-28.184-19.457-35.625-34.887-12.852 10.727-24.328 22.895-37.641 33.16-19.621 15.27-40.82 28.395-63.242 39.141 1.957 0.48438 3.875 1.1133 5.7383 1.875 4.1211 1.8047 7.8164 4.4609 10.836 7.8008 2.0703 2.125 3.6406 4.6875 4.5938 7.5 0.62891 1.875 0.69531 3.1016 0.11328 3.4961-1.0859 0.9375-4.3594-2.7461-9.2344-5.9062-2.9258-1.9531-6.1133-3.4805-9.4688-4.5391-3.3398-0.95312-6.7617-1.6094-10.219-1.9492 0.28906 0.17969 0.58203 0.40234 0.86328 0.57031v0.003906c2.0234 1.5508 3.9414 3.2383 5.7383 5.0508 1.4336 1.875 2.8125 3.5625 3.9648 5.1094 4.1914 6.7109 5.1016 11.477 4.0117 12.047-1.2656 0.75-4.3047-2.8125-9.2891-7.6328v0.003907c-5.6797-5.9648-13.199-9.8477-21.348-11.016 2.5391 5.2383 4.2773 10.828 5.1562 16.582 0.34766 6.0859-0.28125 9.75-1.4336 9.9844-1.1523 0.23438-2.7461-3.2148-4.6875-8.7852-2.7266-6.1328-5.9219-12.047-9.5547-17.688-32.645 0.69531-64.836 6.3086-97.199 9.8164v-0.003907c0.61719 23.211 4.6562 46.203 11.988 68.234 0.042969 0.085937 0.0625 0.18359 0.058594 0.28125 51.074-0.62891 101.79-5.625 147.42-27.141 33.621-16 63.895-38.238 89.223-65.531 7.5469-8.2383 14.492-17.012 20.773-26.25-2.8594 0.5-5.7578 0.76563-8.6641 0.79688-11.977 0.67578-23.629-4.0625-31.734-12.91-2.3164-2.832-3.875-6.207-4.5273-9.8086-0.17969-2.3516 0.054687-3.75 0.68359-3.9648 0.62891-0.21484 1.6016 0.80469 2.9258 2.7578 1.6836 2.332 3.6484 4.4531 5.8516 6.3086 7.7539 5.6133 17.191 8.418 26.754 7.9492zm-266.68 127.85c-2.7383-8.6602-4.9805-17.473-6.7109-26.391-7.2461-0.066406-14.488 0.28125-21.695 1.0312-2.2305 0.22656-4.4141 0.46094-6.5625 0.62891-1.1523 0.11328-2.1289 0.17969-2.9336 0.28906l-2.9805 0.46094c-4.0117 0.68359-8.0898 1.3789-11.934 1.9492h-0.003906c-6.957 1.1055-14.02 1.4531-21.055 1.0312-3.0039-0.17578-5.9453-0.91797-8.6719-2.1836-2.6016-1.1172-4.3516-3.5977-4.5273-6.4219 0.027344-1.5508 0.57031-3.043 1.5469-4.2461 0.57031-0.68359 1.0859-0.9375 1.3789-0.86328 0.75 0.11328 0.054688 2.5234 0.80469 4.5938 0.46094 0.9375 1.1445 1.4922 2.8672 1.9492 2.2344 0.40234 4.5078 0.51562 6.7695 0.34766 6.5273-0.57812 13.008-1.5938 19.398-3.0469 3.75-0.74219 7.6523-1.5469 11.711-2.4102l3.2617-0.62891c1.2656-0.17969 2.4102-0.28906 3.4492-0.40234l6.5625-0.68359c6.9805-0.69141 14-0.90625 21.008-0.63672-1.6133-10.383-2.5938-20.852-2.9336-31.352-12.473 1.0352-24.992 1.3789-37.5 1.0312-2.4844-0.003906-4.832-1.1445-6.375-3.0938-0.60156-0.375-1.1602-0.81641-1.6602-1.3203-37.762-38.906-117.12-11.477-155.91 16.359 30.133 12.617 58.93 31.211 76.098 58.809-0.52344-5.6797-1.0977-11.531-2.0703-17.559-0.34766-2.3438-0.74219-4.6875-1.0859-6.9375l-0.80469-4.8203 4.4805-0.9375h-0.003907c3.7852-0.41016 7.543-1.0625 11.25-1.9492 2.5273-2.2539 4.7383-4.8438 6.5625-7.6992 4.1758-6.0781 9.8477-10.98 16.469-14.23 4.5312-2.0273 9.5469-2.7227 14.457-2.0039 3.3281 0.62891 4.9961 1.3203 4.9414 1.9492s-1.875 1.1523-4.8828 1.6133c-4.0859 0.64062-8.0078 2.0859-11.531 4.2461-5.0898 3.5-9.3438 8.0859-12.453 13.426-1.0312 1.6016-2.1836 3.2734-3.2734 4.9883l0.003906-0.003906c-2.8164 4.7891-7.875 7.8164-13.426 8.0352-0.53125 0.12891-1.0703 0.22656-1.6133 0.29297 0.17969 0.86328 0.28906 1.6602 0.46094 2.4648 1.8203 12.574 2.4961 25.289 2.0156 37.988 2.2305 5.1094 4.3594 10.312 6.2539 15.496 5.7812-9.5234 9.875-19.973 12.102-30.891 0.21875-1.2031 0.71094-2.3438 1.4336-3.3281 0.29688-1.0977 0.82812-2.1211 1.5586-2.9922-1.3359-0.47266-2.6406-1.0273-3.9102-1.6602-7.0586-3.6172-10.5-7.0039-10.039-8.1484 0.57031-1.3203 5.3984 0.054688 12.684 1.875v0.003906c9.3477 2.1133 18.812 3.6641 28.348 4.6406l4.4727 0.34766c24.301 0.074218 49.211 0.87891 74.203 0.99219zm-77.211 295.64c27.77-9.0664 38.383-36.844 57.188-56.691-8.1328-5.9531-16.641-11.379-25.465-16.246-1.5781-0.72656-2.8672-1.957-3.6641-3.4961-1.8555-0.98047-3.3047-2.5898-4.0781-4.5391-13.617-30.996-34.523-58.238-60.938-79.414-0.52344-0.47266-1.0039-0.99219-1.4336-1.5469-2.1992-0.97266-3.8555-2.8633-4.5391-5.168-2.4648-1.2109-5.1094-2.4648-8.0352-3.75-9.8047-4.3047-22.086-9.0664-35.523-13.426l0.003907 0.003906c-14.879-4.3828-30.02-7.8281-45.328-10.312-16.414-2.9805-32.25-5.9062-46.426-9.9297-12.77-3.3164-25.012-8.3984-36.375-15.094-2.3398-1.3359-4.5859-2.8281-6.7227-4.4727-2.0078-1.5469-4.0117-2.8672-5.6719-4.4141-2.875-2.5547-5.5977-5.2773-8.1562-8.1484-3.75-4.8828-5.625-7.8086-5.1641-8.2695 0.46094-0.46094 3.2734 1.6133 7.9219 5.6797 2.2969 2.0625 5.3984 3.8984 8.6641 6.4883 1.7266 1.1992 3.75 2.2305 5.8047 3.4961l-0.003906 0.003906c2.1172 1.3789 4.3438 2.5898 6.6562 3.6172 11.227 5.5469 23.074 9.7422 35.285 12.508 13.828 3.4414 29.438 6.0273 45.938 9.0078 15.75 2.5195 31.273 6.3008 46.418 11.309 9.4688 3.4414 17.812 7.0039 25.367 10.613v-0.003906c-5.3086-3.4883-10.828-6.6523-16.527-9.4688-37.414-17.504-71.961-22.66-71.25-25.988 0.22656-1.2656 8.8984-0.98438 22.836 1.0312v0.003906c18.246 2.9375 35.996 8.4023 52.734 16.234 9.3594 4.6875 18.164 10.406 26.25 17.047-2.2422-30.824-10.508-60.906-24.328-88.547-15.777-29.84-45.562-50.625-77.062-63.348-0.9375 0.9375-5.457-1.6016-14.008-1.7812h-0.53125c-3.75 1.3203-7.5 2.5234-11.25 3.5078 1.0859 0.33594 2.2305 0.62891 3.3281 0.9375v-0.003906c5.9336 1.707 11.535 4.4023 16.574 7.9688 3.4531 2.5273 6.3164 5.7773 8.3828 9.5273 1.2109 2.6445 1.4336 4.2461 0.9375 4.6875-0.49609 0.44141-1.9492-0.62891-4.0117-2.4648-2.7695-2.2812-5.7695-4.2617-8.9531-5.9062-4.8984-2.3164-10.039-4.0664-15.328-5.2227-6.1328-1.4336-13.125-2.5859-20.766-4.8828-1.2656-0.33594-2.4766-0.79688-3.75-1.1992h-1.5469v-0.003906c-8.9883 11.301-20.301 20.539-33.172 27.086 4.3047 0.11328 8.8867-0.17969 13.539-0.17969 2.9258-0.054688 5.9141-0.054688 8.9531-0.11328 3.1602-0.22656 6.3086-0.40234 9.5234-0.57031 12.184-0.88281 24.414-1 36.609-0.34766 10.125 0.58984 20.145 2.375 29.852 5.3164 6.5977 2.0469 12.859 5.043 18.59 8.8984 3.8438 2.8672 5.625 4.875 5.2891 5.457-0.33594 0.58203-2.8789-0.40234-7.2383-2.1836v-0.003906c-5.9805-2.332-12.141-4.1758-18.422-5.5117-9.3945-1.875-18.941-2.8906-28.52-3.0391-10.836-0.22656-22.895 0.80469-35.691 1.5469-3.1484 0.17969-6.3672 1.0312-9.4688 1.0312h-9.4688c-5.8672 0.023438-11.734-0.33984-17.559-1.0859-5.6797-0.51562-11.07-1.2656-16.059-1.875-1.5547-0.28125-3.0469-0.51562-4.4805-0.79688-9.4219 1.2188-18.91 1.8086-28.406 1.7734 1.3789 0.51562 2.8125 1.0391 4.1328 1.6133v-0.003907c8.3945 3.5156 16.559 7.5586 24.441 12.105 13.32 7.7539 21.348 12.395 20.953 13.602-0.39453 1.2109-9.9297-1.3203-23.934-7.5-7.0586-2.9258-15.375-6.5625-24.617-9.9297l-0.003906 0.003906c-6.8516-2.5977-13.969-4.4258-21.223-5.4492-3.9531 1.043-7.9844 1.75-12.059 2.1211 1.3789 1.9492 2.7578 3.9648 4.2461 5.8594 1.4922 1.8945 3.0469 3.6094 4.5391 5.3906 0.74219 0.9375 1.4922 1.7812 2.1758 2.6328 0.625 0.71484 1.3008 1.3906 2.0156 2.0156 5.9609 5.5039 12.617 10.039 17.672 14.398 4.2734 3.3867 7.9609 7.4492 10.922 12.031 1.6016 3.3281 2.0078 5.3438 1.4922 5.6797-0.51563 0.33594-1.9492-1.1992-4.4141-3.8438h-0.003906c-3.7188-3.1953-7.6719-6.1094-11.82-8.7188-6.7734-4.0156-13.309-8.4219-19.566-13.199-1.0039-0.78906-1.9609-1.6289-2.8672-2.5234-0.75-0.86328-1.5-1.668-2.2969-2.5312-0.9375-1.0312-1.875-2.1172-2.8672-3.1484 8.3711 47.625 8.3164 109.26-32.25 139.5h-0.003906c0.98047 0.79297 1.7461 1.8164 2.2305 2.9805 10.621 22.434 32.371 35.625 47.457 54.684 0.96875 1.1758 1.6133 2.582 1.875 4.0781 0.56641 0.78906 1.0117 1.6602 1.3242 2.5781 3.2148 11.371 9.1172 21.801 17.211 30.414-1.6133-4.957-2.1992-10.188-1.7148-15.375 0.79688-8.3242 2.1758-13.199 3.4414-13.258 1.2656-0.054688 2.4648 5.1641 3.3828 13.023 0.48047 4.2812 1.5625 8.4727 3.2148 12.449 2.4375 4.6953 5.6016 8.9766 9.375 12.684 6.6562 7.332 14.488 13.504 23.176 18.254 6.7227 3.3828 11.539 4.1797 11.598 5.793 0 0.62891-1.2656 1.1445-3.75 1.4922-3.4609 0.35938-6.9609 0.066407-10.312-0.86328-5.8711-1.7031-11.391-4.4414-16.293-8.0898 3.9414 9.9805 6.8281 20.352 8.6055 30.938 0.75-0.57031 1.4922-1.2578 2.2422-1.7812 12.047-7.9141 20.887-7.1719 20.945-6.4219 0.46094 1.4336-7.8672 3.2148-17.102 11.25h-0.003906c-1.793 1.6602-3.4102 3.5039-4.8164 5.5039 0.46094 4.1914 0.68359 8.4375 0.79688 12.629v-0.003906c1.8281-1.7344 3.8086-3.3047 5.9141-4.6875 1.6016-0.9375 3.1484-1.875 4.6875-2.6445 1.3789-0.46094 2.7461-0.9375 4.0703-1.4336 3.0039-0.96094 6.1016-1.5898 9.2422-1.875 4.4531-0.027343 8.8438-1.043 12.855-2.9805 1.0312-0.68359 2.0078-1.3789 2.9258-2.0625s1.4922-1.3789 2.2422-2.0703c1.4922-1.4336 3.1484-2.6328 4.4141-4.125 10.5-11.766 15.43-21.18 16.809-20.43 0.9375 0.46094-1.4336 10.613-11.531 24.789-1.2656 1.7812-2.9805 3.3828-4.5273 5.2227-0.9375 0.9375-1.5547 1.6602-2.6992 2.8125-0.86328 0.74219-1.875 1.4922-2.7578 2.2422v-0.003906c-4.9844 3.1914-10.684 5.0859-16.586 5.5039-2.4375 0.29688-4.8398 0.83594-7.1719 1.6133-1.3203 0.51562-2.6445 1.0312-4.0117 1.6016l-2.9336 1.875c-4.4258 3.2188-8.2188 7.2266-11.188 11.824-0.03125 0-0.054687 0.023438-0.054687 0.054688-0.51953 7.1445-1.5586 14.242-3.1016 21.234 23.297-2.8125 43.781-14.633 67.199-16.988 31.5-3.2148 61.508-5.8594 86.992-26.68 0.16797-0.12109 0.28906-0.17969 0.46094-0.28906l-0.003906-0.003906c0.42188-0.59766 0.92188-1.1406 1.4922-1.6016 25.996-22.387 57.188-26.25 90.207-29.324h-0.003907c0.72656-0.078125 1.4609-0.070312 2.1875 0.027344zm-24.676 94.734c17.559-5.1562 38.906-13.078 38.672-23.812-1.457-18.602-6.1758-36.801-13.941-53.766-0.34766-0.046875-0.69531-0.12109-1.0312-0.22656-0.40234 0.054687-0.75 0.16797-1.2109 0.22656-28.004 2.5859-55.836 5.1641-78.039 24.273h0.003906c-0.13281 0.050781-0.25 0.12891-0.34766 0.23437-0.46094 0.61719-1 1.1758-1.6016 1.6562-19.809 16.188-43.93 26.203-69.375 28.812-22.031 1.9727-43.777 6.375-64.84 13.125-2.0625 0.62891-4.0781 1.1992-6.0859 1.7734l0.003906-0.003906c26.777 6.1602 54.094 9.6758 81.562 10.5 30.18 1.5547 66.965 11.539 96.289 2.6992 0.62891-0.16797 1.3789-0.40234 2.0625-0.57031 6.1445-5.0391 11.332-11.145 15.32-18.02 8.2695-17.559 7.5-35.98 10.734-35.805 1.3203 0 2.5781 4.3594 3.3281 11.586v0.003906c0.65625 9.8711-1.2227 19.746-5.457 28.688-1.6289 3.1289-3.6641 6.0273-6.0469 8.625zm-181.88-485.75c5.8516-25.707 11.352-56.691-9.1875-77.344-1.3359-1.2344-2.207-2.8906-2.4648-4.6875-0.28906-0.75781-0.48047-1.5508-0.57422-2.3555-2.0234-23.711-15.938-44.781-36.957-55.949-0.62891 0.67188-1.3672 1.2344-2.1836 1.6602-28.461 14.926-40.312 39.375-54.684 66.629-1.8828 3.5781-3.2539 7.4023-4.0703 11.363 0.32422 4.8867 1.5977 9.6641 3.75 14.062 3.5664 6.3594 8.0977 12.129 13.438 17.098 4.0703 4.1328 6.9375 7.1172 6.1406 8.2695-0.79687 1.1523-4.4805 0.40234-10.312-2.7578-4.2734-2.4062-8.1445-5.4648-11.477-9.0625 6.9062 21.969 22.441 40.191 43.039 50.492 26.027 11.852 57.422 17.879 65.516-17.418zm-4.7617 51.703c-1.9297-3.4414-3.6758-6.9844-5.2227-10.613-15.938 5.7383-36.215 1.6602-54.234-4.3047-9.4453-3.3555-18.188-8.4297-25.793-14.961 8.2578 17.738 6.0273 37.988 5.2773 57.328h0.003906c16.625 1.3398 33.359-0.3125 49.406-4.875 11.91-4.8398 22.414-12.605 30.531-22.574zm-85.875-372.76c3.8984-0.57031 9.9297-3.957 7.8008-9.1211-1.875-4.4727-9.582-3.957-13.48-4.0781h-0.003906c-9.6562-0.25-19.285 1.0703-28.52 3.9102-4.0742 1.418-7.9844 3.2812-11.652 5.5586-1.9492 1.2109-11.184 8.4375-9.2891 1.875 0.23828-0.86328 0.55469-1.707 0.9375-2.5195 0.42969-1.1211 1.0664-2.1523 1.875-3.0391 4.6328-5.5352 10.625-9.7656 17.391-12.281 1.1523-0.40234 2.2422-0.69531 3.3828-0.9375 0.15625-0.27734 0.32812-0.54688 0.51562-0.80469 7.0039-6.8477 12.125-15.387 14.871-24.789 0.9375-4.6875 1.875-11.363 2.5234-16.586 0.51562-4.0781-1.3203-16.012-7.5-10.312-4.7617 4.4141-1.2656 10.902-2.0625 16.18l-0.003906 0.003906c-0.94141 5.168-3.3281 9.9648-6.8906 13.828-12.852 15.383-8.6055-13.996-7.2266-19.914 0.98828-5.6992 1.3516-11.488 1.0859-17.27 0.23438-4.875 5.0547-24.102-6.0195-20.625-7.2383 2.2891-3.9102 19.621-5.7383 25.82-1.0391 3.4414-4.3672 26.973-8.6719 20.316-1.0859-1.668-0.40234-5.3359-0.51562-7.3516h0.003906c-1.5195-9.9102-2.207-19.93-2.0625-29.953 0.57031-4.5859 2.2969-7.8555 0.51563-12.508-1.875-4.8203-6.2539-9.3008-11.305-5.3359-4.4727 3.5547-1.5469 10.781-0.86328 15.148 0.86328 5.043 1.0977 10.379 1.6133 15.488 0.9375 8.4375 3.3828 22.211-3.3828 28.977-13.602 13.547-20.719-14.457-22.5-22.5-2.5234-11.766-12.508-27.027-8.0352-4.9414l-0.003906 0.007812c2.4414 10.383 3.6992 21.012 3.75 31.676 0.44922 0.39453 0.87109 0.81641 1.2656 1.2656 2.8008-0.56641 5.6875-0.58594 8.4922-0.054688 3.75 1.0312 5.7383 2.5234 5.5586 3.75-0.33594 2.2891-6.4766 2.6914-12.73 5.3359-3.0469 11.477-13.547 29.492-12.684 39.648 0.62891 7.0039 1.6016 14.41 1.6016 21.348 0 13.312-20.25 27.375-29.148 34.258-15.094 11.711-32.945 20.203-48.543 31.453l0.003906-0.003907c18.984 9.6289 35.59 23.367 48.598 40.219 11.711-12.617 23.531-25.246 35.465-38.156 20.945-22.5 34.023-48.891 53.195-72.242v-0.003906c5.8633-6.8672 13.094-12.438 21.227-16.359 8.7422-2.9766 17.922-4.457 27.16-4.3789zm18.301 175.13-0.003906 0.003906c-11.355 0.11719-22.391 3.7891-31.555 10.5-24.73 17.336-31.969 59.625-30.758 90.777 0.75-0.33594 1.6016-0.62891 2.3516-0.9375-0.34766-3.4336-0.03125-6.8984 0.9375-10.211 9.7969-33.551 29.879-69.297 59.023-90.129zm-29.777 230.39c0.46094-18.414 4.5859-39.883-4.2461-56.746-1.9609-1.0977-3.9102-2.2422-5.8047-3.5078 0.17969 3.1016 0.23438 6.0859 0.17969 8.8984-0.16406 7.4688-0.79297 14.926-1.875 22.32-1.7812 12.516-4.1914 20.148-5.5117 19.914-1.3203-0.23438-1.3203-7.9766-1.3203-20.43 0-6.1953 0.066406-13.602-0.22656-21.695-0.16797-4.0117-0.46094-8.2578-1.0312-12.449-0.28125-2.0508-0.68359-4.082-1.2109-6.082v-0.054688c-0.74219-1.0312-1.4336-2.0625-2.0625-3.1484-0.11328 0.054688-0.23438 0.16797-0.34766 0.22656l0.054687-0.46094 0.12109-0.11328c0-0.054687-0.066406-0.054687-0.066406-0.054687l0.003906-0.003907c-0.68359 0.92188-1.2617 1.9219-1.7148 2.9805-1.4414 3.7344-2.5625 7.5859-3.3477 11.512-1.668 7.8672-2.7578 15.148-3.75 21.348-1.875 12.281-3.75 20.148-5.1641 19.855-1.2109-0.23438-1.875-7.8008-1.668-20.484h-0.003907c0.14453-7.4922 0.77344-14.965 1.875-22.379 0.62891-4.625 1.7617-9.168 3.3867-13.547 0.28906-0.68359 0.63672-1.4336 0.9375-2.1758-1.5977-0.73438-3.1367-1.6016-4.5938-2.5859-15.836 18.883-12.965 47.691-12.852 70.754v0.054688h-0.003907c15.188 8.7773 33.074 11.645 50.242 8.0547zm-11.25-88.715c0.054688-0.11328 0.16797-0.16797 0.28125-0.28125-0.79688-1.3203-1.6602-2.5859-2.3516-3.8984-3.4961-6.2617-8.2031-13.312-11.758-20.773-6.4883 2.8125-8.4922 6.8242-6.0859 15 2.1836 7.4062 6.7109 8.0898 13.941 7.8086v-0.003906c2.207-0.16797 4.3789 0.61328 5.9727 2.1484zm-39.02 247.67c41.316-28.461 32.363-99.676 22.836-140.42-0.11328-0.46094-0.11328-0.79688-0.17969-1.1992l0.003906-0.003907c-19.469-4.0234-37.727-12.555-53.305-24.906 1.3203 4.3672 3.1016 8.7266 4.5391 12.918h-0.003906c1.3906 4.0117 3.1406 7.8867 5.2227 11.586 3.957 7.1719 8.3164 13.539 11.758 19.105 2.8203 4.4453 5.2422 9.1328 7.2344 14.008 1.1992 3.4961 1.5469 5.5586 0.9375 5.8516-0.60938 0.28906-2.0703-1.1445-4.3047-4.0781-2.2305-2.9336-5.5117-6.8242-9.5234-11.812-5.0156-5.8906-9.6406-12.102-13.836-18.602-2.5391-4-4.6719-8.2461-6.3672-12.676-1.6602-4.4258-3.5547-8.7266-5.0547-13.66-1.0859-3.8984-2.2305-7.7422-3.3281-11.531l-0.68359-2.4102 0.003907 0.003907c-6.2617-5.8711-12.078-12.199-17.391-18.938l-1.3789-1.875c-17.105 16.578-35.785 31.453-55.773 44.406 10.098 9.0664 20.082 18.254 29.324 28.18 3.0391 2.4648 6.1953 4.875 9.6367 7.2852l0.003906 0.003907c8.9883 5.8984 18.688 10.645 28.863 14.117 8.4375 2.2891 13.66 4.0703 13.48 5.4453-0.17969 1.3789-5.6797 1.875-14.512 1.3203v0.003906c-7.6602-1.1211-15.117-3.332-22.152-6.5625 20.719 37.438 45.34 72.578 73.453 104.84 0.20703-0.16797 0.32031-0.28906 0.49609-0.40234zm18.703-372.01v-0.003906c6.1055-9.4961 14.438-17.359 24.273-22.902-26.906 0.75-47.344 24.273-52.445 52.801-2.4102 13.078 1.875 25.82-0.34766 38.617-3.0391 17.672-2.9805 34.086 11.25 43.895v-0.003906c-0.44922-4.2227-0.039062-8.4961 1.2031-12.562-0.60547-1.082-0.99219-2.2734-1.1445-3.5039-3.6758-29.363 0.79688-70.809 17.211-96.34zm-114.31-38.91 8.4375-9.4688c-10.445-19.398-32.195-30.59-50.727-41.551v0.003906c-19.227 19.824-37.426 40.621-54.516 62.312-12.453 14.691-49.922 41.898-42 63.648 11.48 29.891 25.152 58.891 40.91 86.766 8.7148 16.613 18.512 32.641 29.324 47.973 13.883-5.9609 26.055-11.184 35.23-15.148 10.68-4.875 17.336-7.7422 18.02-6.6562 0.62891 0.9375-4.9297 5.6797-15 12.281v-0.003906c-10.477 6.2852-21.281 12.012-32.359 17.156 1.5469 1.875 3.1016 3.8438 4.6875 5.6797 1.2109-0.51562 2.5859-1.1445 4.1914-2.0078 4.5273-2.3516 8.9531-4.5938 13.125-6.7695 8.4922-4.1328 16.238-7.5742 22.5-10.555 6.4297-2.9922 11.652-5.3438 15.262-7.0039 3.6094-1.6602 5.9141-2.1836 6.2539-1.6133 0.33594 0.57031-1.1445 2.2422-4.2461 4.8281l-0.003906 0.003907c-4.3633 3.6094-9.0078 6.8711-13.883 9.75-6.1406 3.8984-13.539 7.9766-21.75 12.508-4.0703 2.2969-8.3164 4.6875-12.742 7.1797-0.62891 0.39453-1.3125 0.74219-2.0625 1.1445 2.5859 2.6992 5.1641 5.2773 7.9219 7.8008l7.3984 6.7227c21.047-13.582 40.641-29.293 58.48-46.875-13.84-21.52-29.438-41.852-46.641-60.789-14.281-12.18-26.691-26.395-36.836-42.188-3.7266 1.9844-7.7305 3.3984-11.875 4.1914-6.7539 1.1328-13.641 1.25-20.43 0.34766-11.418-1.4336-17.906-4.3672-17.617-5.5703 0.22656-1.3789 7.1719-0.9375 17.898-1.2656 6.1445-0.13281 12.258-0.88281 18.254-2.2383 3.4492-0.87891 6.7383-2.2891 9.75-4.1836-0.11328-0.58203-0.22656-1.0977-0.28125-1.5547-9.168 0.35156-18.34-0.41406-27.32-2.2891-9.8047-1.875-15.938-3.4492-15.938-4.6875 0-1.2383 6.3672-2.0703 16.641-1.875 11 0.75391 22.051 0.25391 32.934-1.4883 16-23.199 33.363-45.426 51.996-66.562-0.23438-0.68359-0.46094-1.4336-0.75-2.1172-1.2656-2.2422-2.1836-4.6875-3.75-6.9453v-0.003906c-5.9219-8.6523-13.285-16.219-21.77-22.379-1.6016-1.1445-3.0938-2.2969-4.4141-3.3281-1.3203-1.0312-2.6445-1.7812-3.6172-2.5234-2.0078-1.4922-2.9258-2.5859-2.6914-3.2148s1.7734-0.68359 4.1797-0.22656v0.003907c1.4727 0.26172 2.9336 0.60547 4.3672 1.0312 1.6602 0.62891 3.5547 1.4336 5.625 2.3516 10.789 5.1836 19.969 13.191 26.57 23.176 1.2422 1.9883 2.332 4.0703 3.2617 6.2227z"/>
 <path d="m695.48 189.98c2.1172 30.871-1.9492 69.957-26.109 92.504-23.301 21.777-54.066 33.793-85.961 33.57-18.738-0.29688-37.219-4.4453-54.289-12.188-6.3086-2.8672-26.164-10.152-27.477-17.672-23.293-20.59-34.84-51.402-30.816-82.227 5.9062-61.098 43.781-110.79 109.2-110.22 60.422 0.57031 106.55 33.797 115.16 94.445 0.19141 0.57422 0.28906 1.1797 0.28906 1.7891zm-15.207 14.523c0.054687-4.8203-0.054688-9.6484-0.40234-14.523-1.7891-14.73-7.082-28.82-15.441-41.082 2.1719 22.797-4.8047 45.523-19.387 63.18-8.7227 7.4453-19.652 11.82-31.105 12.449 23.297 6.8828 51.242 1.875 65.766-19.398 0.17188-0.22266 0.36328-0.43359 0.57031-0.625zm-12.777 54.625c5.0391-9.5391 8.5781-19.797 10.5-30.41-21.102 14.551-47.859 18.215-72.094 9.8711-5.6445-1.9141-11.148-4.2188-16.473-6.8906-6.2344 3.8594-10.969 9.7305-13.426 16.641 26.965 18.16 61.043 22.18 91.492 10.789zm-27.32-65.625c8.3242-16.762 12.336-46.539 4.3672-64.164-0.17969-0.46094-0.28906-0.9375-0.46094-1.3672h0.003906c-8.6719-6.3477-18.383-11.145-28.695-14.172 6.9453 25.875 7.8672 52.219-14.457 71.551v-0.003907c-9.0664 6.9414-19.195 12.363-30 16.051 6.7227 3.75 13.125 7.9219 19.633 11.934 17.117-5.2773 40.469-1.4609 49.648-19.844zm9.7578 86.016h0.003906c-26.617 4.5742-53.984-0.6875-77.008-14.801-0.050782 12.219 2.0273 24.352 6.1406 35.859 4.2305 0.16016 8.4688 0.003907 12.676-0.46094 20.848-1.7969 40.895-8.8906 58.227-20.613zm-54.625-123.68c2.7695-9.8242 3.5078-20.113 2.1758-30.234-1.7734-16.07-18.414-17.559-31.32-15.844h-0.003907c-8.1172 1.4531-16.004 4-23.438 7.5742-4.5664 1.957-8.957 4.3008-13.125 7.0039-2.0703 1.3203-8.4375 7.8555-10.508 7.8555 14.258-0.91016 28.535 1.4062 41.773 6.7812 8.3789 3.7578 16.074 8.8789 22.781 15.148 1.7266 1.7148 3.3945 3.8438 4.9961 5.1641 2.4023 1.9609 4.6445 2.2344 6.668-3.4492zm-8.2578 20.945c-8.8242-8.7461-18.809-16.234-29.672-22.258-16.414-7.7539-33.629-6.6641-51.301-6.5625-0.38672-0.007813-0.76562-0.046875-1.1445-0.12109-9.2227 13.152-15.199 28.305-17.438 44.211 21.27-6.875 44.238-6.3672 65.184 1.4375 12.031-4.332 23.562-9.9336 34.406-16.707zm-24.93 121.71c-7.5-25.773-7.6875-56.699 11.82-75.055-7.5742-4.3047-15.262-8.6055-23.016-12.281-12.02 6.5703-21.758 16.645-27.914 28.883-6.1602 12.234-8.4492 26.059-6.5664 39.629 0.12891 0.089844 0.26172 0.16797 0.40234 0.23438 14.02 8.543 29.297 14.816 45.273 18.59zm-28.352-94.34c-15.531-5.2148-32.594-2.9883-46.273 6.0273v0.62891c-1.0078 19.09 3.9023 38.027 14.062 54.223 0.71875-24.188 12.617-46.676 32.211-60.879z"/>
 <path d="m650.32 946.46c5.6797 0.9375 8.832 1.6133 8.832 2.2969 0 0.68359-3.2734 1.2109-9.0664 1.4336-5.793 0.22656-14.176-0.054687-24.215 0.28906-2.4648 0.16797-5.1094 0.34766-7.7422 0.62891v0.003906c-2.7578 0.29688-5.4961 0.73828-8.2031 1.3203-5.9141 1.2656-12.188 2.6445-18.824 4.0781-6.6367 1.4336-13.66 2.8125-20.887 4.3594h-0.003906c-7.6562 1.5781-15.398 2.7266-23.184 3.4414-15.082 1.3555-30.273 0.79688-45.215-1.6602-12.25-2.0703-24.133-5.8984-35.289-11.363-7.5312-3.6992-14.52-8.4102-20.773-14.004-4.0234-4.1328-6.0273-6.6562-5.625-7.1719s3.2734 1.0312 8.0352 4.3047v-0.003907c6.7617 4.1016 13.844 7.6484 21.176 10.613 10.891 4.2812 22.258 7.2305 33.855 8.7852 14.25 1.8555 28.66 2.1445 42.973 0.86328 7.4336-0.66016 14.828-1.6953 22.152-3.1055l21-3.75c6.7109-1.1445 13.125-2.2305 19.105-3.2734 2.8789-0.51562 6.1406-0.62891 9.1328-0.85156 2.9922-0.22656 5.6797-0.066406 8.3164 0 8.1953 0.47266 16.355 1.3945 24.449 2.7656z"/>
 <path d="m643.49 898.61c5.457 9.5234 7.5742 16.004 6.5625 16.695-1.1992 0.80469-5.5117-4.6875-12.281-12.965-8.9727-10.293-18.992-19.621-29.898-27.836-11.293-7.8594-23.207-14.789-35.625-20.719-9.6953-4.4727-15.777-7.3984-15.43-8.7734 0.33594-1.2109 7.1719-0.57031 17.898 2.4102h-0.003906c13.91 4.3164 27.047 10.82 38.906 19.273 11.812 8.7344 21.934 19.551 29.871 31.914z"/>
 <path d="m570.05 741.72c10.727 9.7031 15.375 17.391 14.512 18.133-1.1445 1.0391-7.5-4.875-18.75-12.73v-0.003906c-6.6016-4.5703-13.488-8.7109-20.625-12.395-8.793-4.3672-17.875-8.125-27.188-11.25-17.152-5.3398-34.742-9.1641-52.566-11.418-13.648-1.875-22.5-2.8672-22.5-4.3047 0.054687-1.2656 8.6641-2.6992 23.008-2.5312v0.003906c18.711 0.28125 37.281 3.3359 55.098 9.0625 9.832 3.2812 19.324 7.5078 28.34 12.629 7.3789 4.2188 14.305 9.1758 20.672 14.805z"/>
 <path d="m549.96 904.69c13.434 13.258 22.32 19.742 21.695 21.121-0.46094 1.1445-11.652-4.0117-25.996-15.777-1.7812-1.4336-3.6641-2.9258-5.625-4.4258s-4.2461-2.9805-6.4766-4.5273l-3.4492-2.4102c-1.0859-0.57031-2.2305-1.1523-3.3828-1.7266l-0.007812 0.003906c-2.4883-1.375-5.0781-2.5664-7.7422-3.5547-10.848-4.2461-24.375-7.3516-37.875-11.879-12.984-3.8789-25.66-8.7148-37.934-14.465-10.273-4.75-19.77-11.023-28.172-18.609-5.7305-5.2266-10.305-11.598-13.422-18.703-1.875-4.9961-2.1289-7.9219-1.6133-8.2109 0.69531-0.28125 2.1836 2.2969 4.9961 6.5625 4.0781 5.7266 8.9648 10.828 14.512 15.148 19.688 13.328 41.527 23.16 64.559 29.062 13.547 4.4805 26.457 7.6953 38.391 12.852 2.9531 1.1992 5.7969 2.6641 8.4922 4.3711 1.4336 0.85156 2.4648 1.3672 4.1328 2.4648l3.2734 2.5781c2.1172 1.7266 4.1914 3.3828 6.1953 4.9961z"/>
 <path d="m491.83 823.89c13.48 2.6445 22.031 3.8438 21.918 5.3438 0 0.62891-2.1836 1.1445-6.1406 1.4922v-0.003907c-5.5391 0.41406-11.102 0.41406-16.641 0-18.551-1.1211-36.758-5.5352-53.766-13.031-16.766-8.1445-31.641-19.707-43.668-33.945-9.1211-10.445-14.633-17.156-13.66-18.188 0.97656-1.0312 8.0352 4.0117 18.422 13.246 2.6328 2.2422 5.4453 4.6875 8.5508 7.3516 3.1016 2.6641 6.3672 5.2773 9.8711 7.9219 1.7266 1.4102 3.5273 2.7305 5.3906 3.957 2.0078 1.2656 4.0781 2.5781 6.1953 3.8984l3.1602 2.0078 3.2734 1.6133c2.1758 1.0859 4.3594 2.2305 6.5625 3.3281v-0.003907c16.191 6.9844 33.152 12.023 50.531 15.012z"/>
 <path d="m447.7 888.85c11.129 4.2461 18.074 7.4062 17.812 8.7266s-7.8555 0.51562-19.969-2.2422c-5.8516-1.7812-12.965-3.75-20.539-6.6562-7.5742-2.9062-15.938-6.2539-24.215-10.219l-0.003907 0.003906c-15.316-5.6953-29.285-14.504-41.023-25.875-2.0352-2.1406-3.7891-4.5312-5.2227-7.1133-1.2461-1.8047-2.1797-3.8047-2.7539-5.918-0.9375-3.3281-1.2109-5.2773-0.57031-5.5586 1.4336-0.75 4.6875 6.6562 13.312 13.648h-0.003906c12.371 9.1523 25.934 16.57 40.312 22.043 16.754 7.9102 31.793 14.285 42.863 19.16z"/>
 <path d="m436.34 534.11c1.2266 2.9453 1.1836 6.2617-0.11328 9.1758l-0.9375 1.875-0.12109 0.23438c0 0.054687-0.79688 0.9375-0.79688 0.9375-0.125 0.10547-0.26172 0.20312-0.40234 0.28125l-0.51562 0.46094c-0.96875 0.72656-2.0078 1.3555-3.1016 1.875-1.0312 0.57812-2.1016 1.0781-3.207 1.4922l-2.6992 0.9375c-3.3867 1.125-6.8281 2.0625-10.312 2.8125-1.6602 0.28906-3.2148 0.69531-4.9297 0.86328-0.86328 0.054687-1.668 0.17969-2.5312 0.28906h-3.0391c-2.4648-0.28906-8.2031-1.7266-9.5234-6.2539h-0.003906c-0.80859-2.8633-0.47266-5.9297 0.9375-8.5508 0.69922-1.6328 1.543-3.2031 2.5234-4.6875 1.6133-2.3516 2.8125-3.4414 3.4414-3.2148 0.62891 0.22656 0.58203 1.875 0.066407 4.6875-0.23438 1.3203-0.52344 2.9258-0.86328 4.7617-0.28906 1.6602-0.34766 3.8438 0.22656 4.4141l-0.003906 0.003906c0.3125 0.26563 0.69141 0.44531 1.0977 0.51563 0.22656 0.12109 0.68359 0.054687 0.9375 0.17969v-0.003906c0.62109 0.085937 1.2461 0.125 1.875 0.11328 0.42969-0.11328 0.87109-0.16797 1.3125-0.16797 0.69531-0.17969 1.3203-0.34766 2.0156-0.46094 1.3125-0.28906 2.8125-0.80469 4.3047-1.1523 4.4727-1.3203 15.43-1.7148 14.805-7.3984-0.57031-4.3672-6.5625-7.5742-8.9531-10.902-1.7812-2.9922-3.6172-5.7383-4.9297-8.4922-1.3125-2.7578-2.3516-5.3984-3.2148-7.8086h-0.003906c-1.3242-3.8555-2.1133-7.8711-2.3555-11.938-0.11328-2.7578 0.11328-4.4141 0.80469-4.5938 0.69531-0.17969 1.6016 1.1523 2.8672 3.6758 1.0859 2.6992 2.9805 6.0859 4.9883 10.164 1.2109 2.0078 2.5234 4.1797 3.8984 6.5625 1.3789 2.3828 3.3828 4.5391 5.1094 7.0039 1.4922 1.875 4.1328 3.6172 7.1172 6.4883l0.003906-0.003907c1.8086 1.6172 3.25 3.6016 4.2266 5.8242z"/>
 <path d="m317.27 603.95-0.054687 0.51563h-0.058594c-0.34766 0-0.11328-0.22266 0.11328-0.51563z"/>
 <path d="m294.6 764.45c7.7539 14.176 10.621 26.973 8.2695 27.945-2.5234 1.0859-9.375-9.6953-16.695-23.184-7.4062-12.965-13.828-24.496-11.477-26.055 2.0586-1.375 11.641 6.9492 19.902 21.293z"/>
 <path d="m274.87 315.31-4.2461 4.5391h-0.003906c-3.9258 3.9062-8.2734 7.3633-12.965 10.312-3.9648 2.6445-7.5 4.8281-10.105 6.8906-5.1016 3.6172-8.0898 7.6328-9.2344 6.7695-0.86328-0.57031-0.57031-5.043 4.6875-11.477 4.957-5.25 10.285-10.141 15.938-14.633-2.5469-1.7148-4.6953-3.9531-6.3086-6.5625-1.8125-3.2188-2.6172-6.9062-2.3164-10.586 0.62891-5.3438 2.6484-10.43 5.8594-14.746 5.043-6.8828 9.375-9.6953 10.379-8.8984 1.0039 0.79688-1.3789 5.3438-4.4141 12.281h-0.003907c-1.7148 3.6758-2.6914 7.6562-2.8672 11.711-0.019531 1.8984 0.5 3.7695 1.4922 5.3906 1.2734 1.7188 2.8945 3.1445 4.7617 4.1914 1.0312 0.62891 2.2422 1.0859 3.2734 1.6016z"/>
</svg>
