<?xml version="1.0" encoding="UTF-8"?>
<svg width="1200pt" height="1200pt" version="1.1" viewBox="0 0 1200 1200" xmlns="http://www.w3.org/2000/svg">
 <path d="m396.56 505.97c0 86.262-69.926 156.19-156.19 156.19s-156.19-69.926-156.19-156.19 69.926-156.19 156.19-156.19 156.19 69.926 156.19 156.19"/>
 <path d="m1115.6 515.62v443.16h-459.38c-5.1562-30.844-7.4062-90.281 41.906-123 38.906-25.781 118.22-2.4375 173.44 0l54.75 6c3.1719 0.36719 6.2461-1.2383 7.7539-4.0508 1.5117-2.8125 1.1484-6.2617-0.91016-8.6992l-6.9375-6.4688c-22.781-21.094-80.156-93.188-80.156-93.188l-522.56 119.06-0.75 4.5s-11.812 28.125-70.594 38.625c-24.496 3.8164-49.367 4.6367-74.062 2.4375-14.062-2.0625-53.344-44.062-58.312-60.844s83.812-52.406 101.44-60.656c17.121-4.6836 34.754-7.2344 52.5-7.5938 24.844-9.9375 53.531-21.094 61.312-23.812 10.594-3.6562 215.62-87.656 318.19-129.47l56.812-23.25c21.863-12.68 42.32-27.637 61.031-44.625 0.87891-0.85156 1.0781-2.1914 0.48828-3.2617-0.59375-1.0742-1.8281-1.6211-3.0195-1.332-5.9062 1.125-14.719 3.2812-20.906 4.4062-46.875 8.25-69.562-2.25-72.281-3.5625-9.75-5.625-23.906-89.062-25.594-91.688s-23.719-21.469-20.156-30.375 33.562-38.438 33.562-44.156-6.9375-110.53 63.938-125.53 141.75-6 163.69 30.938c20.812 35.156 38.344 88.594 27.469 132-0.85547 3.3438 0.050781 6.8906 2.4023 9.4141 2.3555 2.5195 5.8281 3.6719 9.2227 3.0547 15.094-3 39.094-2.5312 73.312 13.031 39.824 22.789 77.453 49.211 112.41 78.938z"/>
</svg>
