<?xml version="1.0" encoding="UTF-8"?>
<svg width="1200pt" height="1200pt" version="1.1" viewBox="0 0 1200 1200" xmlns="http://www.w3.org/2000/svg">
 <path d="m1103.3 473.44c0 20.812-74.438 90.375-101.44 109.59-3.2812 3.1875-168.19 127.97-190.5 139.41-14.531 7.5-48.656 22.781-70.781 32.625 7.125 65.625 25.312 228 39.469 305.34 0.65625 3.6562 1.5938 7.6875 2.625 12.094h-323.34l-17.719-181.88-14.156-68.156c-31.156-6.8633-62.891-10.785-94.781-11.719-84.375-4.3125-202.78-64.312-211.5-83.344-7.0312-15.562-1.875-109.03 0-144.19-1.6445-2.9609-2.9375-6.1094-3.8438-9.375-4.5938-14.906-39.656-90.188-29.812-107.91s41.25-42.75 49.781-29.625c6.6562 10.219 22.688 45.094 29.531 60.188 3.6523-3.2188 7.6094-6.0781 11.812-8.5312 8.5312-4.3125 25.031 6.8438 21.656 17.625-5.2891 11.758-11.562 23.047-18.75 33.75 4.875 25.969 13.781 96.656 17.719 128.91 0.59375 4.6133 2.8047 8.8672 6.2344 12.008 3.4336 3.1406 7.8672 4.9648 12.516 5.1484l186.09 8.3438 65.625-15.562c5.707-4.3203 8.8438-11.234 8.3438-18.375 0-2.625-0.46875-5.0625-0.75-7.5-14.043-8.5273-26.848-18.934-38.062-30.938-5.9766-6.8008-11.164-14.254-15.469-22.219-15.285-22.855-19.992-51.188-12.918-77.758 7.0742-26.57 25.246-48.809 49.871-61.039 24.625-12.234 53.324-13.273 78.77-2.8516 25.445 10.418 45.176 31.285 54.152 57.273 2.3633 6.6758 3.9648 13.594 4.7812 20.625 2.3438 10.875 5.25 25.031 7.9688 39.938 5.7188 31.875 10.406 32.25 5.7188 40.406-7.9258 7.8867-17.238 14.242-27.469 18.75 1.2422 3.5781 4.2031 6.293 7.875 7.2188 6.4688 1.6875 45.562-15 65.625-19.781 16.703-3.4883 33.668-5.5586 50.719-6.1875 12.203-0.83594 24.453-0.83594 36.656 0 20.156 1.7812 75-12.938 116.62-31.5 35.719-15.938 110.16-49.688 131.25-59.812 1.6406-9.9844 7.3867-18.82 15.844-24.375 22.969-17.25 94.219-61.781 94.031-26.625z"/>
 <path d="m1113.9 263.44c0 75.078-60.859 135.94-135.94 135.94s-135.94-60.859-135.94-135.94 60.859-135.94 135.94-135.94 135.94 60.859 135.94 135.94"/>
</svg>
