<?xml version="1.0" encoding="UTF-8"?>
<svg width="1200pt" height="1200pt" version="1.1" viewBox="0 0 1200 1200" xmlns="http://www.w3.org/2000/svg">
 <path d="m1106.2 1149.3c0.48047 2.9805-0.63281 6-2.9336 7.957-1.7227 3.3594-5.2695 5.3867-9.0391 5.168-27.984-0.28125-55.742-4.4453-83.727-4.8008-1.1719-0.003906-2.332-0.19922-3.4414-0.57422-5.2148-0.71094-9.2383-4.9453-9.6836-10.188-3.6562-39.168-32.812-66.562-42.684-103.52-9.375-35.223-9.4688-71.598-16.426-107.25-8.9727-2.9453-17.867-6.1016-26.617-9.543-25.398 5.3828-67.574 39.535-92.043 10.547-33.57-39.816-71.812-68.727-126.76-70.086-48.496-1.2188-89.82 21.664-129.78 46.273-8.25 5.0898-16.641 10.258-25.312 15.348-51.441 30.273-107.46 51.656-159.38 81.207-19.586 31.715-34.688 64.133-64.273 88.312l-0.003906-0.003906c-29.809 23.336-61.375 44.336-94.414 62.812-2.1914 1.332-4.8008 1.793-7.3125 1.293-0.57422 0.089843-1.1484 0.13672-1.7266 0.14062-36.656-0.14062-73.312-2.1484-109.98-1.2188-2.9375 0.15625-5.793-1.0039-7.7852-3.168-1.9922-2.1602-2.9219-5.1016-2.5273-8.0156-0.47656-3.1562 0.52734-6.3555 2.7188-8.6797 81.066-90.535 139.25-199.87 231.36-280.64 0.29297-0.24219 0.60547-0.45703 0.9375-0.64844 0.24219-0.41406 0.53125-0.80078 0.86328-1.1523 38.133-40.496 79.375-77.949 123.34-112.02 23.316-18.148 49.145-34.434 70.594-54.742 15.281-14.344 28.555-30.703 44.062-44.691v0.003906c5.4531-4.7227 11.723-8.4062 18.5-10.875 0.066407-0.21484 0.066407-0.42969 0.14063-0.71094 4.2383-16.07 14.711-28.988 22.453-43.547 13.059-24.535 2.0078-41.973 4.1641-66.562h-0.003906c2.8867-22.059-1.6562-44.449-12.91-63.641-7.2109-13.883-12.43-28.719-15.496-44.062-22.34-20.406-36.75-48.051-40.676-78.055-7.7422-65.062 45.555-91.461 95.559-117.72 2.1289-1.1367 4.582-1.5156 6.957-1.0781-1.2188-4.9492-2.2227-9.6094-2.9453-13.633-1.0781-6.0938-1.875-12.188-2.5781-18.289-2.0195-0.88281-3.7227-2.3555-4.8828-4.2266-6.0898-6.9883-10.066-15.562-11.477-24.723-0.09375-4.0664 1.3398-8.0234 4.0273-11.078 2.6836-3.0586 6.4219-4.9922 10.465-5.4219 0.72656-21.418 3.7109-42.695 8.8984-63.488 0.56641-2.5039 2.082-4.6914 4.2266-6.1016 9.6094-28.125 54.664-38.438 80.418-36.516 26.691 2.0078 55.961 23.176 53.805 50.07 0.97266 0.79297 1.8633 1.6875 2.6523 2.6641 1.9688 1.5898 3.2539 3.875 3.5938 6.3828 3.5898 11.301 5.0039 23.18 4.1602 35.008 16.426-0.42969 26.184 15.496 27.113 32.57v-0.003906c10.578-8.4766 24.434-11.699 37.668-8.7539 15.086 2.2227 29.129 9 40.258 19.422 11.125 10.422 18.805 23.992 22.012 38.898 8.9766 33.367 11.52 68.133 7.5 102.45 3.375 5.7305 6.1602 11.785 8.3164 18.078 0.50781 0.96875 0.87109 2.0078 1.0781 3.082 0.33594 0.94531 0.50391 1.9414 0.50391 2.9453 4.4219 32.535-4.6211 65.465-25.039 91.18 4.8164 28.5 6.8125 57.406 5.9531 86.297-2.082 17.602 0.50391 35.438 7.5 51.723 3.75 7.2461 10.117 12.777 13.414 20.09 12.984 28.988 15.938 73.387-3.75 100.94 21.094 23.531 49.688 39.234 62.559 69.148h0.003907c0.65234 0.49219 1.2812 1.0234 1.875 1.5859 1.1602 1.0078 2.0859 2.2539 2.7188 3.6562 1.207 1.3242 2.0508 2.9375 2.4453 4.6875 15.992 64.426 55.086 119.52 68.438 185.02 13.059 64.125 25.613 129.26 32.344 194.48zm-22.5-8.8203c-1.875-17.289-3.8711-34.867-6.168-52.586-14.129 3.7969-26.832 10.762-41.465 13.555-9.668 1.6367-19.496 2.0938-29.27 1.3594 4.8438 10.738 8.4102 22.008 10.621 33.582 22.152 0.71094 44.176 3.1484 66.336 4.0859zm-9.75-73.895v-0.003907c0.21875-0.035156 0.43359-0.082031 0.64844-0.14062-3.75-26.184-8.25-52.5-13.848-78.195-28.91 14.363-62.047 17.758-93.262 9.543 2.0938 23.164 8.5938 45.711 19.152 66.434 3.0859 5.5234 6.0938 10.969 9.0391 16.285l-0.003907-0.003906c13.586 2.0703 27.43 1.7305 40.895-1 12.965-3.2734 24.516-9.8359 37.434-12.922zm-18.227-99.93c-1.5078-5.8867-3.0859-11.699-4.6875-17.438-2.6875 2.7695-5.9062 4.9648-9.4688 6.457-3.1602 1.0039-5.0234 1.2188-5.3828 0.50781-0.35547-0.71094 0.63672-2.2969 2.8125-4.4531h0.003906c2.7266-2.7227 5.0234-5.8438 6.8164-9.2539 1.5195-4.8945 0.83203-10.207-1.875-14.559-2.7266-6.1797-6.7422-13.414-10.039-21.234h-0.003906c-2.6562-6.9102-6.0234-13.523-10.051-19.734-2.6797-4.3086-7.2734-7.0586-12.336-7.3867-9.375-0.50781-16.566 2.6523-17.211 0.72266-0.28906-0.79688 0.9375-2.2305 3.4414-4.0977h-0.003907c4.0234-2.7695 8.6484-4.5391 13.492-5.168 3.7148-0.46484 7.4844 0.007813 10.969 1.3711 0.11328 0 0.22266 0.050782 0.28906 0.14062-3.0078-6.7422-6.0938-13.48-9.1133-20.156-31.273 7.3867-79.051 18.582-72.664 59.68 0.11719 0.76172 0.16406 1.5312 0.14062 2.2969 1.7266 0.58203 3.4414 1.0781 5.0898 1.6484 0-0.35547-0.14063-0.71094-0.14063-1.1445v0.003906c-0.125-1.2188-0.097656-2.4453 0.078126-3.6562l0.14062-1.6484v-0.19922l0.14063-0.86328c0.074218-0.21484 0.28906-0.78906 0.28906-0.78906l0.42969-1.0039v0.003906c0.48047-1.3555 1.0547-2.6719 1.7188-3.9492 2.582-3.7305 5.8438-6.9453 9.6172-9.4688 4.7852-3.3047 9.9102-6.0938 15.281-8.3242 3.75-1.6484 5.9531-2.4375 6.4492-1.7266 0.49609 0.71094-0.71094 2.6523-3.75 5.5312-3.0391 2.8789-7.668 6.4492-12.617 11.184-10.117 9.6836-6.9648 18.086 0.066406 28.695 2.6523 4.3047 5.6719 8.4375 8.6172 14.062 1.5 2.8672 2.2227 5.2422 3.3672 7.5 0.57031 0.86328 1.0039 1.7266 1.5078 2.5859 0.50781 0.86328 1.0039 1.0781 1.4336 1.7266 0.50781 0.49609 1.0039 0.49609 1.4336 1.0039 0.72266 0.14062 1.5078 0.21484 2.2969 0.42969v0.003906c2.125 0.14063 4.2578 0.14063 6.3828 0 4.7344-0.28906 9.1797-0.58203 13.414-0.79687 4.4453-0.14063 8.1758-0.066407 11.617-0.28125 4.9219 0.23828 9.7812-1.2031 13.781-4.0859 2.5781-2.2305 3.582-4.4531 4.4453-4.1641 0.64844 0.066406 1.5078 2.7266-0.71094 7.0312h-0.003906c-3.7773 5.4609-9.7539 9-16.359 9.6875-3.75 0.78906-7.8945 1.2852-11.84 1.7891-3.9453 0.50781-8.4375 1.4336-13.48 1.9414-2.7148 0.33594-5.4492 0.48047-8.1836 0.42969-1.7148-0.28906-3.4414-0.50781-5.1641-0.9375h-0.003906c-1.8359-0.73047-3.5742-1.6914-5.1641-2.8672-1.3789-1.2383-2.6367-2.6055-3.75-4.0898l-2.5859-4.3047c-1.0039-1.9414-1.875-4.0234-2.7266-5.8867 1.0781 8.3242 1.9414 16.648 2.8125 25.039l-0.003906 0.003906c30.066 10.457 63.16 7.6172 91.004-7.8086zm-51.227-134.3h0.003906c-7.2031-16.383-13.289-33.234-18.215-50.438-0.49609 0.13672-1 0.23438-1.5117 0.28906-29.344 2.4375-65.352 8.3242-82.285 35.793-14.852 24.113-14.492 49.688-9.543 76.695v0.21484c8.6172 4.1523 17.289 8.0352 26.117 11.551-0.36328-46.195 44.457-63.773 85.492-74.105zm-198.75 35.945c13.34-63.75 89.062-137.6 154.1-126.84-13.199-13.125-29.418-24.102-41.398-37.883v-0.003907c-8.6523 2.4102-17.832 2.1328-26.324-0.78516-0.17188 0.023438-0.33594 0.070313-0.49609 0.14062-39.242 7.0312-84.008-10.828-93.414-52.004-1.2383 0.21875-2.5078 0.21875-3.75 0-47.906-7.4492-96.625-8.0586-144.7-1.8008-19.688 2.0156-50.934-0.35547-67.648 11.625-14.344 10.312-24.602 25.613-37.305 37.66-17.934 16.93-36.656 32.719-55.668 48.215 1.2188-0.28906 2.4375-0.50781 3.6562-0.72266 11.055-2.2969 21.742-4.5195 31.93-6.5625 20.438-3.9453 38.879-7.3867 54.086-10.688 15.422-2.8125 27.555-6.4609 36.16-8.25 8.5391-1.9414 13.492-2.5859 13.695-1.7891 0.20703 0.79688-4.0859 2.9336-12.262 6.2344-11.516 4.7891-23.34 8.7969-35.391 12-15.207 4.5195-33.496 8.8203-53.727 13.34-10.191 2.2969-20.805 4.6875-31.875 7.2461-9.375 2.2969-19.445 3.375-27.477 6.3086l-6.6641 5.3828c79.773 0.14844 139.96-14.203 140.68-10.258 0 1.5078-16.145 6.4609-43.266 12.121l-0.003906 0.003906c-36.324 7.1953-73.305 10.566-110.33 10.051l-2.0078-0.074218c-3.0078 2.4375-6.0273 4.8086-9.0391 7.2461 20.16 4.8125 39.977 10.945 59.328 18.363 20.926 9.6133 41.273 20.441 60.938 32.43 7.2305 3.043 13.367 8.2109 17.598 14.82 4.2266 6.6094 6.3438 14.352 6.0742 22.191 4.5859-2.6523 9.2539-5.3047 13.914-7.8203 1.5078-1.875 3.0859-3.8047 4.6875-5.7383 3.1484-3.8047 7.0312-8.4375 10.902-12.844 4.1641-4.1641 8.3164-8.7461 12.984-12.844l-0.003906 0.003907c15.906-13.914 33.078-26.305 51.293-37.016 13.773-8.1758 22.742-12.703 23.746-11.336s-6.3086 8.3906-18.871 18.367c-12.402 10.117-30.273 23.023-47.992 38.953-4.0117 3.5156-7.6016 7.1719-11.25 10.688 13.484-5.3438 27.668-8.7188 42.113-10.02 43.969-3.8047 92.898 4.8008 129.12 31.633-0.42188-1.5742-0.85156-3.2266-1.1445-4.875v-0.003907c-0.50781-2.6758-0.84375-5.3867-1-8.1094-3.9023-5.5586-8.1914-10.832-12.844-15.777-9.457-9.957-19.969-18.855-31.352-26.539-7.5742-5.1797-15.723-9.4648-24.281-12.77-1.5078-0.57031-2.8672-1.0039-4.0117-1.4336-1.0898-0.20703-2.1719-0.47266-3.2344-0.78906-1.7891-0.42969-2.7266-0.9375-2.7266-1.2852 0-0.34766 1.0117-0.79688 2.8125-1.1523h-0.003906c1.0938-0.17969 2.1953-0.29688 3.3008-0.35547 1.5703 0.058594 3.1367 0.20312 4.6875 0.42969 9.8164 1.6484 19.254 5.0469 27.863 10.031 12.773 7.0625 24.527 15.82 34.941 26.047 1.7891 1.7891 3.582 3.7969 5.3711 5.7383v-0.003907c1.6484-13.715 5.4023-27.098 11.129-39.672 9.6836-21.73 21.086-31.707 22.023-30.703 1.4336 1.1523-7.0312 12.414-14.203 33.75h-0.003907c-4.3711 12.285-7.0977 25.098-8.1094 38.098-0.30078 3.8672-0.34766 7.7461-0.14063 11.617 0.23828 0.35156 0.5 0.6875 0.78906 1.0039 1.4453 2.2656 2.8047 4.5547 4.0977 7zm155.89-104.81c-49.07-13.988-110.62 42.824-129.92 93.75l0.003906-0.003907c11.988 9.3242 24.621 17.781 37.809 25.312-3.2344-29.551-0.36719-60.543 20.512-83.57v0.003906c19.012-19.852 44.379-32.41 71.691-35.496zm-33.191-118.02c0.43359-10.945 0.14844-21.906-0.85547-32.812-0.18359-2.8789-0.89062-5.6992-2.082-8.3242-3.9453-8.3164-12.273-12.695-17.867-22.086-7.125-11.938-10.938-25.559-11.043-39.461-0.35547-31.633 0.074219-61.406-3.2266-92.465-16.207 12.246-36.492 17.816-56.68 15.562-2.9336-0.35547-5.8047-0.78906-8.6797-1.2188-0.28125 0.074219-0.63672 0.14062-0.9375 0.21484h-0.003906c6.3438 8.3555 11.324 17.66 14.758 27.57 8.4375 27.262 18.75 54.375 26.109 81.852 7.7422 28.914 21.449 55.238 27.336 84.582v0.003906c0.48828-4.5742 0.67969-9.1758 0.57422-13.773-1.0039-22.023-4.7344-40.246-1.5859-41.391 2.6641-1.0781 10.266 12.336 12.844 32.137 0.28906-1.6484 0.57031-3.3008 0.86328-4.8086 1.1445-7.0312 2.5781-11.625 4.2266-11.625 1.6484 0 3.3008 4.3789 4.3125 11.766 0.625 4.5195 0.69531 9.0977 0.20703 13.633-0.67969 6.0898-2.9805 11.891-6.6641 16.789-3.375 5.4453-13.199 10.762-13.633 17.719-0.78906 13.273 21.883-0.72266 25.039-5.2422h0.003906c4.8516-8.7383 7.2656-18.625 6.9844-28.621zm-11.047-294.98c-0.17187-2.4102-0.48437-4.8086-0.9375-7.1797-1.3203-4.2227-3.0039-8.3242-5.0234-12.262-1.2109 0.37109-2.4844 0.51953-3.75 0.42969-29.195-2.3711-71.25-3.8828-96.918 12.188-21.289 14.387-38.789 33.703-51.012 56.305 3.6875 7.4453 8.668 14.176 14.711 19.875 35.109-45.402 84.039-74.164 142.93-69.355zm-0.14062 21.562c-8.2617-0.67969-16.57-0.60938-24.824 0.21484-4.3672 24.703-15.043 47.859-30.992 67.219 14.727-4.8281 27.781-13.73 37.66-25.672 9.8789-11.941 16.172-26.438 18.156-41.809zm-8.8672-79.527c0.082031-19.945-1.8633-39.848-5.8047-59.398-4.8828-24.32-15.355-51.367-43.48-55.668-36.508-5.6719-41.887 32.418-40.602 64.688 0.28906-2.0078 0.50781-4.0859 0.79688-6.1016v-0.003906c0.71094-6.7305 2.3789-13.324 4.9492-19.586 1.8398-4.4062 4.6289-8.3516 8.1758-11.547 2.5117-1.7891 4.2266-2.5781 4.875-2.0078 0.64844 0.57031 0.074219 2.3711-1.3594 5.0898-1.5234 3.6211-2.7266 7.3633-3.5898 11.195-1.1484 5.9141-1.8203 11.91-2.0078 17.934-0.21484 4.2383-0.35547 8.8984-0.78906 13.922 3.6797-2.8281 7.7695-5.0781 12.125-6.6758 9.1133-3.0078 14.926-1.4336 14.926-0.21484 0 1.6484-5.0234 2.9453-11.551 7.1719-4.918 3.3594-9.3555 7.3672-13.203 11.914 28.211 0.20703 55.398 10.609 76.539 29.289zm-101.11 28.836c24.676-12.703 58.969-13.773 87.742-12.273-41.898-39.953-123.25-36.082-139.54 31.203-2.5312 10.219-3.5 20.766-2.8672 31.273 13.754-21.027 32.543-38.285 54.664-50.203zm67.727 346.12c-0.015626-0.28906 0.007812-0.57812 0.0625-0.86328-4.2852-19.727-11.594-38.672-21.664-56.164-6.957-14.203-3.8711-27.121-9.375-42.039-8.5391-23.25-15.281-46.707-23.023-70.238-5.2422-16.07-16.5-26.035-23.438-40.527-0.035157-0.20312-0.10938-0.39453-0.21875-0.57031-8.2305-2.8789-16.121-6.6523-23.531-11.25 0.31641 1.6328 0.53516 3.2891 0.64844 4.9492 0.36719 7.5-0.86328 11.906-2.4375 12.188-1.7266 0.28906-3.582-4.1641-6.0273-10.828-2.0078-4.9492-4.6875-11.336-7.5-18.367-13.453-13.23-22.305-30.43-25.258-49.066-0.65234-0.25781-1.2773-0.57031-1.875-0.9375-7.6641-6.2383-16.891-10.258-26.68-11.625-26.477 14.43-58.125 32.578-57.535 66.508 10.902 5.8789 22.379 11.117 34.004 15.992-0.35547-0.57031-0.78906-1.1445-1.1523-1.7891-0.9375-1.875-1.7148-3.6562-2.3633-5.3047v-0.003906c-1.0625-2.3867-1.5039-5-1.293-7.6016 0.074218-1.875 0.50781-3.0195 1.293-3.3008 0.78906-0.28125 1.875 0.35547 3.0859 1.7148 1.3594 1.2188 2.5781 3.8047 4.6875 5.625 3.2344 3.8047 9.1875 9.6836 15.43 15.852 13.051 12.188 24.461 21.664 22.809 24.684-0.50781 1.0703-2.8672 1.0039-6.3086-0.14844 12.77 15 25.895 29.633 38.738 44.551 9.2539 10.836 21.02 21.742 31.133 33.215-6.2422-11.832-8.6172-20.867-6.75-22.023 3.0859-1.875 13.781 13.059 26.117 30.488l2.1484 3.2344c0.79688 1.0703 1.5078 2.1484 2.2969 3.1484 1.4336 2.082 2.8672 4.0859 4.2383 6.0273v0.003906c2.5977 3.6523 4.7969 7.5703 6.5625 11.691 3.0078 7.5 2.082 12.844 0.50781 12.984-1.8008 0.21484-3.75-3.582-7.9688-8.6719-2.082-2.6641-4.8008-5.6719-7.8828-9.1875-0.42969-0.42969-0.9375-1.0039-1.3672-1.5078l-0.003907-0.003906c5.9492 14.98 10 30.648 12.055 46.633 1.6992 13.227 8.1094 25.398 18.059 34.281 9.9492 8.8828 22.766 13.879 36.102 14.074-0.60938-0.53906-1.1875-1.1133-1.7266-1.7227-1.0156-1.168-1.9062-2.4414-2.6523-3.7969-0.71094-1.2266-1.2188-2.082-1.875-3.375-1.0703-2.082-2.082-4.0859-3.0859-6.0273-0.42969-0.35547-0.21484-0.64844-0.9375-1.3594-0.86328-0.72266-1.6484-1.5078-2.5117-2.2227-2.9453-2.5859-5.8867-5.1016-8.3906-7.5-2.1992-1.8672-3.9648-4.1953-5.1641-6.8164-0.78906-1.8008-1.0039-3.0859-0.36719-3.75 0.63672-0.66406 1.875-0.35547 3.6641 0.42969 1.7891 0.78906 4.2266 1.9297 6.7422 3.0859 3.6367 1.6602 7.1406 3.6016 10.473 5.8125 0.9375 0.57031 1.8008 1.2188 2.8125 1.875 1.332 1.1562 2.5312 2.4531 3.582 3.8711 0.9375 1.293 1.4336 2.4375 2.2227 3.75 0.16797 0.65625 0.52344 1.293 0.89063 1.9219zm-50.297-225.09c23.098-15.082 39.211-38.766 44.766-65.785-31.164 9.6836-58.363 29.172-77.551 55.566 9.043 4.6836 18.742 7.9727 28.77 9.75 1.3281 0.23047 2.668 0.38672 4.0156 0.46875zm23.098 482.91c12.77-0.75 25.18-4.5195 36.207-11.008-20.305-9.7969-39.684-21.406-57.898-34.688-1.6289 7.9062-0.80469 16.117 2.3516 23.543 3.1602 7.4297 8.5078 13.715 15.328 18.027 1.6953 0.97656 3.0859 2.4023 4.0117 4.125zm-60-742.29c9.4688-1.7148 12.617-10.312 11.691-19.434-0.86328-7.8203-3.75-11.055-10.039-8.9727-0.32812 9.2266-0.83594 18.762-1.6875 28.445zm11.691 84.301c-2.7422-21.918-2.1367-44.125 1.7891-65.859-2.6055 1.1523-5.3555 1.9492-8.1719 2.3711-2.5859 0.46875-5.25-0.015625-7.5-1.3672-7.9609 57.965-30.207 111.98-90 97.641-22.668-5.457-38.164-33.863-47.203-60.262-0.50781 0.39063-1.0391 0.75391-1.5859 1.0859-8.8203 4.5859-18.582 9.4688-28.125 14.773 42.039 17.438 69.008 55.594 89.953 94.977v0.003906c8.0625 1.0117 15.816 3.7266 22.742 7.9688 0-2.1562 0-4.2383 0.14063-6.4609 0.56641-19.598 7.5039-38.48 19.758-53.789 12.258-15.305 29.164-26.203 48.164-31.043zm-4.6875 361.88c-0.91797-7.7109-2.6289-15.309-5.1016-22.668-0.57031-1.5859-1.293-3.0859-1.9297-4.5195-0.14844 0.21484-0.21484 0.42188-0.36719 0.63672-2.168 3.707-5.0742 6.9297-8.5312 9.4805-2.6719 2.0977-5.5273 3.9453-8.5391 5.5195-10.902 5.5234-18.008 6.7422-18.648 5.4453-0.72266-1.4336 5.3711-5.4453 14.203-12.262 4.9531-3.4727 9.0703-8.0078 12.047-13.273 1.3047-2.543 1.7109-5.4492 1.1562-8.25-0.15625-0.75781-0.37109-1.5-0.64844-2.2227-0.57031-0.64844-1.0781-1.293-1.6484-1.9414-0.42969 0.28906-0.78906 0.58203-1.2188 0.86328-4.4531 2.6523-8.6172 5.7383-12.984 7.8203-4.3672 2.082-8.6172 4.0859-12.629 6.0273-8.1094 3.6562-15.57 6.168-21.805 8.4375-12.555 4.3047-20.625 6.168-21.309 4.6875s6.168-6.168 17.812-12.477c11.477-6.4609 28.051-13.707 43.969-24.469-4.0117-4.2266-8.1016-8.4375-11.973-13.125-19.52-23.531-40.246-46.059-59.766-69.582h-0.003907c-4.0352 8.2305-9.332 15.781-15.703 22.379-5.0703 5.4297-10.438 10.578-16.078 15.422-9.6836 8.25-15.562 12.629-16.875 11.914-1.5742-1.0781 2.8125-8.25 10.688-17.867 3.9453-4.6875 8.6172-10.473 13.781-16.715v-0.003906c5.3633-6.3477 9.918-13.332 13.559-20.801 0.94531-1.8828 1.3203-4 1.0781-6.0938-0.50781-0.64844-1.0781-1.293-1.6484-1.9414-0.79688-0.35547-1.6484-0.72266-2.4453-1.0039h-0.003906c-0.49609-0.027344-0.98828 0.066406-1.4336 0.28125-3.0312 1.1758-5.8398 2.8477-8.3164 4.9492-2.6523 2.082-5.1016 4.3789-7.3203 6.3945-8.7461 8.4375-14.773 14.062-16.145 12.695-0.9375-1.0039 2.1562-7.8945 9.7578-18.367 2.125-2.9023 4.4766-5.6367 7.0312-8.1758 1.0781-1.0781 2.2227-2.1562 3.5156-3.2344-19.266-8.0508-37.836-17.672-55.527-28.762 7.5 12.238 13.543 25.312 18.008 38.953 4.5195 16.996-3.6562 25.754-1.7891 42.328 2.5781 22.453 6.8828 40.961-0.14844 62.117 15.281-13.621 29.203-24.965 39.602-34.574 15.57-14.129 24.18-23.812 25.613-22.742 1.1523 0.79688-5.3047 12.488-19.688 28.555-11.484 13.059-28.48 28.125-46.414 45.555 5.1641-0.78906 10.258-1.6484 15.207-2.4375 8.0352-1.6484 15.789-3.3008 23.102-4.875 14.773-2.8789 28.051-6.3945 39.32-8.6172 22.379-4.875 36.508-7.2461 36.938-5.625 0.42969 1.6211-12.836 6.8164-34.789 13.848-11.043 3.3008-23.961 7.6797-38.879 11.25-7.5 1.7891-15.281 3.6562-23.316 5.625-8.3242 1.4336-16.875 2.8672-25.613 4.3672l-7.9688 1.293-0.007813 0.003906c-2.2148 3.5156-4.2266 7.1562-6.0195 10.902 18.938-2.8125 38.953-2.6523 54.301-3.9453 44.125-4.5586 88.648-3.582 132.54 2.9062zm-28.996-444.91c2.082-24.965 2.4375-49.219 2.1562-73.969-0.74609 0.57031-1.543 1.0742-2.3711 1.5117-19.445 9.1797-42.609 17.645-64.566 12.695v-0.003906c-10.266-2.1211-20.094-5.9766-29.062-11.398-3.9141-2.6484-7.4609-5.8008-10.547-9.375-10.117 53.23-8.3164 117.07 24.609 160.84 29.344 39.027 64.352-3.6562 71.383-28.695h-0.003906c4.4492-16.891 7.2617-34.172 8.4023-51.602zm-5.5508-93.047c13.848-28.125-36.086-33.75-51.508-30.562-12.844 2.6523-33.074 6.8164-39.242 20.016 9.4688 9.1133 16.5 18.43 30.992 21.664v0.003907c18.598 3.25 37.746 0.003906 54.234-9.1875 1.6406-0.75391 3.4297-1.1211 5.2344-1.0703 0.17578-0.28906 0.17578-0.58203 0.28906-0.86328zm-77.023 257.97c-0.42187-0.78906-0.85156-1.5078-1.2852-2.2969-1.8086-1.9141-3.8594-3.5781-6.1055-4.9492-6.0195-3.6445-12.418-6.625-19.078-8.8984-11.699-4.1641-19.367-6.8906-18.938-8.6055 0.35547-1.5078 8.25-1.8008 21.16 0.35547 3.6367 0.67969 7.2305 1.5664 10.762 2.6523-0.35547-0.49609-0.64844-0.9375-1.0039-1.3594h0.003907c-1.7734-1.5898-3.6953-3.0078-5.7383-4.2344-3.6641-2.082-8.832-4.2266-13.781-6.4492v-0.003906c-8.4844-3.3828-17.387-5.5898-26.465-6.5625-6.6758-0.86328-11.98-0.58203-12.336-2.2969-0.28906-1.5078 3.3672-4.6875 11.906-6.2422h-0.003906c9.2852-1.3438 18.758-0.43359 27.621 2.6523-14.105-15.012-32-25.941-51.797-31.629-0.99219-0.27344-1.9414-0.6875-2.8125-1.2305-25.18 18.008-43.051 41.68-31.5 77.551 10.996 32.785 33.129 60.684 62.559 78.844 4.8086-30.055 28.695-49.996 54.449-65.492-12.074-3.9062-24.426-6.9062-36.945-8.9727-12.555-1.9297-20.625-3.3672-20.445-5.1641 0.074219-1.5742 7.8945-3.1484 20.879-3.3672h-0.003906c13.168 0.070313 26.262 1.9883 38.898 5.6992zm-126.9 542.34c5.9531-15.141 5.4453-24.535-9.543-33.938-13.152-8.9297-26.91-16.934-41.176-23.953-28.723-11.855-58.352-21.379-88.602-28.48-0.14062-0.074218-0.21484-0.14844-0.35547-0.14844-2.2227 1.8008-4.4453 3.6641-6.6758 5.5312v-0.003907c16.637 14.777 30.719 32.199 41.68 51.562 13.273 21.945 30.852 43.539 36.562 68.867 16.789-8.4375 33.367-17.438 49.359-27.477 6.1992-3.8516 12.434-7.9492 18.75-11.961zm-88.023 49.359c-3.9453-22.883-19.305-41.539-31.133-61.051-11.02-20.98-25.891-39.695-43.836-55.172-16.145 13.988-31.922 28.621-46.875 44.195 0.066407 0.14062 0.21484 0.14062 0.28125 0.28125 10.547 14.137 33.75 25.762 26.617 47.57-6.6641 20.625-22.098 40.602-34.688 58.125l-0.003907-0.003906c-12.867 19.164-31.906 33.34-53.953 40.172-19.367 5.457-37.5-8.25-52.367-19.012-17.363 22.883-34.219 46.199-51.289 69.375 20.512 22.172 53.23 27.047 73.172 50.07v0.003906c15.723-9.6445 30.668-20.512 44.688-32.496 24.375-21.562 38.812-47.352 55.023-74.25-0.88281-4.3867-2.3516-8.6328-4.3672-12.629-1.9414-3.8711-5.0234-6.5625-4.0859-7.6016 0.35547-0.50781 1.3594-0.57031 2.8672-0.14062 2.3594 0.61328 4.5117 1.8516 6.2344 3.582 2.1719 1.9727 3.9922 4.3008 5.3789 6.8906 0.14844-0.28906 0.28906-0.57031 0.42969-0.78906h0.003907c0.69141-1.1172 1.5898-2.0898 2.6523-2.8672 0.17578-0.35938 0.42188-0.67578 0.72266-0.9375 0.35547-1.0781 0.78906-1.9297 1.1445-3.0078 9.6836-27.555 13.922-51.441 17.363-51.148 2.8125 0.066407 4.0859 19.801-2.7266 44.617 28.984-15.66 59.047-29.387 88.75-43.777zm-136.67 5.3828c5.7383-9.543 29.203-34.152 16.07-45.938-5.9141-5.1445-11.473-10.684-16.641-16.578-26.52 24.719-51.125 51.41-73.602 79.848v0.066406c1.5078 0.64844 2.9453 1.5859 4.3789 2.1562h-0.003906c3.2383 1.25 6.7461 1.6445 10.184 1.1445 3.4375-0.75781 6.7188-2.1133 9.6836-4.0117 5.5312-3.8672 10.523-8.4531 14.852-13.633 7.8203-9.0391 12.348-15.496 13.922-14.633 1.3594 0.71094-0.35547 8.4375-7.0312 19.688-3.9727 6.8086-9.1836 12.816-15.359 17.719-4.0859 3.0703-8.7383 5.3008-13.695 6.5625-5.6953 1.1484-11.602 0.625-17.008-1.5117-2.1914-0.96484-4.3242-2.0664-6.3828-3.3008-0.35547-0.21484-0.71094-0.49609-1.0039-0.71094-1.5742 1.9297-3.1602 3.9453-4.6875 5.9531 15.789 11.336 31.492 21.883 51.227 7.6797 14.379-10.922 26.332-24.715 35.098-40.5zm-120.45 194.69c8.1797-4.7383 16.359-9.5195 24.535-14.344-17.57-19.875-48.348-24.965-67.789-43.762-14.492 19.227-29.27 38.305-44.832 56.672 29.195 0 58.32 1.2188 87.516 1.3672 0.26172 0.011719 0.42969 0.066407 0.57031 0.066407z"/>
 <path d="m873.68 731.16c0.42969 0.71094-1.1445 2.2969-4.4453 4.6875h0.003907c-4.5547 3.4062-9.4609 6.3164-14.637 8.6797-17.004 7.6875-34.949 13.09-53.371 16.07-18.301 3.0156-36.844 4.3125-55.387 3.8711-14.129-0.49609-22.742-2.1484-22.809-3.75 0-3.582 34.688-5.3047 76.18-12.047 17.645-3.0742 35.105-7.1211 52.305-12.121 13.047-4.1055 21.234-7.0391 22.16-5.3906z"/>
 <path d="m739.54 214.35c1.3594 13.125-1.293 20.625-2.7266 20.625-1.7891 0-2.4375-7.8203-5.6719-18.75h-0.003906c-0.83984-2.8008-1.9922-5.4961-3.4414-8.0352-1.1523-2.2695-2.9805-4.1211-5.2305-5.3086 0-0.14844-0.79688-0.36719-1.5859-0.50781l-0.35547 1.1523v0.003906c-0.60938 1.6211-1.457 3.1445-2.5117 4.5195l-0.57031 0.64844-0.074218 0.21484-0.066407 0.066407-0.58203 0.57031-0.49609 0.42969-2.0078 1.5859c-2.9414 1.9688-6.4336 2.9531-9.9727 2.8125-3.0664-0.11719-6.082-0.79688-8.8984-2.0078-2.4102-0.99219-4.7188-2.2188-6.8906-3.6562l-1.875-1.3672c-0.007813-0.054687-0.03125-0.10156-0.066406-0.14062-3.0938 3.8242-5.4336 8.207-6.8906 12.91-1.1445 4.6875-2.7266 7.5-4.4453 7.5-1.7148 0-3.0859-3.0078-4.0859-7.7422v-0.003906c-0.12891-1.4805-0.17969-2.9648-0.14844-4.4531-0.066406-1.7734 0.17969-3.543 0.72266-5.2305 0.49609-1.9414 1.1953-3.8281 2.0781-5.625 1.0039-1.6484 2.1484-3.375 3.3672-5.0234 1.0039-1.3594 1.9414-2.6523 2.8672-3.8711l1.5078-1.9414c0.21484-0.57031 0.42969-1.0039 0.64844-1.5 1.1992-1.9688 2.2305-4.0312 3.0859-6.1719 0.50781-1.0781 1.0039-2.082 1.5078-2.9453v0.003906c0.93359-3.7422 1.5312-7.5625 1.793-11.41 0.17188-4.2461-0.23828-8.4922-1.2188-12.629-1.3594-3.1484-2.0078-5.0898-1.3594-5.625 0.63672-0.42969 2.5039 0.42969 5.0898 2.8125 3.3555 4.375 5.4414 9.5859 6.0273 15.066 0.82422 7.7305 0.16406 15.543-1.9414 23.023-0.35547 1.5078-0.86328 3.0938-0.9375 3.9453v0.074219l0.85156 0.50781 0.003906 0.003906c1.5625 0.98047 3.2188 1.7969 4.9492 2.4375 1.4375 0.60156 2.9648 0.96484 4.5195 1.0781 1.0664 0.074218 2.125-0.20703 3.0195-0.79688 0.17969-0.10937 0.37109-0.20312 0.57031-0.28125l0.074219-0.074218 0.57031-0.64844 0.50781-0.64844v-0.26172c0-0.074219 0 0.074219 0.20703-0.50781l0.50781-1.3594c0.27734-0.76172 0.61328-1.5039 1-2.2188 0.26172-0.49609 0.55078-0.97266 0.86328-1.4375 0.51562-0.58203 1.0664-1.1328 1.6523-1.6484 1.1562-0.92969 2.5469-1.5234 4.0195-1.7266 1.8789-0.27734 3.7969-0.15625 5.625 0.35938 1.1953 0.32422 2.3477 0.78516 3.4414 1.3672 4.5859 2.3633 8.1602 6.3164 10.051 11.117 1.4883 3.4141 2.4727 7.0234 2.9258 10.719z"/>
</svg>
