<?xml version="1.0" encoding="UTF-8"?>
<svg width="1200pt" height="1200pt" version="1.1" viewBox="0 0 1200 1200" xmlns="http://www.w3.org/2000/svg">
 <path d="m49.117 564.52c-2.9727-7.6172-2.9297-16.074 0.10937-23.664 3.6602-5.9453 10.156-9.5508 17.141-9.5156 2.0664-3.5508 5.1055-6.4375 8.7617-8.3203 3.6523-1.8828 7.7695-2.6797 11.863-2.3008-1.3906-4.207-1.2969-8.7656 0.26953-12.914 1.5625-4.1484 4.5039-7.6328 8.3242-9.875 20.43-15.758 59.727 20.43 76.586 27.758 27.457 11.078 56.426 17.965 85.93 20.43 22.754 3.9141 45.75 6.2539 68.824 7.0117 23.023-0.75 44.148-26.719 62.812-38.832 18.801-11.59 36.789-24.453 53.84-38.492 5.7461-18.082 16.867-33.984 31.875-45.59 1.7891-35.551 17.082-67.695 50.785-83.223 1.5586-0.68359 3.2695-0.94141 4.957-0.75 1.0156-10.156 5.3594-19.691 12.359-27.121 33.582-41.25 53.383-78.656 112.64-70.754 23.605 3.1797 50.324 12.816 63.086 31.977h-0.003906c4.8203-1.4727 9.9688-1.5039 14.809-0.089844 4.8359 1.4141 9.1562 4.2109 12.426 8.0508 1.5898-0.375 3.2148-0.56641 4.8477-0.57422 33.215-27.566 69.77-50.848 108.8-69.289 20.258-9.7578 55.754-19.566 71.391 4.0977 18.289 27.758-1.5 59.211-24.703 77.324-15.059 11.773-32.098 20.766-50.316 26.551-29.551 9.9844-24.816 41.148-34.34 65.672-1.1602 3.1641-4.0312 5.3867-7.3867 5.7188-6.4609 13.387-15.402 23.195-26.25 15.289-10.211 16.273-27.984 15.402-30.523-10.68-0.40234-4.1523-0.46094-8.3047-0.51562-12.523-9.6367 4.6875-23.785 11.371-27.008 17.316-2.6523 4.7891-5.1953 9.6367-7.6211 14.484h-0.003906c-5.7656 7.8555-12.344 15.082-19.621 21.562-9.6953 9.2344-18.93 18.816-28.855 27.758-7.7891 6.9844-5.9453 8.1953-5.1953 17.605v0.003907c0.375 4.5273 0.375 9.082 0 13.609 15.32 13.691 29.223 28.891 41.492 45.367 13.855 18.695 45.883 6.6953 66.422 7.2109 45.477 1.0391 81.195 17.203 123.21 32.258 24.121 8.6641 55.801 22.621 81.891 21.355 18.121-0.9375 39.18-7.7344 57.188-1.875 27.188 8.7656 55.398 15.695 75.656 36.984 0.51563 0.52344 1.0391 1.0391 1.5547 1.6211 19.508 20.625 42.367 49.227 23.438 78.309-26.195 40.227-82.754-2.5977-112.01-12.289-31.68-10.566-58.855-31.398-90.602-41.035h0.003906c-34.57-9.8711-70.496-14.137-106.41-12.637-60.309 1.2109-121.19 7.1523-179.42-10.789 28.125 39.469 36.355 92.738 50.383 138.09 5.418 17.551 8.6523 38.035 18.348 53.906h-0.003906c8.9062 12.199 17.168 24.852 24.758 37.91 12.469 26.551 11.023 56.25 22.219 82.875 14.371 34.164 40.051 56.324 64.52 82.641 12.402 13.266 19.734 26.082 12.582 43.914-9.1797 22.914-34.453 21.18-51.562 33.648-21.562 15.75-29.898 31.219-57.59 36.469-26.383 5.0234-50.035 10.848-76.125 0.98438-10.312-3.9297-26.945-16.875-22.734-30.188 7.5-23.371 29.148-32.023 46.633-47.023 16.332-14.062 35.023-31.285 25.566-55.52l-0.003906-0.003907c-6.3008-16.98-14.246-33.309-23.719-48.75-31.875-50.316-76.875-83.738-96.207-141.79-15.805-47.438-56.84-88.527-60.938-139.55v0.003906c-1.1641-0.63672-2.2344-1.4336-3.1758-2.3633-7.4453-7.4453-9.1133-26.832-11.887-36.242h-0.003906c-5.9414-18.086-8.9609-37-8.9414-56.035-12.863-11.809-21.109-27.805-23.262-45.133-23.793 17.227-46.25 36.23-67.172 56.852-15 15.805-34.105 33.234-57.535 33.121-74.906-0.46094-147.62-33.469-218.15-55.172-26.887 11.195-60.535 0.12109-83.102-16.039h0.003907c-1.7695-1.2656-3.0195-3.1328-3.5156-5.25-0.89062-1.0273-1.5352-2.2422-1.8906-3.5547zm1078 151.38c4.3555-6.125 5.125-14.109 2.0156-20.953-10.969-39.121-49.453-56.09-84.254-68.324-4.1641-1.4414-8.4844-2.3828-12.871-2.8125l-0.34766 0.34766c-35.625 29.258 14.945 48.75 33.648 63.195 17.023 13.211 35.203 37.855 59.383 29.062h-0.003906c0.78516-0.27344 1.6016-0.44531 2.4297-0.51562zm-71.906-11.25c1.3789 0.69531 3.3477 1.6211 5.7109 2.6523h-0.003906c-9.8945-7.8945-20.18-15.289-30.812-22.152-22.914-14.371-34.742-39.188-21.758-60.656h-0.003906c-8.5 1.2148-17.098 1.6367-25.676 1.2656-0.90625 14.492-3.3477 28.848-7.2773 42.824 8.8867 4.6875 17.719 9.5234 26.898 13.902 17.316 8.3086 35.66 13.613 52.922 22.152zm-95.277-43.707c3.2891-12.148 5.1953-24.633 5.6797-37.211-6.9844-1.0977-13.969-2.5391-20.887-4.2109v0.003906c0.027344 11.234-2.8906 22.281-8.457 32.043 1.875 0.63672 3.8047 1.2109 5.7109 1.875 6.1055 2.1914 12.098 4.6953 17.953 7.5zm-39.59-16.332h-0.003907c5.6602-8.7969 8.1641-19.254 7.0977-29.66-20.68-6.3164-40.953-13.891-60.711-22.68-24.234-11.145-50.273-17.848-76.875-19.789 9.9297 22.152 6.1797 45-0.98438 68.148 43.801-1.5547 87.664-3.6836 130.13 6.2344v-0.003906c0.35547-0.81641 0.80469-1.5859 1.3398-2.2969zm-12.348-370.03c5.8203-7.332 23.598-36.648 9.2891-46.398v0.003907c-16.445 1.707-31.98 8.3672-44.559 19.094 14.258 6.1211 20.773 25.051 20.09 41.672 5.7031-4.0781 10.809-8.9336 15.18-14.418zm-28.398 22.453c4.2109-13.508-0.98438-37.574-16.039-39.824-0.37109-0.11719-0.73047-0.26562-1.0703-0.44922-13.68 14.062-25.508 30.871-42.02 45.074-11.48 10.875-25.914 18.121-41.492 20.832-21.992 1.8633-42.32 12.465-56.438 29.426-13.211 15.523 20.258-2.8125 27.648-4.2109l-0.003907 0.003906c4.6055-0.50781 9.1641 1.2852 12.188 4.7891 5.8203 5.082 6.3477 17.023 6.6953 24.066 0.28906 5.7656 0.28906 11.539 0.51562 17.305 0.054688 1.6211 3.0547 20.625 8.3711 13.453l-0.17969-0.12109-0.40234-0.28125c-0.57812-0.39062-1.1367-0.81641-1.668-1.2734l-1.0391-1.3867c-1.6953-2.7305-2.6602-5.8477-2.8125-9.0586-0.28906-4.3555-0.078125-8.7305 0.63672-13.039 1.2109-7.2188 2.6523-11.195 3.8711-11.316 1.4336 0 2.418 4.6875 3 11.539 0.34766 3.4141 0.62891 7.5664 1.3789 11.605 0.12109 0.62891 0.28906 1.2109 0.46875 1.875v0.003906c1.0273-3.4141 1.8555-6.8828 2.4766-10.391 0.9375-4.4453 1.7344-8.5391 2.3711-11.945 1.4453-6.8711 3.1133-11.316 4.5-11.023 1.2109 0.22656 2.0703 4.4453 2.418 11.598 0.13672 4.2148 0.019531 8.4375-0.34766 12.637-0.30859 3.8242-0.96484 7.6133-1.957 11.316 0.12109 0.11328 0.23437 0.16797 0.34766 0.28125h-0.003906c0.96094 1.7422 2.9844 2.6016 4.9062 2.082 0.003906-2.4492 0.27734-4.8867 0.8125-7.2734 0.28125-1.2656 0.57031-2.5312 0.80469-3.918l0.16797-1.0391 0.054687-0.51562 0.054688-0.23438-0.16797-0.11328 0.007812-0.003906c0.007813-0.55859 0.042969-1.1211 0.10938-1.6758 0.28906-5.1953 0.69531-9.9297 1.1523-13.848 0.87109-7.8477 2.082-12.695 3.4141-12.695 1.332 0 2.4766 4.9023 3.4023 12.805 0.16797 1.6797-0.75 21.355 3.918 14.945 1.9688-2.8125 0.75-7.2109 1.0391-10.312 0.52344-6.0664 2.1367-12.301 2.1367-18.355h0.003906c-0.46875-4.3203-0.39062-8.6836 0.23438-12.984 1.2539-9.8633 6.457-18.797 14.418-24.75 16.914-10.199 35.383-15.102 52.117-23.645zm-5.9453-65.465c-9.8594 3.9688-19.262 9-28.039 15-2.5391 1.7266-5.1367 3.4023-7.7344 5.0703 0.52734 3.0742 1.9805 5.9141 4.1641 8.1406 9.293-10.711 19.918-20.191 31.609-28.211zm-65.383 863.1c19.445-8.1953 23.945-16.789 21.871-24.93h0.003906c-6.5508 5.5508-14.035 9.8906-22.105 12.816-21.434 12.613-43.668 23.812-66.562 33.523-25.219 9-55.922 19.734-76.809 0.52344-9.6953 10.098-14.719 21.562 5.7109 26.316h-0.003906c16.719 3.3359 33.98 2.7812 50.449-1.6211 16.387-3.1133 31.734-6.2344 43.801-19.098h-0.003907c5.5234-6.8555 12.129-12.762 19.559-17.484 7.875-3.8984 15.957-6.6094 24.094-10.02zm25.734-825.94h0.003906c-2.7461-3.1797-5.0195-6.7344-6.75-10.559-21.098 11.723-41.363 24.879-60.656 39.375 2.0703 3.9922 3.4297 8.3125 4.0117 12.77 0.054688 0.28125 0 0.51562 0.054688 0.80469 17.93-2.543 34.516-10.922 47.203-23.84 5.5156-6.2891 10.867-12.516 16.137-18.523zm-11.828 788.23c-4.332-4.7344-9.5234-9.0664-13.5-12.871-2.0234-1.875-3.9297-3.8047-5.832-5.7734v-0.003906c-1.5586 3.3828-3.918 6.3359-6.8711 8.6055-5.7656 4.4453-15.289 6.2812-19.098 12.695-0.4375 0.74609-0.96094 1.4414-1.5547 2.0703 4.9492 5.332 8.7578 11.617 11.191 18.469 2.1953-1.2109 4.4453-2.418 6.6953-3.5703 7.6797-3.9297 25.566-8.9531 28.969-19.621zm-59.492-12.469c11.359-3.1367 20.672-11.273 25.312-22.105-6.9961-8.0508-13.398-16.594-19.164-25.566-12.16 9.9727-26.727 16.582-42.242 19.16 3.0078 7.7617 4.6484 15.98 4.8438 24.301 9.7656 4.4805 20.645 5.9453 31.25 4.2109zm13.211 41.664v-0.054688l-0.003906-0.003906c-2.168-7.875-6.8984-14.801-13.441-19.688-12.414-1.1445-24.602-4.0586-36.188-8.6523-7.0039 10.859-15.426 20.738-25.043 29.371 11.02 3.5664 20.078 11.52 25.043 21.984 6.1797-2.1953 11.953-4.5547 16.801-6.4023h-0.003907c11.375-4.6211 22.355-10.156 32.832-16.559zm-5.3672-445c7.8477-23.316 13.68-46.227-0.28906-68.727-2.3047 0.16797-4.6875 0.40234-7.0391 0.62891l0.46094 0.9375 0.23438 0.51562 0.054688 0.17969 0.11328 0.34766-0.003907-0.003906c0.85547 3.1953 1.4336 6.457 1.7344 9.75 0.11719 3.0664-0.035157 6.1367-0.45703 9.1758-0.65234 4.9453-1.7734 9.8125-3.3477 14.543-2.7188 8.0234-5.3164 12.469-6.5625 12.188s-1.0391-5.625-0.17969-13.621c0.46875-4.0391 0.9375-8.7734 1.2188-13.848 0.11328-2.5977 0.054688-5.2031-0.17578-7.793-0.53906-2.3086-0.85156-4.668-0.9375-7.0391-0.46484-0.67969-0.87109-1.3945-1.2188-2.1367-0.34766-0.69531-0.62891-0.58203-0.86328-0.9375-0.054688-0.28125-0.58203-0.57031-0.9375-0.86328-2.1523 0.054687-4.2969 0.28516-6.4141 0.69531 3.1289 7.4883 4.1289 15.695 2.8906 23.719-0.80469 10.387-2.8867 16.5-4.2109 16.387-1.3203-0.11328-1.6797-6.4609-2.6641-16.273-0.28125-2.9453-1.7266-23.195-6.6953-23.195-2.0156 0-3.9766-0.066406-5.8789-0.12109l-0.23438 0.52344h0.003906c0.023437 0.23438 0.0625 0.46484 0.11328 0.69531l0.58203 2.5312c1.4844 10.031 0.33203 20.277-3.3477 29.727-0.98438 2.4766-1.7891 4.6875-2.6523 6.5625-0.86328 1.875-1.7891 3.2344-2.5977 4.4453-1.6211 2.4297-2.7188 3.6367-3.3477 3.4141-0.62891-0.22656-0.70312-2-0.16016-4.8125 0.28906-1.4453 0.69531-3.1211 1.1523-5.082 0.46094-1.9609 0.81641-4.0977 1.2734-6.4688h0.003906c2.0352-8.4805 2.1719-17.305 0.40234-25.848l-0.63672-2.8125c-0.23047-1.3516-0.32812-2.7227-0.29297-4.0938-1.0977-0.23437-2.1289-0.51562-3.168-0.80469-5.8867 22.68-13.68 49.855-32.035 63.02v-0.003906c28.484 4.3594 57.328 5.8672 86.109 4.5zm-17.727-268.24c1.0781-0.49219 2.2266-0.80859 3.4023-0.9375-3.168-13.273-13.125-7.8477-23.773-2.5977-3.7148 2.6094-8.0547 4.1836-12.578 4.5586-4.5234 0.375-9.0625-0.46094-13.156-2.418-3.9297 6.0977-9.0078 11.371-14.953 15.523 3.1797 14.887 0.52344 29.062-14.711 37.219-20.492 11.023-38.672 2.6523-55.059-11.371-3.4531-0.52344-6.7344-1.8438-9.582-3.8633-1.0781-0.70703-2.0469-1.5625-2.8867-2.5391l-1.2109-1.4453-0.57031-0.69531-0.23438-0.28906-0.12109-0.22656-0.51562-0.80469c-0.16797-0.29688-0.30469-0.60938-0.40234-0.9375-1.0742-0.035156-2.1289-0.26953-3.1133-0.69531-22.855-9.8047-55.977-20.945-67.754-39.703-0.16797 0.074219-0.32031 0.17188-0.46094 0.29297-28.508 13.125-40.801 38.664-42.242 68.785 3.7305-1.4844 7.5703-2.6797 11.484-3.5742 10.043-2.0352 20.402-1.9609 30.414 0.22656 7.2656 2.1367 11.305 4.4453 11.137 5.625-0.28906 1.4453-5.082 1.4453-12.414 1.1523-9.0977-0.023437-18.176 0.80469-27.121 2.4766-6 1.3867-11.539 3.0664-16.5 4.7344-0.17969 0.12109-0.28906 0.23438-0.46875 0.34766v-0.003907c-13.355 8.9062-23.398 21.969-28.566 37.164 0.19922 0.83203 0.21875 1.6992 0.058593 2.5391 7.2734 10.219 14.371 20.492 21.301 30.938 2.8125 4.3203 6.1133 8.5977 8.9453 13.125l0.16797 0.054687 1.3867 0.34766-0.003906 0.003907c5.5742 1.0195 11.312 0.69922 16.734-0.9375 5.9453-1.5 12.008-2.8867 17.316-4.332 9.6133-2.3477 18.957-5.6953 27.871-9.9844 3.3789-1.6836 6.6562-3.5625 9.8164-5.625 2.5391-1.9609 5.0156-3.4023 6.8047-5.0234 3.6367-3.3477 5.8867-4.9609 6.3477-4.5 0.46094 0.46094-0.75 2.8867-3.4609 6.9297l0.003906-0.003906c-1.9258 2.4414-4.0273 4.7344-6.293 6.8633-3.0664 2.707-6.3477 5.1562-9.8125 7.332-8.9727 5.4844-18.637 9.7539-28.734 12.691-5.7188 1.7891-11.43 3.2344-17.605 4.9688h-0.003907c-4.2891 1.1406-8.6875 1.8164-13.125 2.0156 0.26563 0.070312 0.53516 0.10547 0.80859 0.11328 3 0.41406 5.9453 0.81641 8.832 1.1641 2.8867 0.34766 5.5391 0.34766 8.25 0.57031 9.7188 0.24609 19.441-0.33594 29.062-1.7344 16.613-2.4766 27.066-4.4453 27.414-3.0547h-0.003906c-7.9609 4.9922-16.859 8.3125-26.145 9.7578-9.9922 2.4727-20.234 3.8047-30.527 3.9766-2.9453-0.11328-6.1797 0-9.1211-0.28125-2.9453-0.28125-6-0.63672-9.1211-0.9375-0.51562-0.11328-1.0859-0.16797-1.668-0.23438 3.2344 21.066 8.832 41.961 31.875 49.172 15.789 4.8047 32.148 7.4883 48.645 7.9688 27.414 0.9375 26.492-11.484 39.938-30.355 1.875-2.7188 3.9844-5.4297 6.1211-8.1953-0.52344 0.33594-1.0977 0.68359-1.6797 1.0859-1.9609 1.332-3.8633 2.2578-5.8867 3.4688h0.003907c-2.168 1.2617-4.4023 2.3984-6.6953 3.4023-9.0508 3.5039-18.863 4.5586-28.453 3.0586-7.4375-1.043-14.723-2.9805-21.695-5.7656-11.719-4.6875-18.18-9.0078-17.719-10.164 0.51562-1.3203 8.0234 0.69531 19.789 3.582h0.003906c6.7539 1.668 13.621 2.8242 20.551 3.4609 8.0625 0.79688 16.199-0.28906 23.773-3.1719 3.9453-1.8438 7.7969-3.8867 11.539-6.1211 1.875-1.0977 3.582-2.1953 5.3047-3.2344 1.7266-1.0391 3.2891-2.3047 4.9141-3.4023 5.5391-3.9648 10.449-8.7344 14.57-14.156 2.4922-3.3906 4.7656-6.9336 6.8047-10.613 1.0469-2.6836 1.8789-5.4453 2.4844-8.2578 1.6836-8.4766 1.9766-17.168 0.86328-25.734-0.69531 1.5-1.3203 3-2.0156 4.6133-1.5547 3.582-3.1211 7.332-4.7891 11.195v-0.003906c-1.7812 4.4414-4.0664 8.6602-6.8086 12.582-2.9727 3.8711-6.4727 7.3086-10.395 10.219-3.5547 2.5156-7.2969 4.7539-11.195 6.6953-6.9844 3.4609-13.125 6.8711-18.984 9.1797v-0.003906c-4.6328 1.9961-9.6055 3.0938-14.652 3.2344-3.4688-0.23438-5.2578-0.98438-5.3164-1.6211-0.054688-0.63672 1.875-1.2656 5.0234-2.1953h0.003907c4.1562-1.4766 8.1562-3.3594 11.941-5.625 4.9023-2.8125 10.848-6.9297 17.719-10.848v0.003907c6.9492-3.6914 13.074-8.7578 18-14.891 2.3359-3.3086 4.3281-6.8516 5.9453-10.562 1.7344-3.8633 3.582-7.668 5.3711-11.25 0.86328-1.6797 1.7344-3.2891 2.6523-4.8477-1.2656 0.34766-2.5391 0.69531-3.6953 1.0391-1.4453 0.40234-3 1.0977-4.5 1.6133l-2.1953 0.80469-1.7891 0.80469 0.003906 0.003906c-4.957 2.3398-10.066 4.3438-15.293 6-2.3633 0.63672-4.5 1.1641-6.3477 1.5664-1.5664 0.21875-3.1484 0.3125-4.7344 0.28125-2.6523 0-4.1523-0.33594-4.2656-0.9375-0.11328-0.60156 1.0859-1.6211 3.4609-2.7109 1.1523-0.58203 2.6523-1.1641 4.332-1.875 1.5-0.86328 3.2266-1.7266 5.1289-2.7109 3.8164-1.9609 8.4375-4.6875 13.734-7.6133 0.81641-0.41406 0.98437-0.58203 2.3164-1.2188l2.1289-0.9375c1.5-0.63672 2.8125-1.332 4.5664-1.875s3.4023-1.0977 5.1367-1.6797c1.7344-0.58203 3.168-0.9375 4.8477-1.5 0.9375-0.28906 1.875-0.69531 2.8125-1.0391l-0.003906 0.003907c0.17969-1.0703 0.53125-2.1016 1.0391-3.0586 5.8867-11.316 17.887-18.582 26.605-27.648l0.003906 0.003906c15.977-16.414 30.414-34.262 43.125-53.316 7.7422-11.664 20.961-12.816 32.492-18.648zm1.2109-57.59c-0.058594-0.12891-0.097657-0.26562-0.11328-0.40234-0.11328-3.75-1.0352-7.4336-2.7109-10.793 0.75 0.9375-3.8164 1.875-5.0234 2.418v0.003907c-3.793 1.0273-7.8047-0.59766-9.8086-3.9766-2.0195-3.8555-6.1055-6.1758-10.453-5.9453 1.0586 5.418 1.2344 10.973 0.52734 16.445-0.75 5.7734-1.875 12.188-3.4688 18.871 4.5195-4.3711 9.6758-8.0273 15.301-10.848 5.0859-2.3477 10.355-4.2812 15.758-5.7734zm-34.742 683.91h-0.003906c15.156-1.3008 29.504-7.3828 40.98-17.371-8.7812-16.938-14.875-35.141-18.066-53.953-1.9648-11.207-5.2773-22.137-9.8633-32.551-12.121 18.582-37.051 29.773-59.727 33.637 5.8203 7.1055 11.539 14.371 16.875 22.164 11.055 15.305 21.02 31.367 29.812 48.074zm2.1367-120.94h-0.003907c0.25781-0.82422 0.60547-1.6211 1.043-2.3711-2.3633-4.2109-4.8477-8.4375-7.5-12.805-2.5664 4.5625-6.082 8.5156-10.312 11.598-4.7617 3.4531-10.098 6.0352-15.762 7.6211-3.7617 1.1055-7.6719 1.6289-11.594 1.5547-2.6523-0.23438-4.1523-0.75-4.2109-1.3867-0.054687-0.63672 1.2656-1.4453 3.75-2.3633 2.3047-1.0391 5.625-2.25 9.6367-4.2188 4.5078-2.2383 8.7344-5.0078 12.582-8.25 4.3828-3.5039 7.5664-8.2852 9.1133-13.676 0.12109-0.63672 0.17969-1.2656 0.28906-1.875-0.80469-1.3867-1.5547-2.7109-2.3047-4.0391v-0.003906c-2.1602 2.8398-4.7031 5.3633-7.5586 7.5-2.7109 2.0742-5.5625 3.9531-8.5391 5.625-10.801 5.9453-17.719 8.3047-18.414 7.2656-0.80469-1.2109 5.25-5.8867 14.539-12.984h0.003906c5.2812-3.6719 9.8359-8.2891 13.434-13.621 0.79297-1.3125 1.3984-2.7266 1.7891-4.2109-1.2656-3-2.3633-6.0547-3.4609-9.1211h0.003906c-3.8398 5.1836-8.3203 9.8555-13.332 13.914-5.918 4.457-12.73 7.5898-19.969 9.1758-4.7227 0.99609-9.5703 1.25-14.371 0.75-3.2266-0.40234-5.0703-0.98437-5.1367-1.6211-0.066406-0.63672 1.7344-1.3789 4.9688-2.1289 4.3047-0.91406 8.543-2.1094 12.691-3.5781 5.9102-2.1914 11.387-5.4141 16.164-9.5273 5.7812-5.3672 10.824-11.48 15-18.176l0.23438-0.34766c-1.5547-5.0156-3.1211-10.039-4.6875-15.113-10.527 8.9062-22.406 16.074-35.195 21.234-15.969 6.1523-33.453 7.1797-50.035 2.9453 0.34766 1.0977 0.80469 2.1367 1.0977 3.2266 10.508 34.52 31.969 58.754 53.727 83.859 22.109-1.1094 55.98-12.367 62.328-34.867zm-12.285-565.18c0.60156-8.8711-1.7695-17.688-6.7305-25.062-4.9648-7.3789-12.238-12.895-20.68-15.68 0.63672 0.75 1.332 1.5 1.875 2.25 3 3.7695 5.4531 7.9492 7.2734 12.41 1.2969 3.1289 1.9609 6.4805 1.9609 9.8633-0.34766 2.1953-0.86328 3.4023-1.5547 3.5234-0.69531 0.12109-1.4453-1.0977-2.25-3.1797-1.0391-1.9609-2.25-3.918-4.2734-7.0391h-0.003906c-2.3984-3.4336-5.0586-6.6719-7.9609-9.6914-1.6016-1.7305-3.3359-3.332-5.1914-4.793-0.88281-0.70312-1.8242-1.3281-2.8125-1.875-1.2656-0.69531-2.5391-1.3867-3.8047-2.1367h-0.003907c-4.5234-1.918-9.2383-3.3672-14.062-4.3203-3.2891-0.69531-6.2891-1.1641-9.1133-1.5664h0.003907c-1 0.41406-1.9062 1.0195-2.6641 1.7891-0.74609 0.82031-1.1602 1.8906-1.1523 3-0.10156 1.2539-0.0625 2.5117 0.12109 3.75 0.039063 0.60547 0.13281 1.207 0.28125 1.793l0.17969 0.9375c0.066407 0.054688 0.10938 0.13672 0.10938 0.22266 0.11328 0.17969-0.11328 0 0.11328 0.46875l0.23438 0.46094 1.2734 1.0391h0.003907c1.0664 0.99219 2.0469 2.0703 2.9336 3.2266l0.58203 0.75c0.0625 0.125 0.14063 0.24219 0.23438 0.34766l0.054687 0.066407c2.4727 4.2812 1.6992 9.7031-1.875 13.125-4.0977 4.9609-5.082 12.637 3.4023 14.652 6.1133 0.61328 12.172 1.6953 18.121 3.2344 0.64063 0.25391 1.3359 0.33594 2.0156 0.23438 0.58203 0.023438 1.1602 0.078125 1.7344 0.16797 0.79688 0.10547 1.5117 0.54688 1.9609 1.2109 0.46875 1.2188 0 3.1797-2.8789 5.4297-0.28906 0.23438-0.69531 0.34766-0.98438 0.58203 3.8633 1.2656 7.0977 2.4766 9.9297 3.168 4.9609 1.5 9.2344 1.875 9.2344 3.3477 0 1.2188-3.1211 3.2891-10.051 3.4688v-0.003906c-7.7031-0.52344-15.344-1.6992-22.848-3.5234-0.52344 0-1.2734-0.11328-1.5547-0.11328-0.26953 0.046875-0.54297 0.066406-0.81641 0.054688-0.6875 0.070312-1.3672 0.22266-2.0156 0.46094-1.3711 0.44141-2.6289 1.168-3.6953 2.1367-2.293 2.0508-4.3281 4.3789-6.0547 6.9297-0.58203 0.80469-1.1523 1.6133-1.6797 2.3047l-0.054688 0.22656c-0.23438 0.75 0.23438 0.52344 0.16797 0.81641 0.12109 0.11328-0.054688 0.16797 0.066406 0.40234 0.43359 1.6016 1.1992 3.0977 2.25 4.3867 2.0703 2.5977 5.25 5.7109 8.4375 9.1133l5.8867 6.2891-5.1367 6.1797c-0.66016 0.80859-1.3711 1.5781-2.1289 2.3047 3.1133-0.37109 6.2578-0.39062 9.375-0.054687 3.7109 0.41016 7.332 1.4023 10.734 2.9414 1.0391 0.57031 2.1367 1.2109 3.2344 1.875 0.71484 0.54688 1.3906 1.1445 2.0156 1.793 23.512-3.957 37.48-42.328 38.23-63.695zm5.4844 799.73c-5.2695-8.4805-13.703-14.504-23.438-16.734-0.16406-0.050781-0.32422-0.12891-0.46875-0.22656-1.5 1.1523-2.9453 2.3047-4.5 3.4023-1.7344 1.2109-7.0391 4.7891-12.695 9.375 10.746 9.3867 26.273 8.2344 41.102 4.1367zm-13.441-549.55c-0.59375-0.59375-1.1523-1.2188-1.6797-1.875-10.266-13.926-21.676-26.973-34.105-39.008-4.543 13.098-10.875 25.508-18.816 36.871 6.3281 21.836 7.6875 44.809 3.9844 67.238 1.6211 0.1875 3.2227 0.5 4.793 0.9375 1.3633 0.25391 2.7109 0.58203 4.0391 0.98438 1.2188-0.76562 2.6055-1.2227 4.0391-1.332 15.234-1.3203 23.438-17.25 27.355-30.414 3.2852-11.184 7.0977-22.207 10.391-33.402zm-18.301 219.58c0.054688-0.054688 0.12109-0.054688 0.12109-0.11328-13.734-41.09-19.219-88.875-44.27-124.59-11.887 14.062-32.605 20.371-50.148 26.551h0.003906c-13.883 5.8516-28.414 10.016-43.285 12.402 4.6875 39.469 33.75 73.574 51.309 110.11 17.711 3.0547 35.625 7.5 52.801-0.80469 11.719-5.7188 26.43-11.945 33.469-23.551zm-12.113-375c4.5312-3.2812 6.4531-9.0898 4.7812-14.426-0.125 0.0625-0.26172 0.10156-0.40234 0.10937-0.54688 1.668-1.2578 3.2734-2.1289 4.793-0.75 1.1523-1.5664 2.25-2.3164 3.4023l-0.62891 0.80469-1.2734 1.2734-1.0977 1.0391v0.003907c-0.36328 0.40625-0.76953 0.77344-1.207 1.0977l-2.1953 1.5-2.3047 1.4336c-0.75 0.41406-1.332 0.58203-2.0234 0.9375h-0.003906c-2.0117 0.85547-4.0938 1.5273-6.2227 2.0156 5.9961 1.2148 12.223-0.26953 17.023-4.0586zm-15.648-13.332c3.9844-1.5664 9.375-3.4023 6.1797-8.8867-4.6875-7.8477-15.469-0.87109-21.637-2.3711-1.1523-0.28125-2.1367-0.62891-3.2891-0.9375l-1.6211-0.52344-0.46094-0.16797-0.16797-0.054688-0.9375-0.46875-1.0391-0.51562-0.003906-0.003906c-2.0703-0.99609-3.8867-2.457-5.3047-4.2656-0.43359-0.46094-0.78516-0.98828-1.043-1.5664-0.31641-0.6875-0.58594-1.4023-0.80469-2.1289-0.47266-1.8477-0.43359-3.793 0.11328-5.625 0.46875-1.5078 1.2109-2.9141 2.1914-4.1523-1.3203-1.3867-2.7109-2.8125-4.1523-4.6133-3.4883-4.3711-5.5469-9.7148-5.8867-15.297 0.039062-3.0625 0.54297-6.1016 1.5-9.0117 0.9375-1.9609 1.875-3.8633 2.7109-5.7109v0.003906c2.5586-3.6367 6.0234-6.5469 10.047-8.4375-1.0234-0.6875-1.9922-1.457-2.8867-2.3086-2.1406-1.9922-3.8984-4.3594-5.1914-6.9844-2.75-5.1875-2.7969-11.391-0.125-16.621 0.22266-0.46875 0.49609-0.91406 0.81641-1.3203l0.62891-0.98438 0.17969-0.28906c-0.28906-0.34766-0.63672-0.62891-0.9375-1.0312l-0.62891-0.87109-0.34766-0.40234-0.12109-0.22656c-0.054687-0.066406-0.51562-0.9375-0.51562-0.9375s-0.28906-0.75-0.28906-0.75l-0.57031-1.332-0.003906-0.003907c-0.31641-0.76953-0.58984-1.5586-0.81641-2.3594l-0.62891-2.5977-0.23437-1.9609c-0.19141-1.3008-0.26953-2.6133-0.23438-3.9258-0.066406-2.4883 0.21094-4.9766 0.81641-7.3906 0.11328-0.51563 0.34766-0.9375 0.46094-1.3867-20.43 6.0078-32.258 23.438-45.703 41.25 1.875-0.28906 3.6289-0.46094 5.1953-0.58203 6.8633-0.40234 11.016 0.40234 11.195 1.6797 0.17969 1.2734-3.75 3-9.8164 5.0703-3.0547 1.0391-6.6953 2.1953-10.312 3.8164-3.4609 1.4453-7.5 3.918-8.1953 5.8867-0.28125 0.40234-0.16797 0.86328-0.28125 1.3203l0.16797 0.87109-0.69531 0.16797 0.12109 0.11328c0.62891 0.054687 0.51562 0.52344 0.75 0.75l0.75 1.5664 0.68359 1.0312c0.41406 0.69531 0.87109 1.5 1.4453 2.3164v0.003907c0.44141 0.67969 0.92578 1.3359 1.4453 1.957 0.054688 0.22656 0.28906 0.34766 0.34766 0.63672 0.22266 0.125 0.45703 0.23828 0.69141 0.33984l0.63672 0.34766c0.16797-0.054688 0.22656 0 0.34766 0.12109 0.57031-0.12109 1.0312 0.054688 1.668-0.12109 2.5391-0.46094 5.082-1.5547 6.9844-2.0156 1.9023-0.46094 3.1133-0.46094 3.4023 0.11328 0.28906 0.57031-0.16797 1.6211-1.4453 3.0664l0.003906-0.003906c-1.832 2.2383-4.1133 4.0664-6.6953 5.3633-1.0664 0.48828-2.1914 0.83984-3.3438 1.0391-0.84766 0.085937-1.6992 0.085937-2.543 0l-1.2656-0.17969-0.69531-0.16797-0.69531-0.23438-0.40234-0.11328-0.25-0.015625-0.9375-0.46094-1.668-1.3867c-1.0273-0.84375-1.9688-1.7852-2.8125-2.8125-0.90234-1-1.7109-2.0781-2.418-3.2227l-1.0977-1.7344c-7.0977 9.8047-13.219 22.219-2.3164 27.008 6.1211 2.6523 12.93 4.2656 18.871 7.2656 11.605 5.7734 22.855 12.188 34.574 17.719 0.55469-1.0703 1.25-2.0625 2.0742-2.9453 2.5391-2.8867 4.9688-3.2891 5.8867-2.4766 1.1523 0.86328 0.9375 2.8789 0.9375 5.625 0.34766 14.25 8.9453 17.371 21.637 13.5 6.1211-1.7773 11.953-0.79297 18.012-3.1016zm-22.039 223.87c1.4727-12.961 1.5273-26.043 0.16797-39.02-4.2109 6.5625-8.25 13.273-11.945 20.438-15.055 29.484-56.492 22.387-84.086 15.461h0.003906c-5.2344-1.2617-10.363-2.918-15.348-4.9609 2.1367 24.008 8.7109 69.883 20.625 68.559 19.512-2.3281 38.434-8.1758 55.859-17.258 3.5234-1.875 26.316-10.098 27.883-13.332h-0.003906c4.1133-9.4531 6.4336-19.586 6.8438-29.887zm-157.55-81.836c0.57812-0.44141 1.207-0.80859 1.875-1.0938-4.0977-7.5-10.5-14.832-14.773-21.18-4.5547-6.8164-9.2891-13.566-14.062-20.258-20.316 15.871-43.051 28.621-63.477 44.27l-0.003906-0.003907c11.016 14.207 23.863 26.898 38.203 37.734 16.344-14.492 34.98-25.742 52.238-39.469zm-64.688 51.824v0.003906c-14.418-11.551-27.504-24.676-39.008-39.133-0.63672 0.52344-1.2656 1.0391-1.875 1.5547-6.2266 6.1289-13.539 11.039-21.562 14.484-0.019531 0.44531 0.082031 0.88281 0.28906 1.2773-0.28906 0.40234 2.4766 3.9844 2.8125 4.2656 2.457 2.4609 5.1875 4.6289 8.1367 6.4688 2.2891 1.5312 4.4141 3.2891 6.3477 5.25 1.1523 1.5547 1.6211 2.6523 1.2734 3.1797-0.34766 0.52344-1.6211 0.51562-3.4688-0.066407h0.003906c-2.4844-0.60937-4.9297-1.3594-7.3242-2.25-0.52344-0.16797-1.0391-0.40234-1.5664-0.57031v-0.003906c0.40625 0.89844 0.69922 1.8438 0.875 2.8125 0.48828 1.6484 0.68359 3.3672 0.57031 5.082 0.074219 1.1641-0.12109 2.3281-0.57031 3.4023-0.63672 1.7344-1.332 2.6523-2.0234 2.6523-1.5 0.23438-1.7891-4.6875-4.3867-8.6523h-0.003906c-1.5977-2.582-3.6719-4.832-6.1133-6.6367-3.293-2.2617-6.7891-4.2109-10.441-5.832-6.75-2.8125-13.387-4.9023-18.816-6.6289-3.75-0.28906-7.6797-0.63672-11.945-1.0977-2.5977-0.28906-5.25-0.52344-7.9023-0.81641v0.003906c0.53906 17.973-4.9492 35.605-15.59 50.098 22.742 6.043 46.129 9.3555 69.656 9.8633 28.93 0.1875 44.793-19.723 62.625-38.707zm-150.39 23.945c11.434-12.703 17.312-29.449 16.332-46.508v-0.29297c-28.746-1.6172-57.234-6.375-84.945-14.191-12.605-3.8047-24.84-8.7305-36.562-14.719-6.8711-3.6367-13.5-7.6797-20.371-11.25-4.9609-2.5977-5.5391-6.5625-9.5234-10.312h-0.003906c-2.2773-2.0273-4.707-3.8789-7.2656-5.543-3.1211-2.0156-6.0664-3.8633-9.1211-1.6133-12.188 9 10.312 27.121 16.273 32.023 3.2344 2.5391 5.4297 4.6211 4.8477 5.8867-2.25 4.9609-25.969-8.8867-29.316-9.9297-3.3477-1.0391-9.6953-3.4609-13.125-1.7266-6.7578 3.2812 5.0156 7.7891 7.5547 9.168l3.4609 1.875c2.25 1.332 4.4453 2.3711 6.4688 3.4141 2.0234 1.0391 3.918 2.0703 5.625 2.8125 3.3477 1.7344 6.4023 3.0664 8.4375 4.1523 2.0352 1.0859 3.1133 2.0234 2.9453 2.6641-0.16797 0.63672-1.5547 0.9375-3.8711 0.9375v0.007813c-3.2773 0.070312-6.5469-0.35547-9.6953-1.2656-2.2344-0.44141-4.4297-1.0664-6.5625-1.875-4.6992-1.5703-9.0078-4.125-12.637-7.5-1.875-1.668-10.211-7.1523-12.461-3.6836-4.2734 6.5625 13.211 11.363 16.387 12.188 7.4453 1.7891 12.637 2.9453 12.469 4.3867-0.12109 1.2109-4.9141 2.5391-13.398 2.4297l0.003906-0.003906c-3.7461 0.27344-7.4961-0.44922-10.867-2.0977-3.375-1.6445-6.2539-4.1562-8.3438-7.2773-2.082-3.6953-10.164-12.121-12.414-3.8164-1.7344 6.5625 5.625 10.219 10.164 12.582 6.3789 3.5508 13.012 6.6172 19.848 9.1797 13.637 5.0938 28.652 5.1133 42.301 0.054688 0.12109-0.054688 0.23438-0.054688 0.34766-0.11328 1.0742-0.60547 2.2891-0.92969 3.5234-0.9375 1.9531-1.8164 4.1641-3.3359 6.5625-4.5 8.082-3.6367 15.648-2.5977 15.938-0.054688 0.28906 2.5391-4.0977 5.25-9.8633 7.9609 35.832 11.578 73.117 26.531 110.86 37.488z"/>
 <path d="m797.66 387.41-0.054687 0.40234v-0.40234z"/>
 <path d="m635.44 434.21c7.9141 5.3047 12.414 9.2344 11.773 10.387-1.4453 2.6523-22.5-8.082-48.535-18.637h0.003907c-11.223-4.2031-22.715-7.6484-34.398-10.312-9.0547-1.7891-14.832-3.1797-14.832-4.6211 0-1.2656 5.9453-2.3047 15.703-2.25 12.688 0.76562 25.184 3.4727 37.051 8.0273 11.641 4.6602 22.777 10.492 33.234 17.406z"/>
 <path d="m644.06 283.41c0 0.054688 0.054688 0.11328 0.054688 0.17969l-0.054688-0.066406z"/>
 <path d="m604.69 441.07c3.2344 0.46875 5.0234 1.0977 5.0234 1.7344 0 3.1133-28.273 3.1797-58.809 17.719-2.9453 1.2109-5.625 2.5391-8.4375 3.918 6.1289 8.957 7.8555 20.211 4.6875 30.594-1.2578 3.5781-3.5391 6.707-6.5625 9-2.082 1.2734-3.4141 1.5547-3.8164 1.2109-0.40234-0.34766 0.34766-1.668 1.5547-3.6289l0.003906-0.003906c1.5039-2.5195 2.5234-5.2969 3.0078-8.1914 1.0352-10.125-2.4258-20.191-9.4688-27.535l-4.2109-4.5547 5.418-2.8125c4.3867-2.3047 8.8867-4.7891 13.789-6.8633h0.003906c13.852-6.457 28.805-10.219 44.062-11.082 4.5898-0.29688 9.1992-0.12891 13.754 0.49609z"/>
 <path d="m499.36 127.71c0.13281 1.4062 0.078125 2.8203-0.16797 4.2109-4.8477 53.102-39.758 95.691-97.07 96.32-54.074 0.63672-97.238-35.551-92.625-91.875 3.8711-48.246 33.121-96.312 86.684-98.738 56.145-2.5977 102.32 33.41 103.18 90.082zm-23.109 31.164c1.6719-4.8008 2.9844-9.7227 3.9297-14.719-1.8984-12-7.6758-23.047-16.453-31.445-6.5195-7.9609-15.047-14.035-24.695-17.605-2.6484 9.1055-4.4492 18.434-5.3711 27.871 12.48 5.832 23.508 14.371 32.277 24.996 3.6289 3.4453 7.0703 7.0859 10.312 10.902zm4.2109-48.648c-2.6914-18.5-14.543-34.391-31.512-42.242-2.0156 4.5-3.918 9.1211-5.7109 13.902h0.003907c15.344 4.8047 28.523 14.832 37.246 28.34zm-11.711 64.004c-1.1523-8.2031-11.137-15-16.68-20.551-5.4062-6.2266-11.742-11.578-18.785-15.871 0.22266 19.613 7.707 38.449 21.008 52.867 5.6328-4.7109 10.508-10.258 14.457-16.445zm-32.41-111.73c-5.0352-2.0312-10.176-3.7852-15.402-5.25-0.17969 0.23438-0.23438 0.40234-0.40234 0.63672-18.102 23.531-26.078 53.305-22.164 82.734 0.36328 1.1758 0.5 2.4102 0.40234 3.6367 3.3203 22.219 9.4062 43.93 18.125 64.633 0.16797-0.054687 0.34766-0.054687 0.57031-0.11328 8.7812-2.2852 17.238-5.6836 25.164-10.105-34.512-37.949-25.512-92.598-6.293-136.17zm-30.402-7.8477c-7.832-0.58984-15.703 0.41406-23.137 2.9453-17.504 6.1055-32.5 17.82-42.656 33.328-10.152 15.512-14.902 33.938-13.5 52.422 0.33594 8.832 2.1914 17.543 5.4844 25.746-0.82031-16.461 1.6328-32.918 7.2188-48.422 10.387-26.551 26.484-46.34 55.688-47.492v-0.003906c3.0625-6.4922 6.7109-12.691 10.902-18.523zm-31.398 153.62c9.2031 2.8125 18.863 3.8125 28.445 2.9453-7.6172-18.789-13.246-38.324-16.789-58.285-17.195 9-14.945 38.898-11.656 55.34zm9.5703-73.227h0.003906c-1.1406-15.965 0.64062-32 5.2578-47.324-24.59 4.7344-38.09 30.535-41.438 54.375-2.1953 15.582-3.6367 40.969 6.2344 55.922 0.57031 0.40234 1.1523 0.75 1.7266 1.1523-2.457-25.461 1.9688-56.672 28.219-64.125z"/>
</svg>
